<svg width="182" height="42" viewBox="0 0 182 42" fill="none" xmlns="http://www.w3.org/2000/svg">
<path d="M172 0H10C4.47715 0 0 4.47715 0 10V32C0 37.5228 4.47715 42 10 42H172C177.523 42 182 37.5228 182 32V10C182 4.47715 177.523 0 172 0Z" fill="white"/>
<path d="M172 0.5H10C4.75329 0.5 0.5 4.75329 0.5 10V32C0.5 37.2467 4.75329 41.5 10 41.5H172C177.247 41.5 181.5 37.2467 181.5 32V10C181.5 4.75329 177.247 0.5 172 0.5Z" stroke="#195795"/>
<path d="M48.481 23.463C48.481 22.579 48.6847 21.786 49.092 21.084C49.508 20.382 50.067 19.836 50.769 19.446C51.4797 19.0473 52.2553 18.848 53.096 18.848C54.058 18.848 54.9117 19.0863 55.657 19.563C56.411 20.031 56.957 20.6983 57.295 21.565H55.514C55.28 21.0883 54.955 20.733 54.539 20.499C54.123 20.265 53.642 20.148 53.096 20.148C52.498 20.148 51.965 20.2823 51.497 20.551C51.029 20.8197 50.6607 21.2053 50.392 21.708C50.132 22.2107 50.002 22.7957 50.002 23.463C50.002 24.1303 50.132 24.7153 50.392 25.218C50.6607 25.7207 51.029 26.1107 51.497 26.388C51.965 26.6567 52.498 26.791 53.096 26.791C53.642 26.791 54.123 26.674 54.539 26.44C54.955 26.206 55.28 25.8507 55.514 25.374H57.295C56.957 26.2407 56.411 26.908 55.657 27.376C54.9117 27.844 54.058 28.078 53.096 28.078C52.2467 28.078 51.471 27.883 50.769 27.493C50.067 27.0943 49.508 26.544 49.092 25.842C48.6847 25.14 48.481 24.347 48.481 23.463ZM62.1367 28.117C61.4607 28.117 60.8497 27.9653 60.3037 27.662C59.7577 27.35 59.3287 26.9167 59.0167 26.362C58.7047 25.7987 58.5487 25.1487 58.5487 24.412C58.5487 23.684 58.709 23.0383 59.0297 22.475C59.3504 21.9117 59.788 21.4783 60.3427 21.175C60.8974 20.8717 61.517 20.72 62.2017 20.72C62.8864 20.72 63.506 20.8717 64.0607 21.175C64.6154 21.4783 65.053 21.9117 65.3737 22.475C65.6944 23.0383 65.8547 23.684 65.8547 24.412C65.8547 25.14 65.69 25.7857 65.3607 26.349C65.0314 26.9123 64.5807 27.35 64.0087 27.662C63.4454 27.9653 62.8214 28.117 62.1367 28.117ZM62.1367 26.83C62.518 26.83 62.8734 26.739 63.2027 26.557C63.5407 26.375 63.8137 26.102 64.0217 25.738C64.2297 25.374 64.3337 24.932 64.3337 24.412C64.3337 23.892 64.234 23.4543 64.0347 23.099C63.8354 22.735 63.571 22.462 63.2417 22.28C62.9124 22.098 62.557 22.007 62.1757 22.007C61.7944 22.007 61.439 22.098 61.1097 22.28C60.789 22.462 60.5334 22.735 60.3427 23.099C60.152 23.4543 60.0567 23.892 60.0567 24.412C60.0567 25.1833 60.2517 25.7813 60.6417 26.206C61.0404 26.622 61.5387 26.83 62.1367 26.83ZM68.8017 21.89C69.0531 21.5607 69.3954 21.2833 69.8287 21.058C70.2621 20.8327 70.7517 20.72 71.2977 20.72C71.9217 20.72 72.4894 20.876 73.0007 21.188C73.5207 21.4913 73.9281 21.9203 74.2227 22.475C74.5174 23.0297 74.6647 23.6667 74.6647 24.386C74.6647 25.1053 74.5174 25.751 74.2227 26.323C73.9281 26.8863 73.5207 27.3283 73.0007 27.649C72.4894 27.961 71.9217 28.117 71.2977 28.117C70.7517 28.117 70.2664 28.0087 69.8417 27.792C69.4171 27.5667 69.0704 27.2893 68.8017 26.96V31.406H67.3197V20.837H68.8017V21.89ZM73.1567 24.386C73.1567 23.892 73.0527 23.4673 72.8447 23.112C72.6454 22.748 72.3767 22.475 72.0387 22.293C71.7094 22.1023 71.3541 22.007 70.9727 22.007C70.6001 22.007 70.2447 22.1023 69.9067 22.293C69.5774 22.4837 69.3087 22.761 69.1007 23.125C68.9014 23.489 68.8017 23.918 68.8017 24.412C68.8017 24.906 68.9014 25.3393 69.1007 25.712C69.3087 26.076 69.5774 26.3533 69.9067 26.544C70.2447 26.7347 70.6001 26.83 70.9727 26.83C71.3541 26.83 71.7094 26.7347 72.0387 26.544C72.3767 26.3447 72.6454 26.0587 72.8447 25.686C73.0527 25.3133 73.1567 24.88 73.1567 24.386ZM82.5783 20.837L78.1843 31.367H76.6503L78.1063 27.883L75.2853 20.837H76.9363L78.9513 26.297L81.0443 20.837H82.5783ZM88.8026 22.046V26.011C88.8026 26.2797 88.8633 26.4747 88.9846 26.596C89.1146 26.7087 89.3313 26.765 89.6346 26.765H90.5446V28H89.3746C88.7073 28 88.196 27.844 87.8406 27.532C87.4853 27.22 87.3076 26.713 87.3076 26.011V22.046H86.4626V20.837H87.3076V19.056H88.8026V20.837H90.5446V22.046H88.8026ZM95.0175 28.117C94.3415 28.117 93.7305 27.9653 93.1845 27.662C92.6385 27.35 92.2095 26.9167 91.8975 26.362C91.5855 25.7987 91.4295 25.1487 91.4295 24.412C91.4295 23.684 91.5899 23.0383 91.9105 22.475C92.2312 21.9117 92.6689 21.4783 93.2235 21.175C93.7782 20.8717 94.3979 20.72 95.0825 20.72C95.7672 20.72 96.3869 20.8717 96.9415 21.175C97.4962 21.4783 97.9339 21.9117 98.2545 22.475C98.5752 23.0383 98.7355 23.684 98.7355 24.412C98.7355 25.14 98.5709 25.7857 98.2415 26.349C97.9122 26.9123 97.4615 27.35 96.8895 27.662C96.3262 27.9653 95.7022 28.117 95.0175 28.117ZM95.0175 26.83C95.3989 26.83 95.7542 26.739 96.0835 26.557C96.4215 26.375 96.6945 26.102 96.9025 25.738C97.1105 25.374 97.2145 24.932 97.2145 24.412C97.2145 23.892 97.1149 23.4543 96.9155 23.099C96.7162 22.735 96.4519 22.462 96.1225 22.28C95.7932 22.098 95.4379 22.007 95.0565 22.007C94.6752 22.007 94.3199 22.098 93.9905 22.28C93.6699 22.462 93.4142 22.735 93.2235 23.099C93.0329 23.4543 92.9375 23.892 92.9375 24.412C92.9375 25.1833 93.1325 25.7813 93.5225 26.206C93.9212 26.622 94.4195 26.83 95.0175 26.83ZM103.084 23.463C103.084 22.579 103.287 21.786 103.695 21.084C104.111 20.382 104.67 19.836 105.372 19.446C106.082 19.0473 106.858 18.848 107.699 18.848C108.661 18.848 109.514 19.0863 110.26 19.563C111.014 20.031 111.56 20.6983 111.898 21.565H110.117C109.883 21.0883 109.558 20.733 109.142 20.499C108.726 20.265 108.245 20.148 107.699 20.148C107.101 20.148 106.568 20.2823 106.1 20.551C105.632 20.8197 105.263 21.2053 104.995 21.708C104.735 22.2107 104.605 22.7957 104.605 23.463C104.605 24.1303 104.735 24.7153 104.995 25.218C105.263 25.7207 105.632 26.1107 106.1 26.388C106.568 26.6567 107.101 26.791 107.699 26.791C108.245 26.791 108.726 26.674 109.142 26.44C109.558 26.206 109.883 25.8507 110.117 25.374H111.898C111.56 26.2407 111.014 26.908 110.26 27.376C109.514 27.844 108.661 28.078 107.699 28.078C106.849 28.078 106.074 27.883 105.372 27.493C104.67 27.0943 104.111 26.544 103.695 25.842C103.287 25.14 103.084 24.347 103.084 23.463ZM115.114 18.38V28H113.632V18.38H115.114ZM117.814 19.888C117.545 19.888 117.32 19.797 117.138 19.615C116.956 19.433 116.865 19.2077 116.865 18.939C116.865 18.6703 116.956 18.445 117.138 18.263C117.32 18.081 117.545 17.99 117.814 17.99C118.074 17.99 118.295 18.081 118.477 18.263C118.659 18.445 118.75 18.6703 118.75 18.939C118.75 19.2077 118.659 19.433 118.477 19.615C118.295 19.797 118.074 19.888 117.814 19.888ZM118.542 20.837V28H117.06V20.837H118.542ZM121.97 21.89C122.221 21.5607 122.563 21.2833 122.997 21.058C123.43 20.8327 123.92 20.72 124.466 20.72C125.09 20.72 125.657 20.876 126.169 21.188C126.689 21.4913 127.096 21.9203 127.391 22.475C127.685 23.0297 127.833 23.6667 127.833 24.386C127.833 25.1053 127.685 25.751 127.391 26.323C127.096 26.8863 126.689 27.3283 126.169 27.649C125.657 27.961 125.09 28.117 124.466 28.117C123.92 28.117 123.434 28.0087 123.01 27.792C122.585 27.5667 122.238 27.2893 121.97 26.96V31.406H120.488V20.837H121.97V21.89ZM126.325 24.386C126.325 23.892 126.221 23.4673 126.013 23.112C125.813 22.748 125.545 22.475 125.207 22.293C124.877 22.1023 124.522 22.007 124.141 22.007C123.768 22.007 123.413 22.1023 123.075 22.293C122.745 22.4837 122.477 22.761 122.269 23.125C122.069 23.489 121.97 23.918 121.97 24.412C121.97 24.906 122.069 25.3393 122.269 25.712C122.477 26.076 122.745 26.3533 123.075 26.544C123.413 26.7347 123.768 26.83 124.141 26.83C124.522 26.83 124.877 26.7347 125.207 26.544C125.545 26.3447 125.813 26.0587 126.013 25.686C126.221 25.3133 126.325 24.88 126.325 24.386ZM130.78 21.903C131.032 21.5563 131.374 21.2747 131.807 21.058C132.249 20.8327 132.739 20.72 133.276 20.72C133.909 20.72 134.481 20.8717 134.992 21.175C135.504 21.4783 135.907 21.9117 136.201 22.475C136.496 23.0297 136.643 23.6667 136.643 24.386C136.643 25.1053 136.496 25.751 136.201 26.323C135.907 26.8863 135.499 27.3283 134.979 27.649C134.468 27.961 133.9 28.117 133.276 28.117C132.722 28.117 132.228 28.0087 131.794 27.792C131.37 27.5753 131.032 27.298 130.78 26.96V28H129.298V18.38H130.78V21.903ZM135.135 24.386C135.135 23.892 135.031 23.4673 134.823 23.112C134.624 22.748 134.355 22.475 134.017 22.293C133.688 22.1023 133.333 22.007 132.951 22.007C132.579 22.007 132.223 22.1023 131.885 22.293C131.556 22.4837 131.287 22.761 131.079 23.125C130.88 23.489 130.78 23.918 130.78 24.412C130.78 24.906 130.88 25.3393 131.079 25.712C131.287 26.076 131.556 26.3533 131.885 26.544C132.223 26.7347 132.579 26.83 132.951 26.83C133.333 26.83 133.688 26.7347 134.017 26.544C134.355 26.3447 134.624 26.0587 134.823 25.686C135.031 25.3133 135.135 24.88 135.135 24.386ZM141.216 28.117C140.54 28.117 139.929 27.9653 139.383 27.662C138.837 27.35 138.408 26.9167 138.096 26.362C137.784 25.7987 137.628 25.1487 137.628 24.412C137.628 23.684 137.788 23.0383 138.109 22.475C138.429 21.9117 138.867 21.4783 139.422 21.175C139.976 20.8717 140.596 20.72 141.281 20.72C141.965 20.72 142.585 20.8717 143.14 21.175C143.694 21.4783 144.132 21.9117 144.453 22.475C144.773 23.0383 144.934 23.684 144.934 24.412C144.934 25.14 144.769 25.7857 144.44 26.349C144.11 26.9123 143.66 27.35 143.088 27.662C142.524 27.9653 141.9 28.117 141.216 28.117ZM141.216 26.83C141.597 26.83 141.952 26.739 142.282 26.557C142.62 26.375 142.893 26.102 143.101 25.738C143.309 25.374 143.413 24.932 143.413 24.412C143.413 23.892 143.313 23.4543 143.114 23.099C142.914 22.735 142.65 22.462 142.321 22.28C141.991 22.098 141.636 22.007 141.255 22.007C140.873 22.007 140.518 22.098 140.189 22.28C139.868 22.462 139.612 22.735 139.422 23.099C139.231 23.4543 139.136 23.892 139.136 24.412C139.136 25.1833 139.331 25.7813 139.721 26.206C140.119 26.622 140.618 26.83 141.216 26.83ZM145.905 24.386C145.905 23.6667 146.052 23.0297 146.347 22.475C146.65 21.9203 147.057 21.4913 147.569 21.188C148.089 20.876 148.661 20.72 149.285 20.72C149.848 20.72 150.338 20.8327 150.754 21.058C151.178 21.2747 151.516 21.5477 151.768 21.877V20.837H153.263V28H151.768V26.934C151.516 27.272 151.174 27.5537 150.741 27.779C150.307 28.0043 149.813 28.117 149.259 28.117C148.643 28.117 148.08 27.961 147.569 27.649C147.057 27.3283 146.65 26.8863 146.347 26.323C146.052 25.751 145.905 25.1053 145.905 24.386ZM151.768 24.412C151.768 23.918 151.664 23.489 151.456 23.125C151.256 22.761 150.992 22.4837 150.663 22.293C150.333 22.1023 149.978 22.007 149.597 22.007C149.215 22.007 148.86 22.1023 148.531 22.293C148.201 22.475 147.933 22.748 147.725 23.112C147.525 23.4673 147.426 23.892 147.426 24.386C147.426 24.88 147.525 25.3133 147.725 25.686C147.933 26.0587 148.201 26.3447 148.531 26.544C148.869 26.7347 149.224 26.83 149.597 26.83C149.978 26.83 150.333 26.7347 150.663 26.544C150.992 26.3533 151.256 26.076 151.456 25.712C151.664 25.3393 151.768 24.906 151.768 24.412ZM156.691 21.877C156.908 21.513 157.194 21.2313 157.549 21.032C157.913 20.824 158.342 20.72 158.836 20.72V22.254H158.459C157.879 22.254 157.437 22.4013 157.133 22.696C156.839 22.9907 156.691 23.502 156.691 24.23V28H155.209V20.837H156.691V21.877ZM159.705 24.386C159.705 23.6667 159.852 23.0297 160.147 22.475C160.45 21.9203 160.857 21.4913 161.369 21.188C161.889 20.876 162.465 20.72 163.098 20.72C163.566 20.72 164.025 20.824 164.476 21.032C164.935 21.2313 165.299 21.5 165.568 21.838V18.38H167.063V28H165.568V26.921C165.325 27.2677 164.987 27.5537 164.554 27.779C164.129 28.0043 163.639 28.117 163.085 28.117C162.461 28.117 161.889 27.961 161.369 27.649C160.857 27.3283 160.45 26.8863 160.147 26.323C159.852 25.751 159.705 25.1053 159.705 24.386ZM165.568 24.412C165.568 23.918 165.464 23.489 165.256 23.125C165.056 22.761 164.792 22.4837 164.463 22.293C164.133 22.1023 163.778 22.007 163.397 22.007C163.015 22.007 162.66 22.1023 162.331 22.293C162.001 22.475 161.733 22.748 161.525 23.112C161.325 23.4673 161.226 23.892 161.226 24.386C161.226 24.88 161.325 25.3133 161.525 25.686C161.733 26.0587 162.001 26.3447 162.331 26.544C162.669 26.7347 163.024 26.83 163.397 26.83C163.778 26.83 164.133 26.7347 164.463 26.544C164.792 26.3533 165.056 26.076 165.256 25.712C165.464 25.3393 165.568 24.906 165.568 24.412Z" fill="black"/>
<path d="M34 35H20C19.2044 35 18.4413 34.6839 17.8787 34.1213C17.3161 33.5587 17 32.7956 17 32V18C17 17.2044 17.3161 16.4413 17.8787 15.8787C18.4413 15.3161 19.2044 15 20 15H34C34.7956 15 35.5587 15.3161 36.1213 15.8787C36.6839 16.4413 37 17.2044 37 18V32C37 32.7956 36.6839 33.5587 36.1213 34.1213C35.5587 34.6839 34.7956 35 34 35ZM20 17C19.7348 17 19.4804 17.1054 19.2929 17.2929C19.1054 17.4804 19 17.7348 19 18V32C19 32.2652 19.1054 32.5196 19.2929 32.7071C19.4804 32.8946 19.7348 33 20 33H34C34.2652 33 34.5196 32.8946 34.7071 32.7071C34.8946 32.5196 35 32.2652 35 32V18C35 17.7348 34.8946 17.4804 34.7071 17.2929C34.5196 17.1054 34.2652 17 34 17H20Z" fill="black"/>
<path d="M18 31H16C15.2044 31 14.4413 30.6839 13.8787 30.1213C13.3161 29.5587 13 28.7956 13 28V14C13 13.2044 13.3161 12.4413 13.8787 11.8787C14.4413 11.3161 15.2044 11 16 11H30C30.7956 11 31.5587 11.3161 32.1213 11.8787C32.6839 12.4413 33 13.2044 33 14V16C33 16.2652 32.8946 16.5196 32.7071 16.7071C32.5196 16.8946 32.2652 17 32 17C31.7348 17 31.4804 16.8946 31.2929 16.7071C31.1054 16.5196 31 16.2652 31 16V14C31 13.7348 30.8946 13.4804 30.7071 13.2929C30.5196 13.1054 30.2652 13 30 13H16C15.7348 13 15.4804 13.1054 15.2929 13.2929C15.1054 13.4804 15 13.7348 15 14V28C15 28.2652 15.1054 28.5196 15.2929 28.7071C15.4804 28.8946 15.7348 29 16 29H18C18.2652 29 18.5196 29.1054 18.7071 29.2929C18.8946 29.4804 19 29.7348 19 30C19 30.2652 18.8946 30.5196 18.7071 30.7071C18.5196 30.8946 18.2652 31 18 31Z" fill="black"/>
<path d="M24 31C23.4071 30.9995 22.8276 30.8233 22.3347 30.4936C21.8419 30.1639 21.4577 29.6956 21.2309 29.1477C21.0041 28.5999 20.9446 27.9971 21.0602 27.4155C21.1757 26.8339 21.461 26.2996 21.88 25.88L22.88 24.88C23.4512 24.3348 24.2104 24.0305 25 24.0305C25.7897 24.0305 26.5489 24.3348 27.12 24.88C27.6819 25.4425 27.9974 26.205 27.9974 27C27.9974 27.795 27.6819 28.5575 27.12 29.12L26.12 30.12C25.558 30.6828 24.7954 30.9993 24 31ZM25 26C24.8684 25.9993 24.738 26.0245 24.6161 26.0743C24.4943 26.124 24.3835 26.1974 24.29 26.29L23.29 27.29C23.1038 27.4774 22.9993 27.7309 22.9993 27.995C22.9993 28.2592 23.1038 28.5127 23.29 28.7C23.4774 28.8863 23.7309 28.9908 23.995 28.9908C24.2592 28.9908 24.5127 28.8863 24.7 28.7L25.7 27.7C25.8371 27.5603 25.9301 27.3834 25.9675 27.1912C26.005 26.9991 25.9852 26.8002 25.9107 26.6192C25.8361 26.4382 25.7101 26.283 25.5483 26.173C25.3864 26.0629 25.1958 26.0028 25 26Z" fill="black"/>
<path d="M29 26C28.4071 25.9995 27.8276 25.8233 27.3347 25.4936C26.8419 25.1639 26.4577 24.6956 26.2309 24.1477C26.0041 23.5999 25.9446 22.9971 26.0602 22.4155C26.1757 21.8339 26.461 21.2996 26.88 20.88L27.88 19.88C28.4512 19.3348 29.2104 19.0305 30 19.0305C30.7897 19.0305 31.5489 19.3348 32.12 19.88C32.6819 20.4425 32.9974 21.205 32.9974 22C32.9974 22.795 32.6819 23.5575 32.12 24.12L31.12 25.12C30.558 25.6828 29.7954 25.9993 29 26ZM30 21C29.8684 20.9993 29.738 21.0245 29.6161 21.0743C29.4943 21.124 29.3835 21.1974 29.29 21.29L28.29 22.29C28.1038 22.4774 27.9993 22.7309 27.9993 22.995C27.9993 23.2592 28.1038 23.5127 28.29 23.7C28.4774 23.8863 28.7309 23.9908 28.995 23.9908C29.2592 23.9908 29.5127 23.8863 29.7 23.7L30.7 22.7C30.8371 22.5603 30.9301 22.3834 30.9675 22.1912C31.005 21.9991 30.9852 21.8002 30.9107 21.6192C30.8361 21.4382 30.7101 21.283 30.5483 21.173C30.3864 21.0629 30.1958 21.0028 30 21Z" fill="black"/>
<path d="M26 27C25.8013 27.0012 25.6069 26.9432 25.4413 26.8333C25.2758 26.7235 25.1468 26.5669 25.0706 26.3835C24.9944 26.2001 24.9746 25.9981 25.0137 25.8033C25.0527 25.6086 25.1489 25.4299 25.29 25.29L27.29 23.29C27.4813 23.1262 27.7273 23.0406 27.979 23.0503C28.2307 23.06 28.4694 23.1644 28.6475 23.3425C28.8256 23.5205 28.9299 23.7593 28.9397 24.011C28.9494 24.2626 28.8638 24.5087 28.7 24.7L26.7 26.7C26.5153 26.8884 26.2637 26.9963 26 27Z" fill="black"/>
</svg>
