<svg width="182" height="42" viewBox="0 0 182 42" fill="none" xmlns="http://www.w3.org/2000/svg">
<path d="M172 0H10C4.47715 0 0 4.47715 0 10V32C0 37.5228 4.47715 42 10 42H172C177.523 42 182 37.5228 182 32V10C182 4.47715 177.523 0 172 0Z" fill="white"/>
<path d="M172 0.5H10C4.75329 0.5 0.5 4.75329 0.5 10V32C0.5 37.2467 4.75329 41.5 10 41.5H172C177.247 41.5 181.5 37.2467 181.5 32V10C181.5 4.75329 177.247 0.5 172 0.5Z" stroke="#195795"/>
<path d="M48.072 25.439C48.072 26.791 46.967 28.091 44.952 28.091C43.145 28.091 41.754 27.103 41.754 25.504H43.34C43.405 26.245 43.925 26.843 44.952 26.843C45.992 26.843 46.577 26.284 46.577 25.517C46.577 23.333 41.78 24.75 41.78 21.422C41.78 19.836 43.041 18.848 44.887 18.848C46.616 18.848 47.838 19.758 47.968 21.305H46.33C46.278 20.694 45.745 20.135 44.809 20.109C43.951 20.083 43.288 20.499 43.288 21.37C43.288 23.411 48.072 22.137 48.072 25.439ZM49.8207 28V18.38H51.3027V21.669C51.7967 21.071 52.6027 20.72 53.5257 20.72C55.1247 20.72 56.3727 21.773 56.3727 23.775V28H54.9037V23.996C54.9037 22.683 54.1887 22.007 53.1097 22.007C52.0177 22.007 51.3027 22.683 51.3027 23.996V28H49.8207ZM57.7691 24.386C57.7691 22.176 59.2641 20.72 61.1491 20.72C62.3581 20.72 63.1901 21.292 63.6321 21.877V20.837H65.1271V28H63.6321V26.934C63.1771 27.545 62.3191 28.117 61.1231 28.117C59.2641 28.117 57.7691 26.596 57.7691 24.386ZM63.6321 24.412C63.6321 22.878 62.5791 22.007 61.4611 22.007C60.3561 22.007 59.2901 22.839 59.2901 24.386C59.2901 25.933 60.3561 26.83 61.4611 26.83C62.5791 26.83 63.6321 25.959 63.6321 24.412ZM68.5556 24.23V28H67.0736V20.837H68.5556V21.877C68.9716 21.162 69.6866 20.72 70.7006 20.72V22.254H70.3236C69.2316 22.254 68.5556 22.709 68.5556 24.23ZM75.0789 21.968C74.0779 21.968 73.2719 22.644 73.1159 23.775H77.0809C77.0549 22.67 76.1839 21.968 75.0789 21.968ZM78.4329 25.868C78.0299 27.116 76.8989 28.117 75.1439 28.117C73.0899 28.117 71.5689 26.661 71.5689 24.412C71.5689 22.163 73.0249 20.72 75.1439 20.72C77.1849 20.72 78.6279 22.137 78.6279 24.243C78.6279 24.49 78.6149 24.724 78.5759 24.971H73.1029C73.2069 26.154 74.0519 26.869 75.1439 26.869C76.0539 26.869 76.5609 26.427 76.8339 25.868H78.4329ZM90.2883 24.412C90.2883 26.661 88.6243 28.117 86.5703 28.117C84.5293 28.117 82.9823 26.661 82.9823 24.412C82.9823 22.163 84.5943 20.72 86.6353 20.72C88.6763 20.72 90.2883 22.163 90.2883 24.412ZM84.4903 24.412C84.4903 26.037 85.4523 26.83 86.5703 26.83C87.6753 26.83 88.7673 26.037 88.7673 24.412C88.7673 22.787 87.7143 22.007 86.6093 22.007C85.4913 22.007 84.4903 22.787 84.4903 24.412ZM96.8363 28V23.996C96.8363 22.683 96.1213 22.007 95.0423 22.007C93.9503 22.007 93.2353 22.683 93.2353 23.996V28H91.7533V20.837H93.2353V21.656C93.7163 21.071 94.5093 20.72 95.3673 20.72C97.0443 20.72 98.3053 21.773 98.3053 23.775V28H96.8363ZM103.573 28V18.965H108.89V20.174H105.055V22.839H108.045V24.048H105.055V28H103.573ZM109.769 24.386C109.769 22.176 111.264 20.72 113.149 20.72C114.358 20.72 115.19 21.292 115.632 21.877V20.837H117.127V28H115.632V26.934C115.177 27.545 114.319 28.117 113.123 28.117C111.264 28.117 109.769 26.596 109.769 24.386ZM115.632 24.412C115.632 22.878 114.579 22.007 113.461 22.007C112.356 22.007 111.29 22.839 111.29 24.386C111.29 25.933 112.356 26.83 113.461 26.83C114.579 26.83 115.632 25.959 115.632 24.412ZM118.58 24.412C118.58 22.176 120.036 20.72 122.09 20.72C123.845 20.72 124.989 21.591 125.392 23.099H123.793C123.546 22.41 122.974 21.968 122.09 21.968C120.894 21.968 120.101 22.852 120.101 24.412C120.101 25.985 120.894 26.869 122.09 26.869C122.974 26.869 123.52 26.479 123.793 25.738H125.392C124.989 27.142 123.845 28.117 122.09 28.117C120.036 28.117 118.58 26.661 118.58 24.412ZM129.885 21.968C128.884 21.968 128.078 22.644 127.922 23.775H131.887C131.861 22.67 130.99 21.968 129.885 21.968ZM133.239 25.868C132.836 27.116 131.705 28.117 129.95 28.117C127.896 28.117 126.375 26.661 126.375 24.412C126.375 22.163 127.831 20.72 129.95 20.72C131.991 20.72 133.434 22.137 133.434 24.243C133.434 24.49 133.421 24.724 133.382 24.971H127.909C128.013 26.154 128.858 26.869 129.95 26.869C130.86 26.869 131.367 26.427 131.64 25.868H133.239ZM136.374 21.903C136.842 21.253 137.739 20.72 138.87 20.72C140.768 20.72 142.237 22.176 142.237 24.386C142.237 26.596 140.755 28.117 138.87 28.117C137.687 28.117 136.842 27.584 136.374 26.96V28H134.892V18.38H136.374V21.903ZM140.729 24.386C140.729 22.839 139.663 22.007 138.545 22.007C137.44 22.007 136.374 22.878 136.374 24.412C136.374 25.959 137.44 26.83 138.545 26.83C139.663 26.83 140.729 25.933 140.729 24.386ZM150.528 24.412C150.528 26.661 148.864 28.117 146.81 28.117C144.769 28.117 143.222 26.661 143.222 24.412C143.222 22.163 144.834 20.72 146.875 20.72C148.916 20.72 150.528 22.163 150.528 24.412ZM144.73 24.412C144.73 26.037 145.692 26.83 146.81 26.83C147.915 26.83 149.007 26.037 149.007 24.412C149.007 22.787 147.954 22.007 146.849 22.007C145.731 22.007 144.73 22.787 144.73 24.412ZM158.818 24.412C158.818 26.661 157.154 28.117 155.1 28.117C153.059 28.117 151.512 26.661 151.512 24.412C151.512 22.163 153.124 20.72 155.165 20.72C157.206 20.72 158.818 22.163 158.818 24.412ZM153.02 24.412C153.02 26.037 153.982 26.83 155.1 26.83C156.205 26.83 157.297 26.037 157.297 24.412C157.297 22.787 156.244 22.007 155.139 22.007C154.021 22.007 153.02 22.787 153.02 24.412ZM160.283 28V18.38H161.765V23.97L164.365 20.837H166.419L163.117 24.425L166.419 28H164.417L161.765 24.919V28H160.283Z" fill="#195795"/>
<path d="M14.021 12.6409H30.35C30.483 12.6396 30.6149 12.6648 30.7381 12.7151C30.8612 12.7654 30.9731 12.8397 31.0672 12.9338C31.1612 13.0278 31.2356 13.1397 31.2858 13.2628C31.3361 13.386 31.3613 13.5179 31.36 13.6509V29.9909C31.3597 30.2587 31.2532 30.5155 31.0639 30.7048C30.8745 30.8942 30.6178 31.0007 30.35 31.0009H25.668V23.8859H28.055L28.411 21.1209H25.668V19.3539C25.668 18.5539 25.897 17.9999 27.045 17.9999H28.514V15.5209C27.805 15.4495 27.0926 15.4161 26.38 15.4209C25.8941 15.3843 25.406 15.4546 24.9501 15.6269C24.4943 15.7991 24.0817 16.0692 23.7415 16.4181C23.4013 16.767 23.1416 17.1863 22.9809 17.6463C22.8201 18.1064 22.7621 18.5961 22.811 19.0809V21.1209H20.411V23.8859H22.811V30.9999H14.021C13.7523 30.9999 13.4944 30.894 13.3033 30.7051C13.1121 30.5162 13.0032 30.2596 13 29.9909V13.6509C13.0005 13.5175 13.0274 13.3855 13.079 13.2625C13.1306 13.1395 13.206 13.0278 13.3009 12.934C13.3957 12.8402 13.5082 12.766 13.6317 12.7157C13.7553 12.6654 13.8876 12.64 14.021 12.6409Z" fill="#195795"/>
</svg>
