<svg width="149" height="153" viewBox="0 0 149 153" fill="none" xmlns="http://www.w3.org/2000/svg">
<path d="M139 0H10C4.47715 0 0 4.47715 0 10V143C0 148.523 4.47715 153 10 153H139C144.523 153 149 148.523 149 143V10C149 4.47715 144.523 0 139 0Z" fill="#0E305F"/>
<path d="M11 20C11 14.4772 15.4772 10 21 10H128C133.523 10 138 14.4772 138 20V153H11V20Z" fill="white"/>
<rect x="18" y="18" width="33" height="33" rx="2" fill="#414141"/>
<rect x="18" y="57" width="33" height="3" rx="1.5" fill="#D9D9D9"/>
<rect x="26" y="53" width="17" height="3" rx="1.5" fill="#D9D9D9"/>
<rect x="27" y="62" width="15" height="4" rx="2" fill="#414141"/>
<rect x="18" y="73" width="33" height="33" rx="2" fill="#414141"/>
<rect x="18" y="112" width="33" height="3" rx="1.5" fill="#D9D9D9"/>
<rect x="26" y="108" width="17" height="3" rx="1.5" fill="#D9D9D9"/>
<rect x="27" y="117" width="15" height="4" rx="2" fill="#414141"/>
<path d="M18 125C18 123.895 18.8954 123 20 123H49C50.1046 123 51 123.895 51 125V153H18V125Z" fill="#414141"/>
<rect x="58" y="18" width="33" height="33" rx="2" fill="#414141"/>
<rect x="58" y="57" width="33" height="3" rx="1.5" fill="#D9D9D9"/>
<rect x="66" y="53" width="17" height="3" rx="1.5" fill="#D9D9D9"/>
<rect x="67" y="62" width="15" height="4" rx="2" fill="#414141"/>
<rect x="58" y="73" width="33" height="33" rx="2" fill="#414141"/>
<rect x="58" y="112" width="33" height="3" rx="1.5" fill="#D9D9D9"/>
<rect x="66" y="108" width="17" height="3" rx="1.5" fill="#D9D9D9"/>
<rect x="67" y="117" width="15" height="4" rx="2" fill="#414141"/>
<path d="M58 125C58 123.895 58.8954 123 60 123H89C90.1046 123 91 123.895 91 125V153H58V125Z" fill="#414141"/>
<rect x="98" y="18" width="33" height="33" rx="2" fill="#414141"/>
<rect x="98" y="57" width="33" height="3" rx="1.5" fill="#D9D9D9"/>
<rect x="106" y="53" width="17" height="3" rx="1.5" fill="#D9D9D9"/>
<rect x="107" y="62" width="15" height="4" rx="2" fill="#414141"/>
<rect x="98" y="73" width="33" height="33" rx="2" fill="#414141"/>
<rect x="98" y="112" width="33" height="3" rx="1.5" fill="#D9D9D9"/>
<rect x="106" y="108" width="17" height="3" rx="1.5" fill="#D9D9D9"/>
<rect x="107" y="117" width="15" height="4" rx="2" fill="#414141"/>
<path d="M98 125C98 123.895 98.8954 123 100 123H129C130.105 123 131 123.895 131 125V153H98V125Z" fill="#414141"/>
</svg>
