<svg width="149" height="153" viewBox="0 0 149 153" fill="none" xmlns="http://www.w3.org/2000/svg">
<path d="M139 0H10C4.47715 0 0 4.47715 0 10V143C0 148.523 4.47715 153 10 153H139C144.523 153 149 148.523 149 143V10C149 4.47715 144.523 0 139 0Z" fill="#0E305F"/>
<path d="M11 20C11 14.4772 15.4772 10 21 10H128C133.523 10 138 14.4772 138 20V153H11V20Z" fill="white"/>
<rect x="81" y="17" width="50" height="86" rx="2" fill="#414141"/>
<path d="M17 111C17 109.895 17.8954 109 19 109H65C66.1046 109 67 109.895 67 111V153H17V111Z" fill="#414141"/>
<rect x="17" y="17" width="29" height="33" rx="2" fill="#414141"/>
<rect x="17" y="51.782" width="21.1128" height="2.6391" rx="1.31955" fill="#D9D9D9"/>
<rect x="17" y="55.3008" width="7.03759" height="2.6391" rx="1.31955" fill="#D9D9D9"/>
<rect x="17" y="62" width="29" height="33" rx="2" fill="#414141"/>
<rect x="17" y="96.782" width="21.1128" height="2.6391" rx="1.31955" fill="#D9D9D9"/>
<rect x="17" y="100.301" width="7.03759" height="2.6391" rx="1.31955" fill="#D9D9D9"/>
<rect x="70" y="109" width="29" height="33" rx="2" fill="#414141"/>
<rect x="70" y="143.782" width="21.1128" height="2.6391" rx="1.31955" fill="#D9D9D9"/>
<rect x="70" y="147.301" width="7.03759" height="2.6391" rx="1.31955" fill="#D9D9D9"/>
<rect x="49" y="17" width="29" height="33" rx="2" fill="#414141"/>
<rect x="49.1885" y="51.782" width="21.1128" height="2.6391" rx="1.31955" fill="#D9D9D9"/>
<rect x="49.1885" y="55.3008" width="7.03759" height="2.6391" rx="1.31955" fill="#D9D9D9"/>
<rect x="49" y="62" width="29" height="33" rx="2" fill="#414141"/>
<rect x="49.1885" y="96.782" width="21.1128" height="2.6391" rx="1.31955" fill="#D9D9D9"/>
<rect x="49.1885" y="100.301" width="7.03759" height="2.6391" rx="1.31955" fill="#D9D9D9"/>
<rect x="102" y="109" width="29" height="33" rx="2" fill="#414141"/>
<rect x="102.188" y="143.782" width="21.1128" height="2.6391" rx="1.31955" fill="#D9D9D9"/>
<rect x="102.188" y="147.301" width="7.03759" height="2.6391" rx="1.31955" fill="#D9D9D9"/>
</svg>
