<svg width="152" height="39" viewBox="0 0 152 39" fill="none" xmlns="http://www.w3.org/2000/svg">
<path d="M132.939 0H19.0606C8.53372 0 0 8.66097 0 19.3448C0 30.0287 8.53372 38.6897 19.0606 38.6897H132.939C143.466 38.6897 152 30.0287 152 19.3448C152 8.66097 143.466 0 132.939 0Z" fill="white"/>
<path d="M32.078 26V16.242H33.352V26H32.078ZM41.1373 26V21.66C41.1373 20.092 40.2833 19.294 38.9953 19.294C37.6933 19.294 36.7973 20.106 36.7973 21.758V26H35.5233V18.328H36.7973V19.42C37.3013 18.622 38.2253 18.188 39.2613 18.188C41.0393 18.188 42.3973 19.28 42.3973 21.478V26H41.1373ZM44.7164 26V19.378H43.7224V18.328H44.7164V17.782C44.7164 16.074 45.5564 15.304 47.5164 15.304V16.368C46.3684 16.368 45.9904 16.788 45.9904 17.782V18.328H47.6004V19.378H45.9904V26H44.7164ZM49.0858 26V18.328H50.3598V26H49.0858ZM49.7438 17.082C49.2538 17.082 48.8758 16.704 48.8758 16.214C48.8758 15.724 49.2538 15.346 49.7438 15.346C50.2058 15.346 50.5838 15.724 50.5838 16.214C50.5838 16.704 50.2058 17.082 49.7438 17.082ZM58.1451 26V21.66C58.1451 20.092 57.2911 19.294 56.0031 19.294C54.7011 19.294 53.8051 20.106 53.8051 21.758V26H52.5311V18.328H53.8051V19.42C54.3091 18.622 55.2331 18.188 56.2691 18.188C58.0471 18.188 59.4051 19.28 59.4051 21.478V26H58.1451ZM61.4862 26V18.328H62.7602V26H61.4862ZM62.1442 17.082C61.6542 17.082 61.2762 16.704 61.2762 16.214C61.2762 15.724 61.6542 15.346 62.1442 15.346C62.6062 15.346 62.9842 15.724 62.9842 16.214C62.9842 16.704 62.6062 17.082 62.1442 17.082ZM65.2115 23.9V19.378H64.2175V18.328H65.2115V16.396H66.4855V18.328H68.4875V19.378H66.4855V23.9C66.4855 24.656 66.7655 24.922 67.5495 24.922H68.4875V26H67.3395C65.9815 26 65.2115 25.44 65.2115 23.9ZM73.2931 19.28C72.0471 19.28 71.0111 20.106 70.8711 21.604H75.7151C75.7291 20.106 74.6091 19.28 73.2931 19.28ZM76.8771 23.634C76.4851 25.034 75.2531 26.126 73.3491 26.126C71.1651 26.126 69.5551 24.586 69.5551 22.15C69.5551 19.728 71.1091 18.202 73.3491 18.202C75.5751 18.202 77.0311 19.77 77.0311 21.87C77.0311 22.15 77.0171 22.374 76.9891 22.64H70.8571C70.9551 24.194 72.0471 25.048 73.3491 25.048C74.4971 25.048 75.2251 24.46 75.5051 23.634H76.8771ZM88.7872 23.34C88.7872 24.726 87.6532 26.098 85.5392 26.098C83.5792 26.098 82.1932 25.006 82.1652 23.396H83.5232C83.6072 24.208 84.1812 25.02 85.5392 25.02C86.7712 25.02 87.4992 24.32 87.4992 23.396C87.4992 20.764 82.2212 22.444 82.2212 18.818C82.2212 17.208 83.5232 16.116 85.4552 16.116C87.3172 16.116 88.5352 17.138 88.6892 18.622H87.2892C87.2052 17.964 86.5892 17.222 85.3992 17.208C84.3492 17.18 83.5232 17.726 83.5232 18.776C83.5232 21.296 88.7872 19.728 88.7872 23.34ZM90.186 22.15C90.186 19.742 91.74 18.202 93.924 18.202C95.828 18.202 97.074 19.182 97.466 20.792H96.094C95.828 19.868 95.058 19.28 93.924 19.28C92.524 19.28 91.488 20.274 91.488 22.15C91.488 24.054 92.524 25.048 93.924 25.048C95.058 25.048 95.814 24.502 96.094 23.536H97.466C97.074 25.062 95.828 26.126 93.924 26.126C91.74 26.126 90.186 24.586 90.186 22.15ZM100.44 21.828V26H99.1659V18.328H100.44V19.574C100.874 18.72 101.7 18.188 102.918 18.188V19.504H102.582C101.364 19.504 100.44 20.05 100.44 21.828ZM111.669 22.15C111.669 24.586 109.919 26.126 107.735 26.126C105.565 26.126 103.913 24.586 103.913 22.15C103.913 19.728 105.621 18.202 107.791 18.202C109.975 18.202 111.669 19.728 111.669 22.15ZM105.215 22.15C105.215 24.096 106.405 25.006 107.735 25.006C109.065 25.006 110.367 24.096 110.367 22.15C110.367 20.218 109.093 19.308 107.777 19.308C106.433 19.308 105.215 20.218 105.215 22.15ZM113.344 26V15.64H114.618V26H113.344ZM116.789 26V15.64H118.063V26H116.789Z" fill="#001944"/>
</svg>
