<svg width="152" height="39" viewBox="0 0 152 39" fill="none" xmlns="http://www.w3.org/2000/svg">
<path d="M132.939 0H19.0606C8.53372 0 0 8.66097 0 19.3448C0 30.0287 8.53372 38.6897 19.0606 38.6897H132.939C143.466 38.6897 152 30.0287 152 19.3448C152 8.66097 143.466 0 132.939 0Z" fill="#FF9300"/>
<path d="M33.352 16.242V26H32.078V16.242H33.352ZM39.2613 18.188C40.1946 18.188 40.9506 18.4727 41.5293 19.042C42.108 19.602 42.3973 20.414 42.3973 21.478V26H41.1373V21.66C41.1373 20.8947 40.946 20.3113 40.5633 19.91C40.1806 19.4993 39.658 19.294 38.9953 19.294C38.3233 19.294 37.7866 19.504 37.3853 19.924C36.9933 20.344 36.7973 20.9553 36.7973 21.758V26H35.5233V18.328H36.7973V19.42C37.0493 19.028 37.39 18.7247 37.8193 18.51C38.258 18.2953 38.7386 18.188 39.2613 18.188ZM47.6004 19.378H45.9904V26H44.7164V19.378H43.7224V18.328H44.7164V17.782C44.7164 16.9233 44.9357 16.298 45.3744 15.906C45.8224 15.5047 46.5364 15.304 47.5164 15.304V16.368C46.9564 16.368 46.5597 16.48 46.3264 16.704C46.1024 16.9187 45.9904 17.278 45.9904 17.782V18.328H47.6004V19.378ZM49.7438 17.082C49.5011 17.082 49.2958 16.998 49.1278 16.83C48.9598 16.662 48.8758 16.4567 48.8758 16.214C48.8758 15.9713 48.9598 15.766 49.1278 15.598C49.2958 15.43 49.5011 15.346 49.7438 15.346C49.9771 15.346 50.1731 15.43 50.3318 15.598C50.4998 15.766 50.5838 15.9713 50.5838 16.214C50.5838 16.4567 50.4998 16.662 50.3318 16.83C50.1731 16.998 49.9771 17.082 49.7438 17.082ZM50.3598 18.328V26H49.0858V18.328H50.3598ZM56.2691 18.188C57.2025 18.188 57.9585 18.4727 58.5371 19.042C59.1158 19.602 59.4051 20.414 59.4051 21.478V26H58.1451V21.66C58.1451 20.8947 57.9538 20.3113 57.5711 19.91C57.1885 19.4993 56.6658 19.294 56.0031 19.294C55.3311 19.294 54.7945 19.504 54.3931 19.924C54.0011 20.344 53.8051 20.9553 53.8051 21.758V26H52.5311V18.328H53.8051V19.42C54.0571 19.028 54.3978 18.7247 54.8271 18.51C55.2658 18.2953 55.7465 18.188 56.2691 18.188ZM62.1442 17.082C61.9015 17.082 61.6962 16.998 61.5282 16.83C61.3602 16.662 61.2762 16.4567 61.2762 16.214C61.2762 15.9713 61.3602 15.766 61.5282 15.598C61.6962 15.43 61.9015 15.346 62.1442 15.346C62.3775 15.346 62.5735 15.43 62.7322 15.598C62.9002 15.766 62.9842 15.9713 62.9842 16.214C62.9842 16.4567 62.9002 16.662 62.7322 16.83C62.5735 16.998 62.3775 17.082 62.1442 17.082ZM62.7602 18.328V26H61.4862V18.328H62.7602ZM66.4855 19.378V23.9C66.4855 24.2733 66.5648 24.5393 66.7235 24.698C66.8822 24.8473 67.1575 24.922 67.5495 24.922H68.4875V26H67.3395C66.6302 26 66.0982 25.8367 65.7435 25.51C65.3888 25.1833 65.2115 24.6467 65.2115 23.9V19.378H64.2175V18.328H65.2115V16.396H66.4855V18.328H68.4875V19.378H66.4855ZM77.0311 21.87C77.0311 22.1127 77.0171 22.3693 76.9891 22.64H70.8571C70.9038 23.396 71.1605 23.9887 71.6271 24.418C72.1031 24.838 72.6771 25.048 73.3491 25.048C73.8998 25.048 74.3571 24.922 74.7211 24.67C75.0945 24.4087 75.3558 24.0633 75.5051 23.634H76.8771C76.6718 24.3713 76.2611 24.9733 75.6451 25.44C75.0291 25.8973 74.2638 26.126 73.3491 26.126C72.6211 26.126 71.9678 25.9627 71.3891 25.636C70.8198 25.3093 70.3718 24.8473 70.0451 24.25C69.7185 23.6433 69.5551 22.9433 69.5551 22.15C69.5551 21.3567 69.7138 20.6613 70.0311 20.064C70.3485 19.4667 70.7918 19.0093 71.3611 18.692C71.9398 18.3653 72.6025 18.202 73.3491 18.202C74.0771 18.202 74.7211 18.3607 75.2811 18.678C75.8411 18.9953 76.2705 19.434 76.5691 19.994C76.8771 20.5447 77.0311 21.17 77.0311 21.87ZM75.7151 21.604C75.7151 21.1187 75.6078 20.7033 75.3931 20.358C75.1785 20.0033 74.8845 19.7373 74.5111 19.56C74.1471 19.3733 73.7411 19.28 73.2931 19.28C72.6491 19.28 72.0985 19.4853 71.6411 19.896C71.1931 20.3067 70.9365 20.876 70.8711 21.604H75.7151ZM85.5392 26.098C84.8952 26.098 84.3165 25.986 83.8032 25.762C83.2992 25.5287 82.9025 25.2113 82.6132 24.81C82.3239 24.3993 82.1745 23.928 82.1652 23.396H83.5232C83.5699 23.8533 83.7565 24.2407 84.0832 24.558C84.4192 24.866 84.9045 25.02 85.5392 25.02C86.1459 25.02 86.6219 24.8707 86.9672 24.572C87.3219 24.264 87.4992 23.872 87.4992 23.396C87.4992 23.0227 87.3965 22.7193 87.1912 22.486C86.9859 22.2527 86.7292 22.0753 86.4212 21.954C86.1132 21.8327 85.6979 21.702 85.1752 21.562C84.5312 21.394 84.0132 21.226 83.6212 21.058C83.2385 20.89 82.9072 20.6287 82.6272 20.274C82.3565 19.91 82.2212 19.4247 82.2212 18.818C82.2212 18.286 82.3565 17.8147 82.6272 17.404C82.8979 16.9933 83.2759 16.676 83.7612 16.452C84.2559 16.228 84.8205 16.116 85.4552 16.116C86.3699 16.116 87.1165 16.3447 87.6952 16.802C88.2832 17.2593 88.6145 17.866 88.6892 18.622H87.2892C87.2425 18.2487 87.0465 17.922 86.7012 17.642C86.3559 17.3527 85.8985 17.208 85.3292 17.208C84.7972 17.208 84.3632 17.348 84.0272 17.628C83.6912 17.8987 83.5232 18.2813 83.5232 18.776C83.5232 19.1307 83.6212 19.42 83.8172 19.644C84.0225 19.868 84.2699 20.0407 84.5592 20.162C84.8579 20.274 85.2732 20.4047 85.8052 20.554C86.4492 20.7313 86.9672 20.9087 87.3592 21.086C87.7512 21.254 88.0872 21.52 88.3672 21.884C88.6472 22.2387 88.7872 22.724 88.7872 23.34C88.7872 23.816 88.6612 24.264 88.4092 24.684C88.1572 25.104 87.7839 25.4447 87.2892 25.706C86.7945 25.9673 86.2112 26.098 85.5392 26.098ZM90.186 22.15C90.186 21.3567 90.3447 20.666 90.662 20.078C90.9793 19.4807 91.418 19.0187 91.978 18.692C92.5473 18.3653 93.196 18.202 93.924 18.202C94.8667 18.202 95.6413 18.4307 96.248 18.888C96.864 19.3453 97.27 19.98 97.466 20.792H96.094C95.9633 20.3253 95.7067 19.9567 95.324 19.686C94.9507 19.4153 94.484 19.28 93.924 19.28C93.196 19.28 92.608 19.532 92.16 20.036C91.712 20.5307 91.488 21.2353 91.488 22.15C91.488 23.074 91.712 23.788 92.16 24.292C92.608 24.796 93.196 25.048 93.924 25.048C94.484 25.048 94.9507 24.9173 95.324 24.656C95.6973 24.3947 95.954 24.0213 96.094 23.536H97.466C97.2607 24.32 96.85 24.95 96.234 25.426C95.618 25.8927 94.848 26.126 93.924 26.126C93.196 26.126 92.5473 25.9627 91.978 25.636C91.418 25.3093 90.9793 24.8473 90.662 24.25C90.3447 23.6527 90.186 22.9527 90.186 22.15ZM100.44 19.574C100.664 19.1353 100.981 18.7947 101.392 18.552C101.812 18.3093 102.321 18.188 102.918 18.188V19.504H102.582C101.154 19.504 100.44 20.2787 100.44 21.828V26H99.1659V18.328H100.44V19.574ZM107.735 26.126C107.016 26.126 106.363 25.9627 105.775 25.636C105.196 25.3093 104.739 24.8473 104.403 24.25C104.076 23.6433 103.913 22.9433 103.913 22.15C103.913 21.366 104.081 20.6753 104.417 20.078C104.762 19.4713 105.229 19.0093 105.817 18.692C106.405 18.3653 107.063 18.202 107.791 18.202C108.519 18.202 109.177 18.3653 109.765 18.692C110.353 19.0093 110.815 19.4667 111.151 20.064C111.496 20.6613 111.669 21.3567 111.669 22.15C111.669 22.9433 111.491 23.6433 111.137 24.25C110.791 24.8473 110.32 25.3093 109.723 25.636C109.125 25.9627 108.463 26.126 107.735 26.126ZM107.735 25.006C108.192 25.006 108.621 24.8987 109.023 24.684C109.424 24.4693 109.746 24.1473 109.989 23.718C110.241 23.2887 110.367 22.766 110.367 22.15C110.367 21.534 110.245 21.0113 110.003 20.582C109.76 20.1527 109.443 19.8353 109.051 19.63C108.659 19.4153 108.234 19.308 107.777 19.308C107.31 19.308 106.881 19.4153 106.489 19.63C106.106 19.8353 105.798 20.1527 105.565 20.582C105.331 21.0113 105.215 21.534 105.215 22.15C105.215 22.7753 105.327 23.3027 105.551 23.732C105.784 24.1613 106.092 24.4833 106.475 24.698C106.857 24.9033 107.277 25.006 107.735 25.006ZM114.618 15.64V26H113.344V15.64H114.618ZM118.063 15.64V26H116.789V15.64H118.063Z" fill="#F2DDDD"/>
</svg>
