<svg width="154" height="39" viewBox="0 0 154 39" fill="none" xmlns="http://www.w3.org/2000/svg">
<path d="M134.939 0H19.0606C8.53372 0 0 8.66097 0 19.3448C0 30.0287 8.53372 38.6897 19.0606 38.6897H134.939C145.466 38.6897 154 30.0287 154 19.3448C154 8.66097 145.466 0 134.939 0Z" fill="white"/>
<path d="M44.172 25.098C43.528 25.098 42.9493 24.986 42.436 24.762C41.932 24.5287 41.5353 24.2113 41.246 23.81C40.9567 23.3993 40.8073 22.928 40.798 22.396H42.156C42.2027 22.8533 42.3893 23.2407 42.716 23.558C43.052 23.866 43.5373 24.02 44.172 24.02C44.7787 24.02 45.2547 23.8707 45.6 23.572C45.9547 23.264 46.132 22.872 46.132 22.396C46.132 22.0227 46.0293 21.7193 45.824 21.486C45.6187 21.2527 45.362 21.0753 45.054 20.954C44.746 20.8327 44.3307 20.702 43.808 20.562C43.164 20.394 42.646 20.226 42.254 20.058C41.8713 19.89 41.54 19.6287 41.26 19.274C40.9893 18.91 40.854 18.4247 40.854 17.818C40.854 17.286 40.9893 16.8147 41.26 16.404C41.5307 15.9933 41.9087 15.676 42.394 15.452C42.8887 15.228 43.4533 15.116 44.088 15.116C45.0027 15.116 45.7493 15.3447 46.328 15.802C46.916 16.2593 47.2473 16.866 47.322 17.622H45.922C45.8753 17.2487 45.6793 16.922 45.334 16.642C44.9887 16.3527 44.5313 16.208 43.962 16.208C43.43 16.208 42.996 16.348 42.66 16.628C42.324 16.8987 42.156 17.2813 42.156 17.776C42.156 18.1307 42.254 18.42 42.45 18.644C42.6553 18.868 42.9027 19.0407 43.192 19.162C43.4907 19.274 43.906 19.4047 44.438 19.554C45.082 19.7313 45.6 19.9087 45.992 20.086C46.384 20.254 46.72 20.52 47 20.884C47.28 21.2387 47.42 21.724 47.42 22.34C47.42 22.816 47.294 23.264 47.042 23.684C46.79 24.104 46.4167 24.4447 45.922 24.706C45.4273 24.9673 44.844 25.098 44.172 25.098ZM50.8488 18.378V22.9C50.8488 23.2733 50.9281 23.5393 51.0868 23.698C51.2455 23.8473 51.5208 23.922 51.9128 23.922H52.8508V25H51.7028C50.9935 25 50.4615 24.8367 50.1068 24.51C49.7521 24.1833 49.5748 23.6467 49.5748 22.9V18.378H48.5808V17.328H49.5748V15.396H50.8488V17.328H52.8508V18.378H50.8488ZM53.9184 21.136C53.9184 20.352 54.0771 19.666 54.3944 19.078C54.7117 18.4807 55.1457 18.0187 55.6964 17.692C56.2564 17.3653 56.8771 17.202 57.5584 17.202C58.2304 17.202 58.8137 17.3467 59.3084 17.636C59.8031 17.9253 60.1717 18.2893 60.4144 18.728V17.328H61.7024V25H60.4144V23.572C60.1624 24.02 59.7844 24.3933 59.2804 24.692C58.7857 24.9813 58.2071 25.126 57.5444 25.126C56.8631 25.126 56.2471 24.958 55.6964 24.622C55.1457 24.286 54.7117 23.8147 54.3944 23.208C54.0771 22.6013 53.9184 21.9107 53.9184 21.136ZM60.4144 21.15C60.4144 20.5713 60.2977 20.0673 60.0644 19.638C59.8311 19.2087 59.5137 18.882 59.1124 18.658C58.7204 18.4247 58.2864 18.308 57.8104 18.308C57.3344 18.308 56.9004 18.42 56.5084 18.644C56.1164 18.868 55.8037 19.1947 55.5704 19.624C55.3371 20.0533 55.2204 20.5573 55.2204 21.136C55.2204 21.724 55.3371 22.2373 55.5704 22.676C55.8037 23.1053 56.1164 23.4367 56.5084 23.67C56.9004 23.894 57.3344 24.006 57.8104 24.006C58.2864 24.006 58.7204 23.894 59.1124 23.67C59.5137 23.4367 59.8311 23.1053 60.0644 22.676C60.2977 22.2373 60.4144 21.7287 60.4144 21.15ZM67.5933 17.188C68.5267 17.188 69.2827 17.4727 69.8613 18.042C70.44 18.602 70.7293 19.414 70.7293 20.478V25H69.4693V20.66C69.4693 19.8947 69.278 19.3113 68.8953 18.91C68.5127 18.4993 67.99 18.294 67.3273 18.294C66.6553 18.294 66.1187 18.504 65.7173 18.924C65.3253 19.344 65.1293 19.9553 65.1293 20.758V25H63.8553V17.328H65.1293V18.42C65.3813 18.028 65.722 17.7247 66.1513 17.51C66.59 17.2953 67.0707 17.188 67.5933 17.188ZM72.3344 21.136C72.3344 20.352 72.4931 19.666 72.8104 19.078C73.1278 18.4807 73.5618 18.0187 74.1124 17.692C74.6724 17.3653 75.2978 17.202 75.9884 17.202C76.5858 17.202 77.1411 17.342 77.6544 17.622C78.1678 17.8927 78.5598 18.252 78.8304 18.7V14.64H80.1184V25H78.8304V23.558C78.5784 24.0153 78.2051 24.3933 77.7104 24.692C77.2158 24.9813 76.6371 25.126 75.9744 25.126C75.2931 25.126 74.6724 24.958 74.1124 24.622C73.5618 24.286 73.1278 23.8147 72.8104 23.208C72.4931 22.6013 72.3344 21.9107 72.3344 21.136ZM78.8304 21.15C78.8304 20.5713 78.7138 20.0673 78.4804 19.638C78.2471 19.2087 77.9298 18.882 77.5284 18.658C77.1364 18.4247 76.7024 18.308 76.2264 18.308C75.7504 18.308 75.3164 18.42 74.9244 18.644C74.5324 18.868 74.2198 19.1947 73.9864 19.624C73.7531 20.0533 73.6364 20.5573 73.6364 21.136C73.6364 21.724 73.7531 22.2373 73.9864 22.676C74.2198 23.1053 74.5324 23.4367 74.9244 23.67C75.3164 23.894 75.7504 24.006 76.2264 24.006C76.7024 24.006 77.1364 23.894 77.5284 23.67C77.9298 23.4367 78.2471 23.1053 78.4804 22.676C78.7138 22.2373 78.8304 21.7287 78.8304 21.15ZM81.7954 21.136C81.7954 20.352 81.954 19.666 82.2714 19.078C82.5887 18.4807 83.0227 18.0187 83.5734 17.692C84.1334 17.3653 84.754 17.202 85.4354 17.202C86.1074 17.202 86.6907 17.3467 87.1854 17.636C87.68 17.9253 88.0487 18.2893 88.2914 18.728V17.328H89.5794V25H88.2914V23.572C88.0394 24.02 87.6614 24.3933 87.1574 24.692C86.6627 24.9813 86.084 25.126 85.4214 25.126C84.74 25.126 84.124 24.958 83.5734 24.622C83.0227 24.286 82.5887 23.8147 82.2714 23.208C81.954 22.6013 81.7954 21.9107 81.7954 21.136ZM88.2914 21.15C88.2914 20.5713 88.1747 20.0673 87.9414 19.638C87.708 19.2087 87.3907 18.882 86.9894 18.658C86.5974 18.4247 86.1634 18.308 85.6874 18.308C85.2114 18.308 84.7774 18.42 84.3854 18.644C83.9934 18.868 83.6807 19.1947 83.4474 19.624C83.214 20.0533 83.0974 20.5573 83.0974 21.136C83.0974 21.724 83.214 22.2373 83.4474 22.676C83.6807 23.1053 83.9934 23.4367 84.3854 23.67C84.7774 23.894 85.2114 24.006 85.6874 24.006C86.1634 24.006 86.5974 23.894 86.9894 23.67C87.3907 23.4367 87.708 23.1053 87.9414 22.676C88.1747 22.2373 88.2914 21.7287 88.2914 21.15ZM93.0063 18.574C93.2303 18.1353 93.5476 17.7947 93.9583 17.552C94.3783 17.3093 94.887 17.188 95.4843 17.188V18.504H95.1483C93.7203 18.504 93.0063 19.2787 93.0063 20.828V25H91.7323V17.328H93.0063V18.574ZM96.479 21.136C96.479 20.352 96.6376 19.666 96.955 19.078C97.2723 18.4807 97.7063 18.0187 98.257 17.692C98.817 17.3653 99.4423 17.202 100.133 17.202C100.73 17.202 101.286 17.342 101.799 17.622C102.312 17.8927 102.704 18.252 102.975 18.7V14.64H104.263V25H102.975V23.558C102.723 24.0153 102.35 24.3933 101.855 24.692C101.36 24.9813 100.782 25.126 100.119 25.126C99.4376 25.126 98.817 24.958 98.257 24.622C97.7063 24.286 97.2723 23.8147 96.955 23.208C96.6376 22.6013 96.479 21.9107 96.479 21.136ZM102.975 21.15C102.975 20.5713 102.858 20.0673 102.625 19.638C102.392 19.2087 102.074 18.882 101.673 18.658C101.281 18.4247 100.847 18.308 100.371 18.308C99.895 18.308 99.461 18.42 99.069 18.644C98.677 18.868 98.3643 19.1947 98.131 19.624C97.8976 20.0533 97.781 20.5573 97.781 21.136C97.781 21.724 97.8976 22.2373 98.131 22.676C98.3643 23.1053 98.677 23.4367 99.069 23.67C99.461 23.894 99.895 24.006 100.371 24.006C100.847 24.006 101.281 23.894 101.673 23.67C102.074 23.4367 102.392 23.1053 102.625 22.676C102.858 22.2373 102.975 21.7287 102.975 21.15Z" fill="#001944"/>
</svg>
