<svg width="154" height="39" viewBox="0 0 154 39" fill="none" xmlns="http://www.w3.org/2000/svg">
<path d="M134.939 0H19.0606C8.53372 0 0 8.66097 0 19.3448C0 30.0287 8.53372 38.6897 19.0606 38.6897H134.939C145.466 38.6897 154 30.0287 154 19.3448C154 8.66097 145.466 0 134.939 0Z" fill="#FF9300"/>
<path d="M47.42 22.34C47.42 23.726 46.286 25.098 44.172 25.098C42.212 25.098 40.826 24.006 40.798 22.396H42.156C42.24 23.208 42.814 24.02 44.172 24.02C45.404 24.02 46.132 23.32 46.132 22.396C46.132 19.764 40.854 21.444 40.854 17.818C40.854 16.208 42.156 15.116 44.088 15.116C45.95 15.116 47.168 16.138 47.322 17.622H45.922C45.838 16.964 45.222 16.222 44.032 16.208C42.982 16.18 42.156 16.726 42.156 17.776C42.156 20.296 47.42 18.728 47.42 22.34ZM49.5748 22.9V18.378H48.5808V17.328H49.5748V15.396H50.8488V17.328H52.8508V18.378H50.8488V22.9C50.8488 23.656 51.1288 23.922 51.9128 23.922H52.8508V25H51.7028C50.3448 25 49.5748 24.44 49.5748 22.9ZM53.9184 21.136C53.9184 18.742 55.5004 17.202 57.5584 17.202C58.9864 17.202 59.9664 17.93 60.4144 18.728V17.328H61.7024V25H60.4144V23.572C59.9524 24.398 58.9584 25.126 57.5444 25.126C55.5004 25.126 53.9184 23.516 53.9184 21.136ZM60.4144 21.15C60.4144 19.372 59.2104 18.308 57.8104 18.308C56.4104 18.308 55.2204 19.33 55.2204 21.136C55.2204 22.942 56.4104 24.006 57.8104 24.006C59.2104 24.006 60.4144 22.956 60.4144 21.15ZM69.4693 25V20.66C69.4693 19.092 68.6153 18.294 67.3273 18.294C66.0253 18.294 65.1293 19.106 65.1293 20.758V25H63.8553V17.328H65.1293V18.42C65.6333 17.622 66.5573 17.188 67.5933 17.188C69.3713 17.188 70.7293 18.28 70.7293 20.478V25H69.4693ZM72.3344 21.136C72.3344 18.742 73.9164 17.202 75.9884 17.202C77.1924 17.202 78.2984 17.818 78.8304 18.7V14.64H80.1184V25H78.8304V23.558C78.3684 24.412 77.3744 25.126 75.9744 25.126C73.9164 25.126 72.3344 23.516 72.3344 21.136ZM78.8304 21.15C78.8304 19.372 77.6264 18.308 76.2264 18.308C74.8264 18.308 73.6364 19.33 73.6364 21.136C73.6364 22.942 74.8264 24.006 76.2264 24.006C77.6264 24.006 78.8304 22.956 78.8304 21.15ZM81.7954 21.136C81.7954 18.742 83.3774 17.202 85.4354 17.202C86.8634 17.202 87.8434 17.93 88.2914 18.728V17.328H89.5794V25H88.2914V23.572C87.8294 24.398 86.8354 25.126 85.4214 25.126C83.3774 25.126 81.7954 23.516 81.7954 21.136ZM88.2914 21.15C88.2914 19.372 87.0874 18.308 85.6874 18.308C84.2874 18.308 83.0974 19.33 83.0974 21.136C83.0974 22.942 84.2874 24.006 85.6874 24.006C87.0874 24.006 88.2914 22.956 88.2914 21.15ZM93.0063 20.828V25H91.7323V17.328H93.0063V18.574C93.4403 17.72 94.2663 17.188 95.4843 17.188V18.504H95.1483C93.9303 18.504 93.0063 19.05 93.0063 20.828ZM96.479 21.136C96.479 18.742 98.061 17.202 100.133 17.202C101.337 17.202 102.443 17.818 102.975 18.7V14.64H104.263V25H102.975V23.558C102.513 24.412 101.519 25.126 100.119 25.126C98.061 25.126 96.479 23.516 96.479 21.136ZM102.975 21.15C102.975 19.372 101.771 18.308 100.371 18.308C98.971 18.308 97.781 19.33 97.781 21.136C97.781 22.942 98.971 24.006 100.371 24.006C101.771 24.006 102.975 22.956 102.975 21.15Z" fill="#F2DDDD"/>
</svg>
