<svg width="149" height="153" viewBox="0 0 149 153" fill="none" xmlns="http://www.w3.org/2000/svg">
<path d="M139 0H10C4.47715 0 0 4.47715 0 10V143C0 148.523 4.47715 153 10 153H139C144.523 153 149 148.523 149 143V10C149 4.47715 144.523 0 139 0Z" fill="#0E305F"/>
<path d="M11 20C11 14.4772 15.4772 10 21 10H128C133.523 10 138 14.4772 138 20V153H11V20Z" fill="white"/>
<rect x="19" y="21" width="111.45" height="82.0087" rx="2" fill="#414141"/>
<rect x="19" y="104.744" width="26.1691" height="19.2563" rx="2" fill="#D9D9D9"/>
<rect x="47.4277" y="104.744" width="26.1691" height="19.2563" rx="2" fill="#D9D9D9"/>
<rect x="75.854" y="104.744" width="26.1691" height="19.2563" rx="2" fill="#D9D9D9"/>
<rect x="104.281" y="104.744" width="26.1691" height="19.2563" rx="2" fill="#D9D9D9"/>
</svg>
