<svg width="149" height="153" viewBox="0 0 149 153" fill="none" xmlns="http://www.w3.org/2000/svg">
<path d="M10 0H139C144.523 0 149 4.47715 149 10V143C149 148.523 144.523 153 139 153H10C4.47716 153 0 148.523 0 143V10C0 4.47715 4.47716 0 10 0Z" fill="#0E305F"/>
<path d="M138 20C138 14.4772 133.523 10 128 10H21C15.4772 10 11 14.4772 11 20V153H138V20Z" fill="white"/>
<rect width="90.5726" height="89.0087" rx="2" transform="matrix(-1 0 0 1 109.207 36)" fill="#414141"/>
<rect width="20.6218" height="20.1017" rx="2" transform="matrix(-1 0 0 1 132 36)" fill="#D9D9D9"/>
<rect width="20.6218" height="20.1017" rx="2" transform="matrix(-1 0 0 1 132 58.9658)" fill="#D9D9D9"/>
<rect width="20.6218" height="20.1017" rx="2" transform="matrix(-1 0 0 1 132 81.9316)" fill="#D9D9D9"/>
<rect width="20.6218" height="20.1017" rx="2" transform="matrix(-1 0 0 1 132 104.898)" fill="#D9D9D9"/>
</svg>
