<svg width="149" height="153" viewBox="0 0 149 153" fill="none" xmlns="http://www.w3.org/2000/svg">
<path d="M139 0H10C4.47715 0 0 4.47715 0 10V143C0 148.523 4.47715 153 10 153H139C144.523 153 149 148.523 149 143V10C149 4.47715 144.523 0 139 0Z" fill="#0E305F"/>
<path d="M11 20C11 14.4772 15.4772 10 21 10H128C133.523 10 138 14.4772 138 20V153H11V20Z" fill="white"/>
<rect x="79" y="25" width="51" height="8" rx="4" fill="#D9D9D9"/>
<rect x="79" y="59" width="51" height="8" rx="4" fill="#8D8D8D"/>
<rect x="79" y="49" width="51" height="2" rx="1" fill="#D9D9D9"/>
<rect x="79" y="52" width="51" height="2" rx="1" fill="#D9D9D9"/>
<rect x="79" y="55" width="51" height="2" rx="1" fill="#D9D9D9"/>
<rect x="79" y="36" width="16" height="4" rx="2" fill="#D9D9D9"/>
<rect x="79" y="70" width="10" height="2" rx="1" fill="#D9D9D9"/>
<rect x="110" y="70" width="9" height="2" rx="1" fill="#D9D9D9"/>
<rect x="90" y="70" width="9" height="2" rx="1" fill="#D9D9D9"/>
<rect x="120" y="70" width="10" height="2" rx="1" fill="#D9D9D9"/>
<rect x="100" y="70" width="9" height="2" rx="1" fill="#D9D9D9"/>
<rect x="79" y="42" width="16" height="4" rx="2" fill="#D9D9D9"/>
<rect x="19" y="23" width="53" height="38.9993" rx="2" fill="#414141"/>
<rect x="19" y="65" width="25.1967" height="22.5902" rx="2" fill="#414141"/>
<rect x="46.8037" y="65" width="25.1967" height="22.5902" rx="2" fill="#414141"/>
<rect x="19" y="91" width="53" height="56" rx="2" fill="#414141"/>
</svg>
