<svg width="149" height="153" viewBox="0 0 149 153" fill="none" xmlns="http://www.w3.org/2000/svg">
<path d="M139 0H10C4.47715 0 0 4.47715 0 10V143C0 148.523 4.47715 153 10 153H139C144.523 153 149 148.523 149 143V10C149 4.47715 144.523 0 139 0Z" fill="#FF9600"/>
<path d="M138 20C138 14.4772 133.523 10 128 10H21C15.4772 10 11 14.4772 11 20V153H138V20Z" fill="white"/>
<rect x="20.0269" y="83.0271" width="52.3784" height="2.05405" rx="1.02703" fill="#D9D9D9"/>
<rect x="20.0269" y="92.2703" width="52.3784" height="2.05405" rx="1.02703" fill="#D9D9D9"/>
<rect x="20.0269" y="101.514" width="52.3784" height="2.05405" rx="1.02703" fill="#D9D9D9"/>
<rect x="20.0269" y="86.1082" width="52.3784" height="2.05405" rx="1.02703" fill="#D9D9D9"/>
<rect x="20.0269" y="95.3513" width="52.3784" height="2.05405" rx="1.02703" fill="#D9D9D9"/>
<rect x="20.0269" y="104.595" width="52.3784" height="2.05405" rx="1.02703" fill="#D9D9D9"/>
<rect x="20.0269" y="89.1892" width="52.3784" height="2.05405" rx="1.02703" fill="#D9D9D9"/>
<rect x="20.0269" y="98.4326" width="52.3784" height="2.05405" rx="1.02703" fill="#D9D9D9"/>
<rect x="20.0269" y="107.676" width="52.3784" height="2.05405" rx="1.02703" fill="#D9D9D9"/>
<rect width="52.3784" height="2.05405" rx="1.02703" transform="matrix(-1 0 0 1 131.973 113.838)" fill="#D9D9D9"/>
<rect width="52.3784" height="2.05405" rx="1.02703" transform="matrix(-1 0 0 1 131.973 123.081)" fill="#D9D9D9"/>
<rect width="52.3784" height="2.05405" rx="1.02703" transform="matrix(-1 0 0 1 131.973 132.324)" fill="#D9D9D9"/>
<rect width="52.3784" height="2.05405" rx="1.02703" transform="matrix(-1 0 0 1 131.973 116.919)" fill="#D9D9D9"/>
<rect width="52.3784" height="2.05405" rx="1.02703" transform="matrix(-1 0 0 1 131.973 126.162)" fill="#D9D9D9"/>
<rect width="52.3784" height="2.05405" rx="1.02703" transform="matrix(-1 0 0 1 131.973 135.406)" fill="#D9D9D9"/>
<rect width="52.3784" height="2.05405" rx="1.02703" transform="matrix(-1 0 0 1 131.973 120)" fill="#D9D9D9"/>
<rect width="52.3784" height="2.05405" rx="1.02703" transform="matrix(-1 0 0 1 131.973 129.243)" fill="#D9D9D9"/>
<rect width="52.3784" height="2.05405" rx="1.02703" transform="matrix(-1 0 0 1 131.973 138.487)" fill="#D9D9D9"/>
<rect x="78.5674" y="82" width="54.4324" height="27.7297" rx="2" fill="#D9D9D9"/>
<rect width="54.4324" height="27.7297" rx="2" transform="matrix(-1 0 0 1 73.4326 112.811)" fill="#D9D9D9"/>
<rect width="31" height="8" rx="4" transform="matrix(-1 0 0 1 50 25)" fill="#D9D9D9"/>
<rect width="31" height="8" rx="4" transform="matrix(-1 0 0 1 50 59)" fill="#8D8D8D"/>
<rect width="31" height="2" rx="1" transform="matrix(-1 0 0 1 50 49)" fill="#D9D9D9"/>
<rect width="31" height="2" rx="1" transform="matrix(-1 0 0 1 50 52)" fill="#D9D9D9"/>
<rect width="31" height="2" rx="1" transform="matrix(-1 0 0 1 50 55)" fill="#D9D9D9"/>
<rect width="30.7925" height="1.67857" rx="0.839286" transform="matrix(-1 0 0 1 132.396 25)" fill="#D9D9D9"/>
<rect width="30.7925" height="1.67857" rx="0.839286" transform="matrix(-1 0 0 1 132.396 32.5535)" fill="#D9D9D9"/>
<rect width="30.7925" height="1.67857" rx="0.839286" transform="matrix(-1 0 0 1 132.396 40.1072)" fill="#D9D9D9"/>
<rect width="30.7925" height="1.67857" rx="0.839286" transform="matrix(-1 0 0 1 132.396 27.5178)" fill="#D9D9D9"/>
<rect width="30.7925" height="1.67857" rx="0.839286" transform="matrix(-1 0 0 1 132.396 35.0715)" fill="#D9D9D9"/>
<rect width="30.7925" height="1.67857" rx="0.839286" transform="matrix(-1 0 0 1 132.396 42.625)" fill="#D9D9D9"/>
<rect width="30.7925" height="1.67857" rx="0.839286" transform="matrix(-1 0 0 1 132.396 30.0356)" fill="#D9D9D9"/>
<rect width="30.7925" height="1.67857" rx="0.839286" transform="matrix(-1 0 0 1 132.396 37.5894)" fill="#D9D9D9"/>
<rect width="30.7925" height="1.67857" rx="0.839286" transform="matrix(-1 0 0 1 132.396 45.1428)" fill="#D9D9D9"/>
<rect width="10" height="4" rx="2" transform="matrix(-1 0 0 1 29 36)" fill="#D9D9D9"/>
<rect width="6" height="2" rx="1" transform="matrix(-1 0 0 1 50 70)" fill="#D9D9D9"/>
<rect width="5" height="2" rx="1" transform="matrix(-1 0 0 1 31 70)" fill="#D9D9D9"/>
<rect width="5" height="2" rx="1" transform="matrix(-1 0 0 1 43 70)" fill="#D9D9D9"/>
<rect width="6" height="2" rx="1" transform="matrix(-1 0 0 1 25 70)" fill="#D9D9D9"/>
<rect width="5" height="2" rx="1" transform="matrix(-1 0 0 1 37 70)" fill="#D9D9D9"/>
<rect width="10" height="4" rx="2" transform="matrix(-1 0 0 1 29 42)" fill="#D9D9D9"/>
<rect width="39.0001" height="37.4069" rx="2" transform="matrix(-1 0 0 1 95 25)" fill="#414141"/>
<rect x="101" y="49.3394" width="32" height="22.6607" rx="2" fill="#D9D9D9"/>
<rect width="9.1575" height="8.78346" rx="2" transform="matrix(-1 0 0 1 95 63.1985)" fill="#D9D9D9"/>
<rect width="9.1575" height="8.78346" rx="2" transform="matrix(-1 0 0 1 85.0522 63.1985)" fill="#D9D9D9"/>
<rect width="9.1575" height="8.78346" rx="2" transform="matrix(-1 0 0 1 75.1045 63.1985)" fill="#D9D9D9"/>
<rect width="9.1575" height="8.78346" rx="2" transform="matrix(-1 0 0 1 65.1572 63.1985)" fill="#D9D9D9"/>
</svg>
