<svg width="149" height="153" viewBox="0 0 149 153" fill="none" xmlns="http://www.w3.org/2000/svg">
<path d="M139 0H10C4.47715 0 0 4.47715 0 10V143C0 148.523 4.47715 153 10 153H139C144.523 153 149 148.523 149 143V10C149 4.47715 144.523 0 139 0Z" fill="#FF9600"/>
<path d="M138 20C138 14.4772 133.523 10 128 10H21C15.4772 10 11 14.4772 11 20V153H138V20Z" fill="white"/>
<rect width="51" height="8" rx="4" transform="matrix(-1 0 0 1 70 25)" fill="#D9D9D9"/>
<rect width="51" height="8" rx="4" transform="matrix(-1 0 0 1 70 59)" fill="#8D8D8D"/>
<rect width="51" height="2" rx="1" transform="matrix(-1 0 0 1 70 49)" fill="#D9D9D9"/>
<rect width="51" height="2" rx="1" transform="matrix(-1 0 0 1 70 52)" fill="#D9D9D9"/>
<rect width="51" height="2" rx="1" transform="matrix(-1 0 0 1 70 55)" fill="#D9D9D9"/>
<rect width="51" height="2" rx="1" transform="matrix(-1 0 0 1 129 81)" fill="#D9D9D9"/>
<rect width="51" height="2" rx="1" transform="matrix(-1 0 0 1 129 90)" fill="#D9D9D9"/>
<rect width="51" height="2" rx="1" transform="matrix(-1 0 0 1 129 99)" fill="#D9D9D9"/>
<rect width="51" height="2" rx="1" transform="matrix(-1 0 0 1 129 84)" fill="#D9D9D9"/>
<rect width="51" height="2" rx="1" transform="matrix(-1 0 0 1 129 93)" fill="#D9D9D9"/>
<rect width="51" height="2" rx="1" transform="matrix(-1 0 0 1 129 102)" fill="#D9D9D9"/>
<rect width="51" height="2" rx="1" transform="matrix(-1 0 0 1 129 87)" fill="#D9D9D9"/>
<rect width="51" height="2" rx="1" transform="matrix(-1 0 0 1 129 96)" fill="#D9D9D9"/>
<rect width="51" height="2" rx="1" transform="matrix(-1 0 0 1 129 105)" fill="#D9D9D9"/>
<rect x="20" y="111" width="51" height="2" rx="1" fill="#D9D9D9"/>
<rect x="20" y="120" width="51" height="2" rx="1" fill="#D9D9D9"/>
<rect x="20" y="129" width="51" height="2" rx="1" fill="#D9D9D9"/>
<rect x="20" y="114" width="51" height="2" rx="1" fill="#D9D9D9"/>
<rect x="20" y="123" width="51" height="2" rx="1" fill="#D9D9D9"/>
<rect x="20" y="132" width="51" height="2" rx="1" fill="#D9D9D9"/>
<rect x="20" y="117" width="51" height="2" rx="1" fill="#D9D9D9"/>
<rect x="20" y="126" width="51" height="2" rx="1" fill="#D9D9D9"/>
<rect x="20" y="135" width="51" height="2" rx="1" fill="#D9D9D9"/>
<rect width="16" height="4" rx="2" transform="matrix(-1 0 0 1 35 36)" fill="#D9D9D9"/>
<rect width="10" height="2" rx="1" transform="matrix(-1 0 0 1 70 70)" fill="#D9D9D9"/>
<rect width="9" height="2" rx="1" transform="matrix(-1 0 0 1 39 70)" fill="#D9D9D9"/>
<rect width="9" height="2" rx="1" transform="matrix(-1 0 0 1 59 70)" fill="#D9D9D9"/>
<rect width="10" height="2" rx="1" transform="matrix(-1 0 0 1 29 70)" fill="#D9D9D9"/>
<rect width="9" height="2" rx="1" transform="matrix(-1 0 0 1 49 70)" fill="#D9D9D9"/>
<rect width="16" height="4" rx="2" transform="matrix(-1 0 0 1 35 42)" fill="#D9D9D9"/>
<rect width="53" height="38.9993" rx="2" transform="matrix(-1 0 0 1 130 23)" fill="#414141"/>
<rect width="53" height="27" rx="2" transform="matrix(-1 0 0 1 72 80)" fill="#D9D9D9"/>
<rect x="77" y="110" width="53" height="27" rx="2" fill="#D9D9D9"/>
<rect width="12.4448" height="9.15737" rx="2" transform="matrix(-1 0 0 1 130 62.8245)" fill="#D9D9D9"/>
<rect width="12.4448" height="9.15737" rx="2" transform="matrix(-1 0 0 1 116.481 62.8245)" fill="#D9D9D9"/>
<rect width="12.4448" height="9.15737" rx="2" transform="matrix(-1 0 0 1 102.963 62.8245)" fill="#D9D9D9"/>
<rect width="12.4448" height="9.15737" rx="2" transform="matrix(-1 0 0 1 89.4448 62.8245)" fill="#D9D9D9"/>
</svg>
