<svg width="149" height="153" viewBox="0 0 149 153" fill="none" xmlns="http://www.w3.org/2000/svg">
<path d="M139 0H10C4.47715 0 0 4.47715 0 10V143C0 148.523 4.47715 153 10 153H139C144.523 153 149 148.523 149 143V10C149 4.47715 144.523 0 139 0Z" fill="#FF9500"/>
<path d="M108 40H41V42H108V40Z" fill="white"/>
<path d="M108 42H41V44H108V42Z" fill="white"/>
<path d="M108 45H41V47H108V45Z" fill="white"/>
<path d="M108 10H41V39H108V10Z" fill="white"/>
<path d="M108 88H41V90H108V88Z" fill="white"/>
<path d="M108 90H41V92H108V90Z" fill="white"/>
<path d="M108 93H41V95H108V93Z" fill="white"/>
<path d="M108 58H41V87H108V58Z" fill="white"/>
<path d="M108 136H41V138H108V136Z" fill="white"/>
<path d="M108 138H41V140H108V138Z" fill="white"/>
<path d="M108 141H41V143H108V141Z" fill="white"/>
<path d="M108 106H41V135H108V106Z" fill="white"/>
</svg>
