<svg width="149" height="153" viewBox="0 0 149 153" fill="none" xmlns="http://www.w3.org/2000/svg">
<path d="M139 0H10C4.47715 0 0 4.47715 0 10V143C0 148.523 4.47715 153 10 153H139C144.523 153 149 148.523 149 143V10C149 4.47715 144.523 0 139 0Z" fill="#0F2E5F"/>
<path d="M70 40H10V42H70V40Z" fill="#2C517E"/>
<path d="M70 42H10V44H70V42Z" fill="#2C517E"/>
<path d="M70 45H10V47H70V45Z" fill="#2C517E"/>
<path d="M70 10H10V39H70V10Z" fill="#5F7EA8"/>
<path d="M70 88H10V90H70V88Z" fill="#2C517E"/>
<path d="M70 90H10V92H70V90Z" fill="#2C517E"/>
<path d="M70 93H10V95H70V93Z" fill="#2C517E"/>
<path d="M70 58H10V87H70V58Z" fill="#5F7EA8"/>
<path d="M70 136H10V138H70V136Z" fill="#2C517E"/>
<path d="M70 138H10V140H70V138Z" fill="#2C517E"/>
<path d="M70 141H10V143H70V141Z" fill="#2C517E"/>
<path d="M70 106H10V135H70V106Z" fill="#5F7EA8"/>
<path d="M137 40H77V42H137V40Z" fill="#2C517E"/>
<path d="M137 42H77V44H137V42Z" fill="#2C517E"/>
<path d="M137 45H77V47H137V45Z" fill="#2C517E"/>
<path d="M137 10H77V39H137V10Z" fill="#5F7EA8"/>
<path d="M137 88H77V90H137V88Z" fill="#2C517E"/>
<path d="M137 90H77V92H137V90Z" fill="#2C517E"/>
<path d="M137 93H77V95H137V93Z" fill="#2C517E"/>
<path d="M137 58H77V87H137V58Z" fill="#5F7EA8"/>
<path d="M137 136H77V138H137V136Z" fill="#2C517E"/>
<path d="M137 138H77V140H137V138Z" fill="#2C517E"/>
<path d="M137 141H77V143H137V141Z" fill="#2C517E"/>
<path d="M137 106H77V135H137V106Z" fill="#5F7EA8"/>
</svg>
