<svg width="149" height="153" viewBox="0 0 149 153" fill="none" xmlns="http://www.w3.org/2000/svg">
<path d="M139 0H10C4.47715 0 0 4.47715 0 10V143C0 148.523 4.47715 153 10 153H139C144.523 153 149 148.523 149 143V10C149 4.47715 144.523 0 139 0Z" fill="#0F2E5F"/>
<path d="M50 40H10V42H50V40Z" fill="#5F7EA8"/>
<path d="M50 42H10V44H50V42Z" fill="#5F7EA8"/>
<path d="M50 45H10V47H50V45Z" fill="#5F7EA8"/>
<path d="M50 10H10V39H50V10Z" fill="#5F7EA8"/>
<path d="M50 88H10V90H50V88Z" fill="#5F7EA8"/>
<path d="M50 90H10V92H50V90Z" fill="#5F7EA8"/>
<path d="M50 93H10V95H50V93Z" fill="#5F7EA8"/>
<path d="M50 58H10V87H50V58Z" fill="#5F7EA8"/>
<path d="M50 136H10V138H50V136Z" fill="#5F7EA8"/>
<path d="M50 138H10V140H50V138Z" fill="#5F7EA8"/>
<path d="M50 141H10V143H50V141Z" fill="#5F7EA8"/>
<path d="M50 106H10V135H50V106Z" fill="#5F7EA8"/>
<path d="M95 40H55V42H95V40Z" fill="#5F7EA8"/>
<path d="M95 42H55V44H95V42Z" fill="#5F7EA8"/>
<path d="M95 45H55V47H95V45Z" fill="#5F7EA8"/>
<path d="M95 10H55V39H95V10Z" fill="#5F7EA8"/>
<path d="M95 88H55V90H95V88Z" fill="#5F7EA8"/>
<path d="M95 90H55V92H95V90Z" fill="#5F7EA8"/>
<path d="M95 93H55V95H95V93Z" fill="#5F7EA8"/>
<path d="M95 58H55V87H95V58Z" fill="#5F7EA8"/>
<path d="M95 136H55V138H95V136Z" fill="#5F7EA8"/>
<path d="M95 138H55V140H95V138Z" fill="#5F7EA8"/>
<path d="M95 141H55V143H95V141Z" fill="#5F7EA8"/>
<path d="M95 106H55V135H95V106Z" fill="#5F7EA8"/>
<path d="M140 40H100V42H140V40Z" fill="#5F7EA8"/>
<path d="M140 42H100V44H140V42Z" fill="#5F7EA8"/>
<path d="M140 45H100V47H140V45Z" fill="#5F7EA8"/>
<path d="M140 10H100V39H140V10Z" fill="#5F7EA8"/>
<path d="M140 88H100V90H140V88Z" fill="#5F7EA8"/>
<path d="M140 90H100V92H140V90Z" fill="#5F7EA8"/>
<path d="M140 93H100V95H140V93Z" fill="#5F7EA8"/>
<path d="M140 58H100V87H140V58Z" fill="#5F7EA8"/>
<path d="M140 136H100V138H140V136Z" fill="#5F7EA8"/>
<path d="M140 138H100V140H140V138Z" fill="#5F7EA8"/>
<path d="M140 141H100V143H140V141Z" fill="#5F7EA8"/>
<path d="M140 106H100V135H140V106Z" fill="#5F7EA8"/>
</svg>
