<svg width="149" height="153" viewBox="0 0 149 153" fill="none" xmlns="http://www.w3.org/2000/svg">
<path d="M139 0H10C4.47715 0 0 4.47715 0 10V143C0 148.523 4.47715 153 10 153H139C144.523 153 149 148.523 149 143V10C149 4.47715 144.523 0 139 0Z" fill="#FF9500"/>
<path d="M126 90H26V93H126V90Z" fill="white"/>
<path d="M126 84H26V87H126V84Z" fill="white"/>
<path d="M126 78H26V81H126V78Z" fill="white"/>
<path d="M126 96H26V99H126V96Z" fill="white"/>
<path d="M126 102H26V105H126V102Z" fill="white"/>
<path d="M126 108H26V111H126V108Z" fill="white"/>
<path d="M126 114H26V117H126V114Z" fill="white"/>
<path d="M126 120H26V123H126V120Z" fill="white"/>
<path d="M126 126H26V129H126V126Z" fill="white"/>
<path d="M126 132H26V135H126V132Z" fill="white"/>
<path d="M136 23H16V75H136V23Z" fill="white"/>
<path d="M98 41H50V44H98V41Z" fill="#FF9500"/>
<path d="M93 47H56V50H93V47Z" fill="#FF9500"/>
<path d="M67 53H49V56H67V53Z" fill="#FF9500"/>
<path d="M98 53H80V56H98V53Z" fill="#FF9500"/>
</svg>
