<svg width="149" height="153" viewBox="0 0 149 153" fill="none" xmlns="http://www.w3.org/2000/svg">
<path d="M139 0H10C4.47715 0 0 4.47715 0 10V143C0 148.523 4.47715 153 10 153H139C144.523 153 149 148.523 149 143V10C149 4.47715 144.523 0 139 0Z" fill="#FF9500"/>
<path d="M126 90H26V93H126V90Z" fill="white"/>
<path d="M56 29H26V32H56V29Z" fill="white"/>
<path d="M126 29H106V32H126V29Z" fill="white"/>
<path d="M103 29H83V32H103V29Z" fill="white"/>
<path d="M126 23H26V26H126V23Z" fill="white"/>
<path d="M126 96H26V99H126V96Z" fill="white"/>
<path d="M126 102H26V105H126V102Z" fill="white"/>
<path d="M126 108H26V111H126V108Z" fill="white"/>
<path d="M126 114H26V117H126V114Z" fill="white"/>
<path d="M126 120H26V123H126V120Z" fill="white"/>
<path d="M126 126H26V129H126V126Z" fill="white"/>
<path d="M126 132H26V135H126V132Z" fill="white"/>
<path d="M135 35H15V87H135V35Z" fill="#F5F5F5"/>
</svg>
