<svg width="305" height="305" viewBox="0 0 305 305" fill="none" xmlns="http://www.w3.org/2000/svg">
<rect width="305" height="305" rx="20" fill="#0E305F"/>
<rect x="22" y="24" width="260" height="232" rx="14" fill="#20477C"/>
<path d="M89.2013 158.507V149.491L109.847 119.96H122.325V148.837H127.683V158.507H122.325V167H111.153V158.507H89.2013ZM111.937 132.243L100.961 148.837H111.937V132.243ZM133.155 142.5C133.155 135.008 134.592 129.107 137.467 124.795C140.385 120.483 145.067 118.327 151.514 118.327C157.96 118.327 162.62 120.483 165.495 124.795C168.413 129.107 169.872 135.008 169.872 142.5C169.872 150.079 168.413 156.024 165.495 160.336C162.62 164.648 157.96 166.804 151.514 166.804C145.067 166.804 140.385 164.648 137.467 160.336C134.592 156.024 133.155 150.079 133.155 142.5ZM158.896 142.5C158.896 138.101 158.417 134.725 157.459 132.373C156.501 129.978 154.519 128.78 151.514 128.78C148.508 128.78 146.526 129.978 145.568 132.373C144.61 134.725 144.131 138.101 144.131 142.5C144.131 145.462 144.305 147.923 144.654 149.883C145.002 151.799 145.699 153.367 146.744 154.587C147.833 155.763 149.423 156.351 151.514 156.351C153.604 156.351 155.172 155.763 156.218 154.587C157.306 153.367 158.025 151.799 158.374 149.883C158.722 147.923 158.896 145.462 158.896 142.5ZM176.036 158.507V149.491L196.681 119.96H209.16V148.837H214.517V158.507H209.16V167H197.988V158.507H176.036ZM198.772 132.243L187.796 148.837H198.772V132.243Z" fill="#FF9400"/>
</svg>
