<svg width="305" height="305" viewBox="0 0 305 305" fill="none" xmlns="http://www.w3.org/2000/svg">
<rect width="305" height="305" rx="20" fill="white"/>
<rect x="22" y="24" width="260" height="232" rx="14" fill="#F1F1F1"/>
<path d="M111.153 167V158.507H89.2013V149.491L109.847 119.96H122.325V148.837H127.683V158.507H122.325V167H111.153ZM100.961 148.837H111.937V132.243L100.961 148.837ZM133.155 142.5C133.155 128.519 137.924 118.327 151.514 118.327C165.103 118.327 169.872 128.519 169.872 142.5C169.872 156.612 165.103 166.804 151.514 166.804C137.924 166.804 133.155 156.612 133.155 142.5ZM158.896 142.5C158.896 135.183 158.112 128.78 151.514 128.78C144.915 128.78 144.131 135.183 144.131 142.5C144.131 150.079 144.915 156.351 151.514 156.351C158.112 156.351 158.896 150.079 158.896 142.5ZM197.988 167V158.507H176.036V149.491L196.681 119.96H209.16V148.837H214.517V158.507H209.16V167H197.988ZM187.796 148.837H198.772V132.243L187.796 148.837Z" fill="white"/>
</svg>
