<svg width="305" height="305" viewBox="0 0 305 305" fill="none" xmlns="http://www.w3.org/2000/svg">
<rect width="305" height="305" rx="20" fill="white"/>
<rect x="22" y="24" width="260" height="232" rx="14" fill="#F1F1F1"/>
<rect x="38" y="48" width="71" height="62" rx="5" fill="white"/>
<rect x="38" y="151" width="71" height="62" rx="5" fill="white"/>
<rect x="38" y="119" width="71" height="10" rx="5" fill="white"/>
<rect x="38" y="222" width="71" height="10" rx="5" fill="white"/>
<rect x="117" y="48" width="70" height="62" rx="5" fill="white"/>
<rect x="117" y="151" width="70" height="62" rx="5" fill="white"/>
<rect x="117" y="119" width="70" height="10" rx="5" fill="white"/>
<rect x="117" y="222" width="70" height="10" rx="5" fill="white"/>
<rect x="195" y="48" width="71" height="62" rx="5" fill="white"/>
<rect x="195" y="151" width="71" height="62" rx="5" fill="white"/>
<rect x="195" y="119" width="71" height="10" rx="5" fill="white"/>
<rect x="195" y="222" width="71" height="10" rx="5" fill="white"/>
</svg>
