<svg width="20" height="20" viewBox="0 0 20 20" fill="none" xmlns="http://www.w3.org/2000/svg">
<g clip-path="url(#clip0_71_632)">
<path d="M10 0C4.47734 0 0 4.47734 0 10C0 15.5227 4.47734 20 10 20C15.5227 20 20 15.5227 20 10C20 4.47734 15.5227 0 10 0ZM16.1043 16.1043C15.3035 16.9096 14.3516 17.5489 13.3033 17.9857C12.255 18.4225 11.1307 18.6481 9.99505 18.6497C8.85936 18.6513 7.73453 18.4287 6.68499 17.9949C5.63545 17.561 4.68184 16.9243 3.87878 16.1212C3.07573 15.3182 2.43902 14.3646 2.00514 13.315C1.57126 12.2655 1.34873 11.1406 1.3503 10.0049C1.35187 8.86926 1.57751 7.74505 2.0143 6.69671C2.45109 5.64838 3.09043 4.69653 3.8957 3.8957C4.69653 3.09043 5.64838 2.45109 6.69671 2.0143C7.74505 1.57751 8.86926 1.35187 10.0049 1.3503C11.1406 1.34873 12.2655 1.57126 13.315 2.00514C14.3646 2.43902 15.3182 3.07573 16.1212 3.87878C16.9243 4.68184 17.561 5.63545 17.9949 6.68499C18.4287 7.73453 18.6513 8.85936 18.6497 9.99505C18.6481 11.1307 18.4225 12.255 17.9857 13.3033C17.5489 14.3516 16.9096 15.3035 16.1043 16.1043Z" fill="#FF9400"/>
<path d="M12.7105 12.966L11.6582 14.0086C11.5464 14.1199 11.395 14.1823 11.2373 14.1823C11.0796 14.1823 10.9282 14.1199 10.8164 14.0086C10.7609 13.953 10.7169 13.887 10.6869 13.8144C10.6569 13.7418 10.6416 13.6639 10.6418 13.5854C10.6419 13.5068 10.6576 13.429 10.6879 13.3565C10.7182 13.284 10.7626 13.2182 10.8184 13.1629L11.866 12.1246L10.8203 11.0848C10.7645 11.0295 10.7202 10.9637 10.6899 10.8913C10.6596 10.8188 10.6439 10.7411 10.6437 10.6625C10.6436 10.584 10.6589 10.5062 10.6889 10.4336C10.7188 10.361 10.7628 10.295 10.8184 10.2395C10.9299 10.1279 11.0811 10.065 11.2389 10.0647C11.3966 10.0643 11.5481 10.1265 11.6602 10.2375L12.7125 11.2801L13.75 10.2407C13.8619 10.1289 14.0135 10.066 14.1717 10.066C14.3298 10.066 14.4815 10.1289 14.5934 10.2407C14.6488 10.296 14.6928 10.3617 14.7228 10.4341C14.7528 10.5064 14.7683 10.584 14.7683 10.6623C14.7683 10.7407 14.7528 10.8182 14.7228 10.8906C14.6928 10.963 14.6488 11.0287 14.5934 11.084L13.5547 12.1231L14.5934 13.1641C14.6488 13.2194 14.6928 13.2852 14.7228 13.3575C14.7528 13.4299 14.7683 13.5074 14.7683 13.5858C14.7683 13.6641 14.7528 13.7417 14.7228 13.814C14.6928 13.8864 14.6488 13.9521 14.5934 14.0075C14.538 14.0629 14.4723 14.1069 14.3999 14.1369C14.3276 14.1669 14.25 14.1824 14.1717 14.1824C14.0933 14.1824 14.0158 14.1669 13.9434 14.1369C13.8711 14.1069 13.8053 14.0629 13.75 14.0075L12.7105 12.966ZM4.60938 12.127V12.1192C4.60958 11.9611 4.67252 11.8096 4.78436 11.6979C4.8962 11.5862 5.0478 11.5235 5.20586 11.5235H9.16172C9.24005 11.5235 9.31762 11.5389 9.38998 11.5689C9.46235 11.5988 9.52811 11.6428 9.5835 11.6982C9.63889 11.7536 9.68282 11.8193 9.7128 11.8917C9.74278 11.9641 9.7582 12.0416 9.7582 12.1199V12.1278C9.7582 12.2061 9.74278 12.2837 9.7128 12.356C9.68282 12.4284 9.63889 12.4942 9.5835 12.5495C9.52811 12.6049 9.46235 12.6489 9.38998 12.6788C9.31762 12.7088 9.24005 12.7242 9.16172 12.7242H5.20586C5.12746 12.7242 5.04983 12.7088 4.97741 12.6788C4.90499 12.6487 4.8392 12.6047 4.78381 12.5493C4.72841 12.4938 4.68449 12.4279 4.65456 12.3555C4.62463 12.283 4.60927 12.2054 4.60938 12.127ZM10.8152 7.09534C10.9272 6.98351 11.0789 6.9207 11.2371 6.9207C11.3953 6.9207 11.5471 6.98351 11.659 7.09534L12.4609 7.89729L14.3652 5.993C14.421 5.9372 14.4874 5.89304 14.5604 5.86307C14.6334 5.83309 14.7116 5.8179 14.7905 5.81837C14.8694 5.81884 14.9475 5.83497 15.0201 5.86582C15.0927 5.89666 15.1585 5.94162 15.2137 5.99808L15.2207 6.0055C15.3303 6.11757 15.3913 6.2683 15.3906 6.42505C15.3899 6.5818 15.3274 6.73195 15.2168 6.843L12.7402 9.33089C12.7053 9.36587 12.6639 9.39363 12.6182 9.41256C12.5726 9.4315 12.5236 9.44125 12.4742 9.44125C12.4248 9.44125 12.3759 9.4315 12.3302 9.41256C12.2846 9.39363 12.2431 9.36587 12.2082 9.33089L10.8152 7.93792C10.7037 7.8261 10.641 7.67459 10.641 7.51663C10.641 7.35867 10.7037 7.20716 10.8152 7.09534ZM4.60938 7.91604V7.90784C4.60938 7.74964 4.67222 7.59793 4.78408 7.48606C4.89594 7.3742 5.04766 7.31136 5.20586 7.31136H9.16172C9.24005 7.31136 9.31762 7.32679 9.38998 7.35676C9.46235 7.38674 9.52811 7.43067 9.5835 7.48606C9.63889 7.54145 9.68282 7.60721 9.7128 7.67958C9.74278 7.75194 9.7582 7.82951 9.7582 7.90784V7.91604C9.7581 8.07417 9.69521 8.22579 9.58336 8.33757C9.47151 8.44935 9.31985 8.51214 9.16172 8.51214H5.20586C5.04773 8.51214 4.89607 8.44935 4.78422 8.33757C4.67237 8.22579 4.60948 8.07417 4.60938 7.91604Z" fill="#FF9400"/>
</g>
<defs>
<clipPath id="clip0_71_632">
<rect width="20" height="20" fill="white"/>
</clipPath>
</defs>
</svg>
