<svg width="20" height="20" viewBox="0 0 20 20" fill="none" xmlns="http://www.w3.org/2000/svg">
<path d="M17.5002 1.66675H12.5001C12.2791 1.66675 12.0672 1.75455 11.9109 1.91083C11.7546 2.06711 11.6668 2.27907 11.6668 2.50008C11.6668 2.7211 11.7546 2.93306 11.9109 3.08934C12.0672 3.24562 12.2791 3.33341 12.5001 3.33341H15.4885L8.57765 10.2442C8.49806 10.3211 8.43457 10.4131 8.3909 10.5147C8.34722 10.6164 8.32424 10.7258 8.32327 10.8364C8.32231 10.9471 8.3434 11.0568 8.3853 11.1592C8.4272 11.2616 8.48908 11.3547 8.56732 11.4329C8.64556 11.5112 8.73861 11.573 8.84102 11.6149C8.94343 11.6568 9.05317 11.6779 9.16382 11.677C9.27447 11.676 9.38382 11.653 9.48549 11.6093C9.58716 11.5657 9.67911 11.5022 9.75598 11.4226L16.6668 4.51175V7.50008C16.6668 7.7211 16.7546 7.93306 16.9109 8.08934C17.0672 8.24562 17.2791 8.33342 17.5002 8.33342C17.7212 8.33342 17.9331 8.24562 18.0894 8.08934C18.2457 7.93306 18.3335 7.7211 18.3335 7.50008V2.50008C18.3335 2.27907 18.2457 2.06711 18.0894 1.91083C17.9331 1.75455 17.7212 1.66675 17.5002 1.66675Z" fill="#FF9400"/>
<path d="M15.8337 8.82325C15.6126 8.82325 15.4007 8.91105 15.2444 9.06733C15.0881 9.22361 15.0003 9.43557 15.0003 9.65659V15.6258C15.0001 15.9017 14.8904 16.1663 14.6952 16.3615C14.5001 16.5566 14.2355 16.6664 13.9595 16.6666H4.37449C4.09851 16.6664 3.8339 16.5566 3.63876 16.3615C3.44361 16.1663 3.33388 15.9017 3.33366 15.6258V6.04075C3.33388 5.76477 3.44361 5.50016 3.63876 5.30502C3.8339 5.10987 4.09851 5.00014 4.37449 4.99992H9.55949C9.78051 4.99992 9.99247 4.91212 10.1487 4.75584C10.305 4.59956 10.3928 4.3876 10.3928 4.16659C10.3928 3.94557 10.305 3.73361 10.1487 3.57733C9.99247 3.42105 9.78051 3.33325 9.55949 3.33325H4.37449C3.65669 3.33413 2.96854 3.61967 2.46097 4.12723C1.95341 4.6348 1.66787 5.32295 1.66699 6.04075V15.6241C1.66743 16.3422 1.95278 17.0308 2.46039 17.5387C2.968 18.0466 3.6564 18.3324 4.37449 18.3333H13.9578C14.6759 18.3328 15.3645 18.0475 15.8724 17.5399C16.3803 17.0322 16.6661 16.3438 16.667 15.6258V9.65659C16.667 9.43557 16.5792 9.22361 16.4229 9.06733C16.2666 8.91105 16.0547 8.82325 15.8337 8.82325Z" fill="#FF9400"/>
</svg>
