<svg width="27" height="27" viewBox="0 0 27 27" fill="none" xmlns="http://www.w3.org/2000/svg">
<path d="M15.3235 19.3791H12.2188C11.7714 19.3785 11.3425 19.2005 11.0261 18.8842C10.7098 18.5678 10.5318 18.1389 10.5312 17.6916V9.25406C10.5318 8.80668 10.7098 8.3778 11.0261 8.06145C11.3425 7.74511 11.7714 7.56714 12.2188 7.56656H15.269C15.4907 7.56969 15.7023 7.65997 15.858 7.81786C16.0137 7.97575 16.1009 8.18857 16.1009 8.41031C16.1009 8.63204 16.0137 8.84486 15.858 9.00275C15.7023 9.16065 15.4907 9.25092 15.269 9.25406H12.2188V17.6916H15.3235C15.5444 17.6959 15.7548 17.7867 15.9095 17.9444C16.0642 18.1022 16.1509 18.3143 16.1509 18.5353C16.1509 18.7563 16.0642 18.9684 15.9095 19.1262C15.7548 19.284 15.5444 19.3747 15.3235 19.3791ZM24.4688 9.25406V17.6916C24.4682 18.1389 24.2902 18.5678 23.9739 18.8842C23.6575 19.2005 23.2286 19.3785 22.7812 19.3791H19.4062V21.0938H19.9508C20.1718 21.0981 20.3822 21.1888 20.5369 21.3466C20.6917 21.5044 20.7783 21.7165 20.7783 21.9375C20.7783 22.1584 20.6917 22.3706 20.537 22.5284C20.3822 22.6861 20.1718 22.7769 19.9509 22.7812H16.8479C16.6269 22.777 16.4165 22.6862 16.2618 22.5284C16.1071 22.3707 16.0204 22.1585 16.0204 21.9375C16.0204 21.7166 16.107 21.5044 16.2617 21.3466C16.4165 21.1889 16.6269 21.0981 16.8478 21.0938H17.7188C17.7168 19.3962 17.7197 7.90611 17.7188 5.90625H16.8478C16.624 5.90625 16.4094 5.81735 16.2512 5.65912C16.093 5.50089 16.0041 5.28628 16.0041 5.0625C16.0041 4.83872 16.093 4.62411 16.2512 4.46588C16.4094 4.30764 16.624 4.21875 16.8478 4.21875H19.9508C20.1718 4.22305 20.3822 4.31383 20.5369 4.47159C20.6917 4.62935 20.7783 4.8415 20.7783 5.06248C20.7783 5.28345 20.6917 5.4956 20.537 5.65337C20.3822 5.81114 20.1718 5.90194 19.9509 5.90625H19.4062V7.56656H22.7812C23.2286 7.56714 23.6575 7.74511 23.9739 8.06145C24.2902 8.3778 24.4682 8.80668 24.4688 9.25406ZM22.7812 9.25406H19.4062V17.6916H22.7812V9.25406Z" fill="#FF9400"/>
</svg>
