<svg width="53" height="52" viewBox="0 0 53 52" fill="none" xmlns="http://www.w3.org/2000/svg">
<path d="M49.1689 22.765C48.967 17.0117 46.6371 11.6317 42.5461 7.54059C38.258 3.25174 32.5591 0.890564 26.5 0.890564C14.2622 0.890564 4.26286 10.6311 3.83183 22.765C1.96432 23.5949 0.657227 25.4641 0.657227 27.6366V33.6215C0.657227 36.5604 3.04807 38.9521 5.9878 38.9521C7.88993 38.9521 9.43685 37.4052 9.43685 35.503V25.7542C9.43685 23.9683 8.06712 22.512 6.3257 22.3389C6.96853 11.7676 15.7688 3.363 26.5 3.363C31.8998 3.363 36.9773 5.46787 40.7989 9.28943C44.3081 12.7986 46.3619 17.3726 46.6709 22.3398C44.9311 22.5145 43.5639 23.9699 43.5639 25.7542V35.5022C43.5639 37.303 44.955 38.7683 46.7171 38.9208V41.3841C46.7171 44.1582 44.4597 46.4147 41.6857 46.4147H37.9597C37.7767 45.8922 37.4899 45.4093 37.0877 45.0087C36.3831 44.3008 35.4436 43.911 34.4431 43.911H30.6026C30.0512 43.911 29.5221 44.028 29.0375 44.2538C27.7156 44.8612 26.8618 46.1947 26.8618 47.6509C26.8618 48.6514 27.2516 49.591 27.9579 50.294C28.6642 51.0019 29.6037 51.3917 30.6026 51.3917H34.4431C36.0353 51.3917 37.4388 50.3624 37.9622 48.8871H41.6857C45.8237 48.8871 49.1895 45.5213 49.1895 41.3841V38.4807C51.0455 37.6458 52.3427 35.7832 52.3427 33.6199V27.6349C52.3427 25.4641 51.0356 23.5949 49.1689 22.765ZM6.96359 25.7542V35.5022C6.96359 36.0404 6.52597 36.4788 5.98698 36.4788C4.41121 36.4788 3.12884 35.1964 3.12884 33.6207V27.6357C3.12884 26.0591 4.41121 24.7776 5.98698 24.7776C6.52597 24.7776 6.96359 25.216 6.96359 25.7542ZM35.6834 47.9163C35.5606 48.4981 35.0381 48.9209 34.4422 48.9209H30.6017C30.2638 48.9209 29.9465 48.7891 29.7042 48.5468C29.4652 48.3086 29.3334 47.9905 29.3334 47.6526C29.3334 47.1589 29.6226 46.7081 30.0759 46.4996C30.2375 46.4238 30.4146 46.385 30.6017 46.385H34.4422C34.7801 46.385 35.0974 46.5161 35.3389 46.7584C35.5779 46.9966 35.7098 47.3147 35.7098 47.6526C35.7106 47.7432 35.7007 47.8339 35.6834 47.9163ZM49.8702 33.6207C49.8702 35.1964 48.5879 36.4788 47.0121 36.4788C46.4739 36.4788 46.0355 36.0412 46.0355 35.5022V25.7542C46.0355 25.216 46.4731 24.7776 47.0121 24.7776C48.5879 24.7776 49.8702 26.06 49.8702 27.6357V33.6207Z" fill="#001344"/>
<path d="M34.505 34.0468C37.3936 34.0468 39.7432 31.6963 39.7432 28.8085V18.135C39.7432 16.7389 39.1976 15.4236 38.207 14.4329C37.2164 13.4423 35.9019 12.8967 34.505 12.8967H18.4951C15.6065 12.8967 13.2568 15.2464 13.2568 18.135V28.8085C13.2568 31.6971 15.6065 34.0468 18.4951 34.0468H18.5932V36.8126C18.5932 37.8675 19.222 38.8037 20.1945 39.1985C20.5085 39.3246 20.8349 39.3872 21.1579 39.3872C21.8313 39.3872 22.4873 39.1202 22.9677 38.6233L27.569 34.0468H34.505ZM26.1885 31.9337L21.209 36.886C21.1868 36.909 21.1703 36.9263 21.1233 36.9057C21.0664 36.8827 21.0664 36.8456 21.0664 36.8126V32.8106C21.0664 32.1282 20.5134 31.5743 19.8302 31.5743H18.4959C16.9704 31.5743 15.7301 30.3332 15.7301 28.8085V18.135C15.7301 16.6095 16.9704 15.3692 18.4959 15.3692H34.5058C35.2426 15.3692 35.9357 15.6576 36.4598 16.1809C36.984 16.7051 37.2716 17.399 37.2716 18.135V28.8085C37.2716 30.334 36.0304 31.5743 34.5058 31.5743H27.0605C26.7333 31.5743 26.4201 31.7037 26.1885 31.9337Z" fill="#001344"/>
<path d="M20.4942 21.8453C19.4888 21.8453 18.6704 22.6645 18.6704 23.6691C18.6704 24.6737 19.4896 25.4929 20.4942 25.4929C21.5005 25.4929 22.3197 24.6737 22.3197 23.6691C22.3197 22.6645 21.5013 21.8453 20.4942 21.8453Z" fill="#001344"/>
<path d="M26.4991 21.8453C25.4937 21.8453 24.6753 22.6645 24.6753 23.6691C24.6753 24.6737 25.4945 25.4929 26.4991 25.4929C27.5062 25.4929 28.3246 24.6737 28.3246 23.6691C28.3246 22.6645 27.5062 21.8453 26.4991 21.8453Z" fill="#001344"/>
<path d="M32.504 21.8453C31.4985 21.8453 30.6802 22.6645 30.6802 23.6691C30.6802 24.6737 31.4994 25.4929 32.504 25.4929C33.5103 25.4929 34.3295 24.6737 34.3295 23.6691C34.3295 22.6645 33.5103 21.8453 32.504 21.8453Z" fill="#001344"/>
</svg>
