<svg width="58" height="58" viewBox="0 0 58 58" fill="none" xmlns="http://www.w3.org/2000/svg">
<path d="M22.4158 19.9888C17.7549 19.0298 13.0285 19.0298 8.36771 19.9888C7.73239 20.1195 7.32329 20.7406 7.45402 21.3761C7.66897 22.4212 8.69953 22.319 8.8413 22.2898C13.1878 21.3953 17.5957 21.3953 21.9424 22.2898C22.5779 22.4205 23.1989 22.0113 23.3296 21.3761C23.4603 20.7406 23.0512 20.1196 22.4158 19.9888Z" fill="#001644"/>
<path d="M22.4158 25.3136C17.7549 24.3545 13.0286 24.3545 8.36771 25.3136C7.73239 25.4443 7.32329 26.0654 7.45402 26.7009C7.58475 27.3362 8.20527 27.7449 8.8413 27.6146C13.1878 26.7201 17.5958 26.7201 21.9424 27.6146C22.0347 27.6336 23.1134 27.752 23.3296 26.7009C23.4603 26.0654 23.0512 25.4443 22.4158 25.3136Z" fill="#001644"/>
<path d="M22.4158 14.6642C17.7549 13.7051 13.0285 13.7051 8.36771 14.6642C7.73239 14.7949 7.32329 15.416 7.45402 16.0514C7.66897 17.0966 8.69953 16.9944 8.8413 16.9651C13.1878 16.0707 17.5957 16.0707 21.9424 16.9651C22.5779 17.0955 23.1989 16.6866 23.3296 16.0514C23.4603 15.416 23.0512 14.7949 22.4158 14.6642Z" fill="#001644"/>
<path d="M22.4158 9.33939C17.7549 8.38036 13.0286 8.38036 8.36771 9.33939C7.73239 9.47013 7.32329 10.0912 7.45402 10.7267C7.58475 11.362 8.20527 11.7707 8.8413 11.6404C13.1878 10.7459 17.5958 10.7459 21.9424 11.6404C22.0347 11.6594 23.1134 11.7778 23.3296 10.7267C23.4603 10.0912 23.0512 9.47013 22.4158 9.33939Z" fill="#001644"/>
<path d="M38.6037 24.8613L48.5764 20.5613C49.5639 20.1355 50.1774 19.203 50.1774 18.1277C50.1774 17.0524 49.5639 16.1199 48.5764 15.6942L38.6037 11.3941C37.7822 11.0397 36.8454 11.122 36.098 11.6137C35.3505 12.1053 34.9043 12.933 34.9043 13.8277V22.4279C34.9043 23.3225 35.3505 24.1502 36.098 24.6419C36.8423 25.1315 37.7813 25.2159 38.6037 24.8613ZM37.389 22.6793C37.3272 22.6387 37.2534 22.562 37.2534 22.4279V13.8277C37.2534 13.6936 37.3272 13.617 37.389 13.5762C37.4517 13.5349 37.5474 13.497 37.6737 13.5513L47.6465 17.8514C47.7967 17.9161 47.8282 18.0373 47.8282 18.1278C47.8282 18.2182 47.7967 18.3394 47.6465 18.4043L37.6737 22.7044C37.5504 22.7572 37.4507 22.72 37.389 22.6793Z" fill="#001644"/>
<path d="M57.3113 50.9783L54.6449 38.8929C54.2676 37.1838 52.7653 36.0858 51.0751 36.2818L43.7093 37.1358L43.1177 34.4539C46.8245 34.4861 50.5289 34.8329 54.2101 35.4956C56.0124 35.8201 57.2901 34.5324 57.2901 33.3035V3.81183C57.2901 2.74744 56.4651 1.84749 55.2837 1.62315C46.5523 -0.0345151 37.6995 0.0217464 28.9663 1.78723C20.2332 0.021629 11.3804 -0.0343977 2.64908 1.62303C1.46771 1.84737 0.642578 2.74732 0.642578 3.81171V33.3035C0.642578 34.4867 1.86307 35.8304 3.72275 35.4956C12.0192 34.0017 20.4328 34.1102 28.7297 35.8175C28.886 35.8486 29.0468 35.8486 29.2031 35.8175C31.8736 35.2679 34.5563 34.885 37.2433 34.6669L37.9935 38.0673H9.11153C4.4417 38.0673 0.642578 41.8664 0.642578 46.5362C0.642578 51.206 4.4417 55.0052 9.11153 55.0052H41.7303L41.875 55.6613C42.2198 57.2227 43.8455 57.1295 44.1806 57.0231L56.0268 53.2579C56.9632 52.9603 57.5276 51.9591 57.3113 50.9783ZM54.941 51.1383L44.0468 54.6008L43.7922 53.4468L54.6863 49.9843L54.941 51.1383ZM38.727 30.4887C38.6469 30.1259 38.8666 29.7154 39.1973 29.6103C39.5086 29.5113 39.6741 29.7485 39.7185 29.9506L41.644 38.6778C41.7739 39.2663 42.3283 39.6611 42.9263 39.5915L51.3458 38.6152C51.8231 38.5596 52.237 38.8821 52.3511 39.399L54.1783 47.6806L42.5621 51.3725L35.247 47.0084C35.2467 46.9917 35.2503 46.9661 35.2673 46.9358C35.4419 46.624 35.7186 46.398 36.0258 46.3159C36.1928 46.2711 36.445 46.2493 36.6969 46.3994L40.743 48.8112C41.1454 49.0512 41.652 49.029 42.0318 48.7547C42.4117 48.4805 42.5923 48.0068 42.4913 47.5492L38.727 30.4887ZM3.30649 33.1837C3.16953 33.2082 3.05771 33.1826 2.9917 33.1549V3.95912C3.0159 3.9489 3.04761 3.93856 3.0872 3.93105C11.282 2.37534 19.5885 2.38215 27.7918 3.94937V33.2414C16.7004 31.1958 7.81329 32.3759 3.30649 33.1837ZM30.1409 33.2414V3.94937C38.3443 2.38227 46.6508 2.37545 54.8455 3.93105C54.8851 3.93856 54.9168 3.9489 54.9409 3.95912V33.1549C54.875 33.1827 54.7635 33.2084 54.6261 33.1837C50.6348 32.4651 46.6177 32.1053 42.5988 32.1022L42.0125 29.4444C41.8392 28.6592 41.3542 27.9867 40.6819 27.5992C40.0145 27.2145 39.2344 27.1336 38.4856 27.3716C36.9911 27.8466 36.0895 29.4381 36.4329 30.9949L36.7324 32.3522C34.531 32.5414 32.3324 32.8372 30.1409 33.2414ZM2.9917 46.5363C2.9917 43.1619 5.73713 40.4165 9.11153 40.4165H38.5117L39.6027 45.3618H39.5435L37.8993 44.3816C37.1536 43.9374 36.2728 43.8184 35.4187 44.0465C34.6613 44.249 33.9823 44.7183 33.4968 45.3616H18.104C17.571 43.712 16.0211 42.5151 14.1963 42.5151C12.3715 42.5151 10.8217 43.712 10.2887 45.3616H6.98933C6.34062 45.3616 5.81477 45.8876 5.81477 46.5362C5.81477 47.1848 6.34062 47.7108 6.98933 47.7108H10.2383C10.717 49.4475 12.3096 50.7272 14.1964 50.7272C16.0833 50.7272 17.6759 49.4475 18.1546 47.7108H33.0084C33.1689 48.2391 33.507 48.706 34.0003 49.0002L40.1281 52.656H9.11153C5.73701 52.656 2.9917 49.9107 2.9917 46.5363ZM15.9532 46.6212C15.9532 47.59 15.1651 48.3782 14.1963 48.3782C13.2276 48.3782 12.4394 47.59 12.4394 46.6212C12.4394 45.6525 13.2276 44.8643 14.1963 44.8643C15.1651 44.8643 15.9532 45.6525 15.9532 46.6212Z" fill="#001644"/>
</svg>
