<svg width="46" height="47" viewBox="0 0 46 47" fill="none" xmlns="http://www.w3.org/2000/svg">
<path d="M45.1749 4.16261C45.0769 2.36604 43.6481 0.937386 41.8515 0.839334C38.2264 0.641285 31.1327 0.833945 24.3496 4.34237C20.8917 6.131 17.2346 9.16347 14.3161 12.6623C14.2801 12.7054 14.2451 12.7488 14.2094 12.792L7.58603 13.3036C6.49579 13.3879 5.52471 13.9593 4.92173 14.8713L0.40301 21.706C-0.0543044 22.3977 -0.127005 23.2633 0.208406 24.0214C0.543905 24.7797 1.23328 25.3081 2.05259 25.4351L7.63284 26.2994C7.61315 26.4078 7.59336 26.5162 7.57525 26.6247C7.38948 27.736 7.75766 28.8785 8.56028 29.681L16.3331 37.454C16.9985 38.1194 17.8977 38.4862 18.8191 38.4862C19.0088 38.4862 19.1996 38.4706 19.3895 38.4389C19.498 38.4208 19.6064 38.401 19.7149 38.3813L20.5791 43.9616C20.7061 44.781 21.2345 45.4704 21.9926 45.8058C22.3081 45.9454 22.6419 46.0143 22.9742 46.0143C23.4409 46.0142 23.9043 45.8784 24.3081 45.6113L31.1429 41.0925C32.0549 40.4894 32.6263 39.5184 32.7104 38.4282L33.222 31.8049C33.2652 31.7692 33.3087 31.7342 33.3518 31.6983C36.8507 28.7797 39.8832 25.1226 41.6718 21.6646C45.1804 14.8813 45.3727 7.78747 45.1749 4.16261ZM29.6813 38.8818L23.1435 43.2043L22.3012 37.7659C25.0643 36.9535 27.7977 35.6523 30.4017 33.9092L30.0684 38.224C30.0477 38.4931 29.9065 38.733 29.6813 38.8818ZM18.207 35.5801L10.4341 27.8072C10.2357 27.6088 10.1441 27.3301 10.189 27.0616C10.4201 25.6798 10.7792 24.3644 11.2237 23.1252L22.8865 34.788C21.3982 35.3211 20.0651 35.6391 18.9525 35.8251C18.6836 35.8698 18.4053 35.7784 18.207 35.5801ZM7.79017 15.9458L12.1048 15.6125C10.3616 18.2166 9.06044 20.9499 8.24802 23.7131L2.80972 22.8708L7.13234 16.3329C7.28127 16.1076 7.5211 15.9666 7.79017 15.9458ZM31.6545 29.6631C29.5139 31.4486 27.4359 32.7401 25.5206 33.6746L12.3391 20.4931C13.5633 17.9928 15.0573 15.9108 16.351 14.3598C19.0519 11.1219 22.4111 8.32861 25.5672 6.69617C31.7926 3.47607 38.3516 3.30266 41.7073 3.48534C42.1514 3.50955 42.5047 3.8628 42.5289 4.30704C42.7118 7.66274 42.5381 14.2217 39.318 20.4471C37.6856 23.6032 34.8924 26.9622 31.6545 29.6631Z" fill="#001B44"/>
<path d="M30.9814 21.6549C32.6776 21.6548 34.3746 21.009 35.666 19.7177C36.9173 18.4664 37.6064 16.8027 37.6064 15.0331C37.6064 13.2636 36.9173 11.5999 35.666 10.3486C33.0828 7.76539 28.8799 7.76556 26.2969 10.3486C25.0455 11.5999 24.3564 13.2636 24.3564 15.0331C24.3564 16.8027 25.0456 18.4664 26.2969 19.7177C27.5885 21.0093 29.2846 21.6551 30.9814 21.6549ZM28.1706 12.2224C28.9455 11.4474 29.9633 11.06 30.9813 11.06C31.9992 11.06 33.0172 11.4474 33.7921 12.2224C34.5428 12.9731 34.9562 13.9713 34.9562 15.033C34.9562 16.0947 34.5428 17.093 33.7921 17.8438C32.2423 19.3936 29.7204 19.3935 28.1705 17.8438C27.4198 17.093 27.0062 16.0948 27.0062 15.0331C27.0062 13.9714 27.4198 12.9731 28.1706 12.2224Z" fill="#001B44"/>
<path d="M1.35136 38.0585C1.69048 38.0585 2.0296 37.9291 2.28825 37.6703L6.61431 33.3443C7.13178 32.8268 7.13178 31.9879 6.61431 31.4704C6.09693 30.9529 5.25792 30.9529 4.74045 31.4704L0.41447 35.7965C-0.103 36.3139 -0.103 37.1528 0.41447 37.6703C0.673117 37.929 1.01224 38.0585 1.35136 38.0585Z" fill="#001B44"/>
<path d="M10.5791 35.4349C10.0617 34.9174 9.22273 34.9174 8.70526 35.4349L0.388103 43.7521C-0.129368 44.2696 -0.129368 45.1086 0.388103 45.626C0.646838 45.8847 0.985871 46.0141 1.32499 46.0141C1.66411 46.0141 2.00323 45.8847 2.26188 45.6259L10.579 37.3087C11.0966 36.7913 11.0966 35.9524 10.5791 35.4349Z" fill="#001B44"/>
<path d="M12.6697 39.3996L8.34367 43.7256C7.8262 44.2431 7.8262 45.082 8.34367 45.5995C8.60241 45.8583 8.94152 45.9876 9.28055 45.9876C9.61959 45.9876 9.9588 45.8583 10.2174 45.5995L14.5435 41.2734C15.061 40.756 15.061 39.9171 14.5435 39.3996C14.0261 38.8821 13.1871 38.8821 12.6697 39.3996Z" fill="#001B44"/>
</svg>
