<svg width="49" height="56" viewBox="0 0 49 56" fill="none" xmlns="http://www.w3.org/2000/svg">
<path d="M0.640625 15.1582V39.9351C0.643744 42.4678 2.69622 44.5203 5.22897 44.5234H14.4055C14.6939 44.5257 14.965 44.6612 15.1397 44.8904L22.3819 54.5443C22.9112 55.1787 23.697 55.5424 24.5232 55.5353C25.3494 55.5282 26.129 55.151 26.6472 54.5075L33.86 44.8904C34.0351 44.6615 34.306 44.5261 34.5942 44.5234H43.7707C46.3035 44.5204 48.356 42.4678 48.3591 39.9351V15.1582C48.356 12.6255 46.3035 10.573 43.7707 10.5699H37.7583C36.0494 4.36544 30.2642 0.177252 23.8363 0.491264C17.9038 0.789146 12.8268 4.8484 11.2305 10.5699H5.22897C2.69622 10.573 0.643744 12.6255 0.640625 15.1582ZM23.9227 2.32469C27.1829 2.16682 30.3655 3.35168 32.7288 5.60321C35.0921 7.85485 36.4295 10.9765 36.4294 14.2406C36.442 17.5406 35.071 20.6949 32.6497 22.9372C30.338 25.1676 29.0494 28.2531 29.0882 31.465V32.5937H19.9115V31.6192C19.9515 28.3375 18.646 25.1825 16.2988 22.8886C12.8276 19.6054 11.6527 14.5665 13.3136 10.0867C14.9745 5.60676 19.1501 2.5517 23.9227 2.32469ZM27.2528 39.0174H21.7469C20.7332 39.0174 19.9115 38.1957 19.9115 37.1821V34.4291H29.0882V37.1821C29.0882 38.1957 28.2665 39.0174 27.2528 39.0174ZM2.47598 15.1582C2.47598 13.6378 3.70859 12.4052 5.22897 12.4052H10.8698C10.8441 12.597 10.8084 12.786 10.7918 12.9806C10.4006 17.1817 11.967 21.3286 15.0379 24.222C17.0191 26.1689 18.1169 28.8418 18.0763 31.6192V37.1821C18.0825 38.8508 19.2135 40.3052 20.8292 40.7225V41.7704C20.8292 42.2773 21.24 42.688 21.7469 42.688C22.2537 42.688 22.6645 42.2773 22.6645 41.7704V40.8527H26.3352V41.7704C26.3352 42.2773 26.746 42.688 27.2528 42.688C27.7597 42.688 28.1705 42.2773 28.1705 41.7704V40.7225C29.7862 40.3052 30.9172 38.8508 30.9234 37.1821V31.465C30.8834 28.7611 31.9616 26.1605 33.9031 24.2779C36.6976 21.69 38.2796 18.0493 38.2648 14.2406C38.2602 13.6264 38.2151 13.0134 38.1299 12.4052H43.7707C45.2911 12.4052 46.5237 13.6378 46.5237 15.1582V39.9351C46.5237 41.4554 45.2911 42.688 43.7707 42.688H34.5942C33.7286 42.6922 32.9144 43.0993 32.3918 43.7892L25.2083 53.3706C24.8349 53.7631 24.2143 53.7795 23.8207 53.4073L16.6079 43.7892C16.0856 43.099 15.2712 42.6918 14.4055 42.688H5.22897C3.70859 42.688 2.47598 41.4554 2.47598 39.9351V15.1582Z" fill="#011B44"/>
<path d="M22.6647 26.1701C22.1579 26.1701 21.7471 26.5809 21.7471 27.0877V29.8407C21.7471 30.3475 22.1579 30.7585 22.6647 30.7585C23.1715 30.7585 23.5823 30.3475 23.5823 29.8407V27.0877C23.5823 26.5809 23.1715 26.1701 22.6647 26.1701Z" fill="#011B44"/>
<path d="M21.7471 22.4995C21.7471 23.0064 22.158 23.4171 22.6647 23.4171C23.1715 23.4171 23.5824 23.0064 23.5824 22.4995V21.5819C23.5824 21.0751 23.1715 20.6642 22.6647 20.6642C22.158 20.6642 21.7471 21.0751 21.7471 21.5819V22.4995Z" fill="#011B44"/>
<path d="M26.3351 30.7585C26.8419 30.7585 27.2527 30.3476 27.2527 29.8409V27.0878C27.2527 26.5811 26.8419 26.17 26.3351 26.17C25.8283 26.17 25.4175 26.5811 25.4175 27.0878V29.8409C25.4175 30.3476 25.8283 30.7585 26.3351 30.7585Z" fill="#011B44"/>
<path d="M26.3351 23.4172C26.8419 23.4172 27.2527 23.0064 27.2527 22.4995V21.5818C27.2527 21.075 26.8419 20.6642 26.3351 20.6642C25.8283 20.6642 25.4175 21.075 25.4175 21.5818V22.4995C25.4175 23.0064 25.8283 23.4172 26.3351 23.4172Z" fill="#011B44"/>
<path d="M9.81732 6.89923C10.2072 6.89945 10.5546 6.65329 10.6837 6.2854C10.8127 5.91762 10.6954 5.50833 10.3908 5.26486L5.80259 1.59425C5.40674 1.27745 4.82904 1.34154 4.51234 1.73739C4.19554 2.13324 4.25963 2.71083 4.65548 3.02763L9.24382 6.69824C9.40664 6.82847 9.60892 6.89934 9.81732 6.89923Z" fill="#011B44"/>
<path d="M39.7562 6.69824L44.3445 3.02763C44.7402 2.71083 44.8043 2.13324 44.4876 1.73739C44.1708 1.34154 43.5933 1.27745 43.1974 1.59425L38.6091 5.26486C38.353 5.46972 38.2258 5.79567 38.2751 6.1199C38.3246 6.44413 38.5433 6.71728 38.8487 6.83665C39.1542 6.95591 39.5001 6.90311 39.7562 6.69824Z" fill="#011B44"/>
<path d="M4.51237 33.1673C4.66443 33.3574 4.88585 33.4794 5.12781 33.5061C5.36977 33.533 5.6126 33.4626 5.80261 33.3104L10.391 29.6398C10.7867 29.323 10.8508 28.7454 10.5341 28.3496C10.2173 27.9537 9.63969 27.8896 9.24384 28.2065L4.6555 31.877C4.46537 32.0291 4.34343 32.2506 4.31665 32.4925C4.28976 32.7345 4.3602 32.9773 4.51237 33.1673Z" fill="#011B44"/>
<path d="M43.1973 33.3104C43.5932 33.6273 44.1708 33.5631 44.4876 33.1673C44.8043 32.7715 44.7402 32.1938 44.3445 31.877L39.7561 28.2065C39.3603 27.8896 38.7827 27.9537 38.4659 28.3496C38.1492 28.7454 38.2133 29.323 38.609 29.6398L43.1973 33.3104Z" fill="#011B44"/>
<path d="M16.0658 12.3878C16.1235 12.3993 16.1823 12.4052 16.2411 12.4052C16.68 12.4044 17.057 12.0929 17.1404 11.6619C17.7983 8.28218 21.145 6.84331 21.1781 6.82955C21.6466 6.6362 21.8697 6.09958 21.6764 5.63103C21.483 5.16249 20.9464 4.93945 20.4779 5.1327C20.3026 5.20432 16.1869 6.94418 15.339 11.3131C15.2431 11.8106 15.5684 12.2915 16.0658 12.3878Z" fill="#011B44"/>
<path d="M5.22915 16.9936H7.98214C8.48896 16.9936 8.89976 16.5828 8.89976 16.0759C8.89976 15.5691 8.48896 15.1582 7.98214 15.1582H5.22915C4.72232 15.1582 4.31152 15.5691 4.31152 16.0759C4.31152 16.5828 4.72232 16.9936 5.22915 16.9936Z" fill="#011B44"/>
<path d="M41.0177 16.9936H43.7707C44.2776 16.9936 44.6883 16.5828 44.6883 16.0759C44.6883 15.5691 44.2776 15.1582 43.7707 15.1582H41.0177C40.5109 15.1582 40.1001 15.5691 40.1001 16.0759C40.1001 16.5828 40.5109 16.9936 41.0177 16.9936Z" fill="#011B44"/>
</svg>
