<svg width="182" height="42" viewBox="0 0 182 42" fill="none" xmlns="http://www.w3.org/2000/svg">
<path d="M172 0H10C4.47715 0 0 4.47715 0 10V32C0 37.5228 4.47715 42 10 42H172C177.523 42 182 37.5228 182 32V10C182 4.47715 177.523 0 172 0Z" fill="white"/>
<path d="M172 0.5H10C4.75329 0.5 0.5 4.75329 0.5 10V32C0.5 37.2467 4.75329 41.5 10 41.5H172C177.247 41.5 181.5 37.2467 181.5 32V10C181.5 4.75329 177.247 0.5 172 0.5Z" stroke="#195795"/>
<path d="M48.072 25.439C48.072 26.791 46.967 28.091 44.952 28.091C43.145 28.091 41.754 27.103 41.754 25.504H43.34C43.405 26.245 43.925 26.843 44.952 26.843C45.992 26.843 46.577 26.284 46.577 25.517C46.577 23.333 41.78 24.75 41.78 21.422C41.78 19.836 43.041 18.848 44.887 18.848C46.616 18.848 47.838 19.758 47.968 21.305H46.33C46.278 20.694 45.745 20.135 44.809 20.109C43.951 20.083 43.288 20.499 43.288 21.37C43.288 23.411 48.072 22.137 48.072 25.439ZM49.8207 28V18.38H51.3027V21.669C51.7967 21.071 52.6027 20.72 53.5257 20.72C55.1247 20.72 56.3727 21.773 56.3727 23.775V28H54.9037V23.996C54.9037 22.683 54.1887 22.007 53.1097 22.007C52.0177 22.007 51.3027 22.683 51.3027 23.996V28H49.8207ZM57.7691 24.386C57.7691 22.176 59.2641 20.72 61.1491 20.72C62.3581 20.72 63.1901 21.292 63.6321 21.877V20.837H65.1271V28H63.6321V26.934C63.1771 27.545 62.3191 28.117 61.1231 28.117C59.2641 28.117 57.7691 26.596 57.7691 24.386ZM63.6321 24.412C63.6321 22.878 62.5791 22.007 61.4611 22.007C60.3561 22.007 59.2901 22.839 59.2901 24.386C59.2901 25.933 60.3561 26.83 61.4611 26.83C62.5791 26.83 63.6321 25.959 63.6321 24.412ZM68.5556 24.23V28H67.0736V20.837H68.5556V21.877C68.9716 21.162 69.6866 20.72 70.7006 20.72V22.254H70.3236C69.2316 22.254 68.5556 22.709 68.5556 24.23ZM75.0789 21.968C74.0779 21.968 73.2719 22.644 73.1159 23.775H77.0809C77.0549 22.67 76.1839 21.968 75.0789 21.968ZM78.4329 25.868C78.0299 27.116 76.8989 28.117 75.1439 28.117C73.0899 28.117 71.5689 26.661 71.5689 24.412C71.5689 22.163 73.0249 20.72 75.1439 20.72C77.1849 20.72 78.6279 22.137 78.6279 24.243C78.6279 24.49 78.6149 24.724 78.5759 24.971H73.1029C73.2069 26.154 74.0519 26.869 75.1439 26.869C76.0539 26.869 76.5609 26.427 76.8339 25.868H78.4329ZM90.2883 24.412C90.2883 26.661 88.6243 28.117 86.5703 28.117C84.5293 28.117 82.9823 26.661 82.9823 24.412C82.9823 22.163 84.5943 20.72 86.6353 20.72C88.6763 20.72 90.2883 22.163 90.2883 24.412ZM84.4903 24.412C84.4903 26.037 85.4523 26.83 86.5703 26.83C87.6753 26.83 88.7673 26.037 88.7673 24.412C88.7673 22.787 87.7143 22.007 86.6093 22.007C85.4913 22.007 84.4903 22.787 84.4903 24.412ZM96.8363 28V23.996C96.8363 22.683 96.1213 22.007 95.0423 22.007C93.9503 22.007 93.2353 22.683 93.2353 23.996V28H91.7533V20.837H93.2353V21.656C93.7163 21.071 94.5093 20.72 95.3673 20.72C97.0443 20.72 98.3053 21.773 98.3053 23.775V28H96.8363ZM103.573 28V18.965H108.89V20.174H105.055V22.839H108.045V24.048H105.055V28H103.573ZM109.769 24.386C109.769 22.176 111.264 20.72 113.149 20.72C114.358 20.72 115.19 21.292 115.632 21.877V20.837H117.127V28H115.632V26.934C115.177 27.545 114.319 28.117 113.123 28.117C111.264 28.117 109.769 26.596 109.769 24.386ZM115.632 24.412C115.632 22.878 114.579 22.007 113.461 22.007C112.356 22.007 111.29 22.839 111.29 24.386C111.29 25.933 112.356 26.83 113.461 26.83C114.579 26.83 115.632 25.959 115.632 24.412ZM118.58 24.412C118.58 22.176 120.036 20.72 122.09 20.72C123.845 20.72 124.989 21.591 125.392 23.099H123.793C123.546 22.41 122.974 21.968 122.09 21.968C120.894 21.968 120.101 22.852 120.101 24.412C120.101 25.985 120.894 26.869 122.09 26.869C122.974 26.869 123.52 26.479 123.793 25.738H125.392C124.989 27.142 123.845 28.117 122.09 28.117C120.036 28.117 118.58 26.661 118.58 24.412ZM129.885 21.968C128.884 21.968 128.078 22.644 127.922 23.775H131.887C131.861 22.67 130.99 21.968 129.885 21.968ZM133.239 25.868C132.836 27.116 131.705 28.117 129.95 28.117C127.896 28.117 126.375 26.661 126.375 24.412C126.375 22.163 127.831 20.72 129.95 20.72C131.991 20.72 133.434 22.137 133.434 24.243C133.434 24.49 133.421 24.724 133.382 24.971H127.909C128.013 26.154 128.858 26.869 129.95 26.869C130.86 26.869 131.367 26.427 131.64 25.868H133.239ZM136.374 21.903C136.842 21.253 137.739 20.72 138.87 20.72C140.768 20.72 142.237 22.176 142.237 24.386C142.237 26.596 140.755 28.117 138.87 28.117C137.687 28.117 136.842 27.584 136.374 26.96V28H134.892V18.38H136.374V21.903ZM140.729 24.386C140.729 22.839 139.663 22.007 138.545 22.007C137.44 22.007 136.374 22.878 136.374 24.412C136.374 25.959 137.44 26.83 138.545 26.83C139.663 26.83 140.729 25.933 140.729 24.386ZM150.528 24.412C150.528 26.661 148.864 28.117 146.81 28.117C144.769 28.117 143.222 26.661 143.222 24.412C143.222 22.163 144.834 20.72 146.875 20.72C148.916 20.72 150.528 22.163 150.528 24.412ZM144.73 24.412C144.73 26.037 145.692 26.83 146.81 26.83C147.915 26.83 149.007 26.037 149.007 24.412C149.007 22.787 147.954 22.007 146.849 22.007C145.731 22.007 144.73 22.787 144.73 24.412ZM158.818 24.412C158.818 26.661 157.154 28.117 155.1 28.117C153.059 28.117 151.512 26.661 151.512 24.412C151.512 22.163 153.124 20.72 155.165 20.72C157.206 20.72 158.818 22.163 158.818 24.412ZM153.02 24.412C153.02 26.037 153.982 26.83 155.1 26.83C156.205 26.83 157.297 26.037 157.297 24.412C157.297 22.787 156.244 22.007 155.139 22.007C154.021 22.007 153.02 22.787 153.02 24.412ZM160.283 28V18.38H161.765V23.97L164.365 20.837H166.419L163.117 24.425L166.419 28H164.417L161.765 24.919V28H160.283Z" fill="#195795"/>
<path d="M14.021 12.6409H30.35C30.483 12.6396 30.6149 12.6648 30.7381 12.7151C30.8612 12.7654 30.9731 12.8397 31.0672 12.9338C31.1612 13.0278 31.2356 13.1397 31.2858 13.2628C31.3361 13.386 31.3613 13.5179 31.36 13.6509V29.9909C31.3597 30.2587 31.2532 30.5155 31.0639 30.7048C30.8745 30.8942 30.6178 31.0007 30.35 31.0009H25.668V23.8859H28.055L28.411 21.1209H25.668V19.3539C25.668 18.5539 25.897 17.9999 27.045 17.9999H28.514V15.5209C27.805 15.4495 27.0926 15.4161 26.38 15.4209C25.8941 15.3843 25.406 15.4546 24.9501 15.6269C24.4943 15.7991 24.0817 16.0692 23.7415 16.4181C23.4013 16.767 23.1416 17.1863 22.9809 17.6463C22.8201 18.1064 22.7621 18.5961 22.811 19.0809V21.1209H20.411V23.8859H22.811V30.9999H14.021C13.7523 30.9999 13.4944 30.894 13.3033 30.7051C13.1121 30.5162 13.0032 30.2596 13 29.9909V13.6509C13.0005 13.5175 13.0274 13.3855 13.079 13.2625C13.1306 13.1395 13.206 13.0278 13.3009 12.934C13.3957 12.8402 13.5082 12.766 13.6317 12.7157C13.7553 12.6654 13.8876 12.64 14.021 12.6409Z" fill="#195795"/>
<path d="M172 0H10C4.47715 0 0 4.47715 0 10V32C0 37.5228 4.47715 42 10 42H172C177.523 42 182 37.5228 182 32V10C182 4.47715 177.523 0 172 0Z" fill="white"/>
<path d="M172 0.5H10C4.75329 0.5 0.5 4.75329 0.5 10V32C0.5 37.2467 4.75329 41.5 10 41.5H172C177.247 41.5 181.5 37.2467 181.5 32V10C181.5 4.75329 177.247 0.5 172 0.5Z" stroke="#E12F2F"/>
<path d="M44.952 28.091C44.3453 28.091 43.7993 27.987 43.314 27.779C42.8287 27.5623 42.4473 27.259 42.17 26.869C41.8927 26.479 41.754 26.024 41.754 25.504H43.34C43.3747 25.894 43.5263 26.2147 43.795 26.466C44.0723 26.7173 44.458 26.843 44.952 26.843C45.4633 26.843 45.862 26.7217 46.148 26.479C46.434 26.2277 46.577 25.907 46.577 25.517C46.577 25.2137 46.486 24.9667 46.304 24.776C46.1307 24.5853 45.9097 24.438 45.641 24.334C45.381 24.23 45.017 24.1173 44.549 23.996C43.9597 23.84 43.4787 23.684 43.106 23.528C42.742 23.3633 42.43 23.112 42.17 22.774C41.91 22.436 41.78 21.9853 41.78 21.422C41.78 20.902 41.91 20.447 42.17 20.057C42.43 19.667 42.794 19.368 43.262 19.16C43.73 18.952 44.2717 18.848 44.887 18.848C45.7623 18.848 46.4773 19.069 47.032 19.511C47.5953 19.9443 47.9073 20.5423 47.968 21.305H46.33C46.304 20.9757 46.148 20.694 45.862 20.46C45.576 20.226 45.199 20.109 44.731 20.109C44.3063 20.109 43.9597 20.2173 43.691 20.434C43.4223 20.6507 43.288 20.9627 43.288 21.37C43.288 21.6473 43.3703 21.877 43.535 22.059C43.7083 22.2323 43.925 22.371 44.185 22.475C44.445 22.579 44.8003 22.6917 45.251 22.813C45.849 22.9777 46.3343 23.1423 46.707 23.307C47.0883 23.4717 47.409 23.7273 47.669 24.074C47.9377 24.412 48.072 24.867 48.072 25.439C48.072 25.8983 47.9463 26.3317 47.695 26.739C47.4523 27.1463 47.0927 27.4757 46.616 27.727C46.148 27.9697 45.5933 28.091 44.952 28.091ZM53.5257 20.72C54.0717 20.72 54.557 20.837 54.9817 21.071C55.415 21.305 55.753 21.6517 55.9957 22.111C56.247 22.5703 56.3727 23.125 56.3727 23.775V28H54.9037V23.996C54.9037 23.3547 54.7434 22.865 54.4227 22.527C54.102 22.1803 53.6644 22.007 53.1097 22.007C52.555 22.007 52.113 22.1803 51.7837 22.527C51.463 22.865 51.3027 23.3547 51.3027 23.996V28H49.8207V18.38H51.3027V21.669C51.554 21.3657 51.8704 21.1317 52.2517 20.967C52.6417 20.8023 53.0664 20.72 53.5257 20.72ZM57.7691 24.386C57.7691 23.6667 57.9164 23.0297 58.2111 22.475C58.5144 21.9203 58.9218 21.4913 59.4331 21.188C59.9531 20.876 60.5251 20.72 61.1491 20.72C61.7124 20.72 62.2021 20.8327 62.6181 21.058C63.0428 21.2747 63.3808 21.5477 63.6321 21.877V20.837H65.1271V28H63.6321V26.934C63.3808 27.272 63.0384 27.5537 62.6051 27.779C62.1718 28.0043 61.6778 28.117 61.1231 28.117C60.5078 28.117 59.9444 27.961 59.4331 27.649C58.9218 27.3283 58.5144 26.8863 58.2111 26.323C57.9164 25.751 57.7691 25.1053 57.7691 24.386ZM63.6321 24.412C63.6321 23.918 63.5281 23.489 63.3201 23.125C63.1208 22.761 62.8564 22.4837 62.5271 22.293C62.1978 22.1023 61.8424 22.007 61.4611 22.007C61.0798 22.007 60.7244 22.1023 60.3951 22.293C60.0658 22.475 59.7971 22.748 59.5891 23.112C59.3898 23.4673 59.2901 23.892 59.2901 24.386C59.2901 24.88 59.3898 25.3133 59.5891 25.686C59.7971 26.0587 60.0658 26.3447 60.3951 26.544C60.7331 26.7347 61.0884 26.83 61.4611 26.83C61.8424 26.83 62.1978 26.7347 62.5271 26.544C62.8564 26.3533 63.1208 26.076 63.3201 25.712C63.5281 25.3393 63.6321 24.906 63.6321 24.412ZM68.5556 21.877C68.7723 21.513 69.0583 21.2313 69.4136 21.032C69.7776 20.824 70.2066 20.72 70.7006 20.72V22.254H70.3236C69.743 22.254 69.301 22.4013 68.9976 22.696C68.703 22.9907 68.5556 23.502 68.5556 24.23V28H67.0736V20.837H68.5556V21.877ZM78.6279 24.243C78.6279 24.5117 78.6106 24.7543 78.5759 24.971H73.1029C73.1462 25.543 73.3586 26.0023 73.7399 26.349C74.1212 26.6957 74.5892 26.869 75.1439 26.869C75.9412 26.869 76.5046 26.5353 76.8339 25.868H78.4329C78.2162 26.5267 77.8219 27.0683 77.2499 27.493C76.6866 27.909 75.9846 28.117 75.1439 28.117C74.4592 28.117 73.8439 27.9653 73.2979 27.662C72.7606 27.35 72.3359 26.9167 72.0239 26.362C71.7206 25.7987 71.5689 25.1487 71.5689 24.412C71.5689 23.6753 71.7162 23.0297 72.0109 22.475C72.3142 21.9117 72.7346 21.4783 73.2719 21.175C73.8179 20.8717 74.4419 20.72 75.1439 20.72C75.8199 20.72 76.4222 20.8673 76.9509 21.162C77.4796 21.4567 77.8912 21.8727 78.1859 22.41C78.4806 22.9387 78.6279 23.5497 78.6279 24.243ZM77.0809 23.775C77.0722 23.229 76.8772 22.7913 76.4959 22.462C76.1146 22.1327 75.6422 21.968 75.0789 21.968C74.5676 21.968 74.1299 22.1327 73.7659 22.462C73.4019 22.7827 73.1852 23.2203 73.1159 23.775H77.0809ZM86.5703 28.117C85.8943 28.117 85.2833 27.9653 84.7373 27.662C84.1913 27.35 83.7623 26.9167 83.4503 26.362C83.1383 25.7987 82.9823 25.1487 82.9823 24.412C82.9823 23.684 83.1426 23.0383 83.4633 22.475C83.7839 21.9117 84.2216 21.4783 84.7763 21.175C85.3309 20.8717 85.9506 20.72 86.6353 20.72C87.3199 20.72 87.9396 20.8717 88.4943 21.175C89.0489 21.4783 89.4866 21.9117 89.8073 22.475C90.1279 23.0383 90.2883 23.684 90.2883 24.412C90.2883 25.14 90.1236 25.7857 89.7943 26.349C89.4649 26.9123 89.0143 27.35 88.4423 27.662C87.8789 27.9653 87.2549 28.117 86.5703 28.117ZM86.5703 26.83C86.9516 26.83 87.3069 26.739 87.6363 26.557C87.9743 26.375 88.2473 26.102 88.4553 25.738C88.6633 25.374 88.7673 24.932 88.7673 24.412C88.7673 23.892 88.6676 23.4543 88.4683 23.099C88.2689 22.735 88.0046 22.462 87.6753 22.28C87.3459 22.098 86.9906 22.007 86.6093 22.007C86.2279 22.007 85.8726 22.098 85.5433 22.28C85.2226 22.462 84.9669 22.735 84.7763 23.099C84.5856 23.4543 84.4903 23.892 84.4903 24.412C84.4903 25.1833 84.6853 25.7813 85.0753 26.206C85.4739 26.622 85.9723 26.83 86.5703 26.83ZM95.3673 20.72C95.9307 20.72 96.4333 20.837 96.8753 21.071C97.326 21.305 97.677 21.6517 97.9283 22.111C98.1797 22.5703 98.3053 23.125 98.3053 23.775V28H96.8363V23.996C96.8363 23.3547 96.676 22.865 96.3553 22.527C96.0347 22.1803 95.597 22.007 95.0423 22.007C94.4877 22.007 94.0457 22.1803 93.7163 22.527C93.3957 22.865 93.2353 23.3547 93.2353 23.996V28H91.7533V20.837H93.2353V21.656C93.478 21.3613 93.7857 21.1317 94.1583 20.967C94.5397 20.8023 94.9427 20.72 95.3673 20.72ZM105.055 18.965V28H103.573V18.965H105.055ZM110.614 20.72C111.178 20.72 111.68 20.837 112.122 21.071C112.573 21.305 112.924 21.6517 113.175 22.111C113.427 22.5703 113.552 23.125 113.552 23.775V28H112.083V23.996C112.083 23.3547 111.923 22.865 111.602 22.527C111.282 22.1803 110.844 22.007 110.289 22.007C109.735 22.007 109.293 22.1803 108.963 22.527C108.643 22.865 108.482 23.3547 108.482 23.996V28H107V20.837H108.482V21.656C108.725 21.3613 109.033 21.1317 109.405 20.967C109.787 20.8023 110.19 20.72 110.614 20.72ZM118.043 28.117C117.479 28.117 116.972 28.0173 116.522 27.818C116.08 27.61 115.729 27.3327 115.469 26.986C115.209 26.6307 115.07 26.2363 115.053 25.803H116.587C116.613 26.1063 116.756 26.362 117.016 26.57C117.284 26.7693 117.618 26.869 118.017 26.869C118.433 26.869 118.753 26.791 118.979 26.635C119.213 26.4703 119.33 26.2623 119.33 26.011C119.33 25.7423 119.2 25.543 118.94 25.413C118.688 25.283 118.285 25.14 117.731 24.984C117.193 24.8367 116.756 24.6937 116.418 24.555C116.08 24.4163 115.785 24.204 115.534 23.918C115.291 23.632 115.17 23.255 115.17 22.787C115.17 22.4057 115.282 22.059 115.508 21.747C115.733 21.4263 116.054 21.175 116.47 20.993C116.894 20.811 117.38 20.72 117.926 20.72C118.74 20.72 119.395 20.928 119.889 21.344C120.391 21.7513 120.66 22.3103 120.695 23.021H119.213C119.187 22.7003 119.057 22.4447 118.823 22.254C118.589 22.0633 118.272 21.968 117.874 21.968C117.484 21.968 117.185 22.0417 116.977 22.189C116.769 22.3363 116.665 22.5313 116.665 22.774C116.665 22.9647 116.734 23.125 116.873 23.255C117.011 23.385 117.18 23.489 117.38 23.567C117.579 23.6363 117.874 23.7273 118.264 23.84C118.784 23.9787 119.208 24.1217 119.538 24.269C119.876 24.4077 120.166 24.6157 120.409 24.893C120.651 25.1703 120.777 25.5387 120.786 25.998C120.786 26.4053 120.673 26.7693 120.448 27.09C120.222 27.4107 119.902 27.662 119.486 27.844C119.078 28.026 118.597 28.117 118.043 28.117ZM124.116 22.046V26.011C124.116 26.2797 124.177 26.4747 124.298 26.596C124.428 26.7087 124.645 26.765 124.948 26.765H125.858V28H124.688C124.021 28 123.509 27.844 123.154 27.532C122.799 27.22 122.621 26.713 122.621 26.011V22.046H121.776V20.837H122.621V19.056H124.116V20.837H125.858V22.046H124.116ZM126.73 24.386C126.73 23.6667 126.877 23.0297 127.172 22.475C127.475 21.9203 127.883 21.4913 128.394 21.188C128.914 20.876 129.486 20.72 130.11 20.72C130.673 20.72 131.163 20.8327 131.579 21.058C132.004 21.2747 132.342 21.5477 132.593 21.877V20.837H134.088V28H132.593V26.934C132.342 27.272 131.999 27.5537 131.566 27.779C131.133 28.0043 130.639 28.117 130.084 28.117C129.469 28.117 128.905 27.961 128.394 27.649C127.883 27.3283 127.475 26.8863 127.172 26.323C126.877 25.751 126.73 25.1053 126.73 24.386ZM132.593 24.412C132.593 23.918 132.489 23.489 132.281 23.125C132.082 22.761 131.817 22.4837 131.488 22.293C131.159 22.1023 130.803 22.007 130.422 22.007C130.041 22.007 129.685 22.1023 129.356 22.293C129.027 22.475 128.758 22.748 128.55 23.112C128.351 23.4673 128.251 23.892 128.251 24.386C128.251 24.88 128.351 25.3133 128.55 25.686C128.758 26.0587 129.027 26.3447 129.356 26.544C129.694 26.7347 130.049 26.83 130.422 26.83C130.803 26.83 131.159 26.7347 131.488 26.544C131.817 26.3533 132.082 26.076 132.281 25.712C132.489 25.3393 132.593 24.906 132.593 24.412ZM138.921 20.72C139.475 20.72 139.965 20.8327 140.39 21.058C140.823 21.2747 141.161 21.5477 141.404 21.877V20.837H142.899V28.117C142.899 28.7757 142.76 29.3607 142.483 29.872C142.205 30.392 141.802 30.7993 141.274 31.094C140.754 31.3887 140.13 31.536 139.402 31.536C138.431 31.536 137.625 31.3063 136.984 30.847C136.342 30.3963 135.978 29.781 135.892 29.001H137.361C137.473 29.3737 137.712 29.6727 138.076 29.898C138.448 30.132 138.89 30.249 139.402 30.249C140 30.249 140.481 30.067 140.845 29.703C141.217 29.339 141.404 28.8103 141.404 28.117V26.921C141.152 27.259 140.81 27.545 140.377 27.779C139.952 28.0043 139.467 28.117 138.921 28.117C138.297 28.117 137.725 27.961 137.205 27.649C136.693 27.3283 136.286 26.8863 135.983 26.323C135.688 25.751 135.541 25.1053 135.541 24.386C135.541 23.6667 135.688 23.0297 135.983 22.475C136.286 21.9203 136.693 21.4913 137.205 21.188C137.725 20.876 138.297 20.72 138.921 20.72ZM141.404 24.412C141.404 23.918 141.3 23.489 141.092 23.125C140.892 22.761 140.628 22.4837 140.299 22.293C139.969 22.1023 139.614 22.007 139.233 22.007C138.851 22.007 138.496 22.1023 138.167 22.293C137.837 22.475 137.569 22.748 137.361 23.112C137.161 23.4673 137.062 23.892 137.062 24.386C137.062 24.88 137.161 25.3133 137.361 25.686C137.569 26.0587 137.837 26.3447 138.167 26.544C138.505 26.7347 138.86 26.83 139.233 26.83C139.614 26.83 139.969 26.7347 140.299 26.544C140.628 26.3533 140.892 26.076 141.092 25.712C141.3 25.3393 141.404 24.906 141.404 24.412ZM146.327 21.877C146.544 21.513 146.83 21.2313 147.185 21.032C147.549 20.824 147.978 20.72 148.472 20.72V22.254H148.095C147.514 22.254 147.072 22.4013 146.769 22.696C146.474 22.9907 146.327 23.502 146.327 24.23V28H144.845V20.837H146.327V21.877ZM149.34 24.386C149.34 23.6667 149.488 23.0297 149.782 22.475C150.086 21.9203 150.493 21.4913 151.004 21.188C151.524 20.876 152.096 20.72 152.72 20.72C153.284 20.72 153.773 20.8327 154.189 21.058C154.614 21.2747 154.952 21.5477 155.203 21.877V20.837H156.698V28H155.203V26.934C154.952 27.272 154.61 27.5537 154.176 27.779C153.743 28.0043 153.249 28.117 152.694 28.117C152.079 28.117 151.516 27.961 151.004 27.649C150.493 27.3283 150.086 26.8863 149.782 26.323C149.488 25.751 149.34 25.1053 149.34 24.386ZM155.203 24.412C155.203 23.918 155.099 23.489 154.891 23.125C154.692 22.761 154.428 22.4837 154.098 22.293C153.769 22.1023 153.414 22.007 153.032 22.007C152.651 22.007 152.296 22.1023 151.966 22.293C151.637 22.475 151.368 22.748 151.16 23.112C150.961 23.4673 150.861 23.892 150.861 24.386C150.861 24.88 150.961 25.3133 151.16 25.686C151.368 26.0587 151.637 26.3447 151.966 26.544C152.304 26.7347 152.66 26.83 153.032 26.83C153.414 26.83 153.769 26.7347 154.098 26.544C154.428 26.3533 154.692 26.076 154.891 25.712C155.099 25.3393 155.203 24.906 155.203 24.412ZM167.316 20.72C167.879 20.72 168.382 20.837 168.824 21.071C169.275 21.305 169.626 21.6517 169.877 22.111C170.137 22.5703 170.267 23.125 170.267 23.775V28H168.798V23.996C168.798 23.3547 168.638 22.865 168.317 22.527C167.996 22.1803 167.559 22.007 167.004 22.007C166.449 22.007 166.007 22.1803 165.678 22.527C165.357 22.865 165.197 23.3547 165.197 23.996V28H163.728V23.996C163.728 23.3547 163.568 22.865 163.247 22.527C162.926 22.1803 162.489 22.007 161.934 22.007C161.379 22.007 160.937 22.1803 160.608 22.527C160.287 22.865 160.127 23.3547 160.127 23.996V28H158.645V20.837H160.127V21.656C160.37 21.3613 160.677 21.1317 161.05 20.967C161.423 20.8023 161.821 20.72 162.246 20.72C162.818 20.72 163.329 20.8413 163.78 21.084C164.231 21.3267 164.577 21.6777 164.82 22.137C165.037 21.7037 165.375 21.3613 165.834 21.11C166.293 20.85 166.787 20.72 167.316 20.72Z" fill="#E12F2F"/>
<path d="M29.1346 32.6194L17.8846 32.6301C15.4096 32.6323 13.3829 30.6096 13.3801 28.1346L13.3694 16.8846C13.3671 14.4096 15.3899 12.3829 17.8649 12.3801L29.1149 12.3694C31.5899 12.3671 33.6166 14.3899 33.6194 16.8649L33.6301 28.1149C33.6329 30.5904 31.6096 32.6171 29.1346 32.6194Z" fill="url(#paint0_radial_120_187)"/>
<path d="M29.1346 32.6194L17.8846 32.6301C15.4096 32.6323 13.3829 30.6096 13.3801 28.1346L13.3694 16.8846C13.3671 14.4096 15.3899 12.3829 17.8649 12.3801L29.1149 12.3694C31.5899 12.3671 33.6166 14.3899 33.6194 16.8649L33.6301 28.1149C33.6329 30.5904 31.6096 32.6171 29.1346 32.6194Z" fill="url(#paint1_radial_120_187)"/>
<path d="M23.5 26.4375C21.3293 26.4375 19.5625 24.6712 19.5625 22.5C19.5625 20.3288 21.3293 18.5625 23.5 18.5625C25.6707 18.5625 27.4375 20.3288 27.4375 22.5C27.4375 24.6712 25.6707 26.4375 23.5 26.4375ZM23.5 19.6875C21.9492 19.6875 20.6875 20.9492 20.6875 22.5C20.6875 24.0508 21.9492 25.3125 23.5 25.3125C25.0508 25.3125 26.3125 24.0508 26.3125 22.5C26.3125 20.9492 25.0508 19.6875 23.5 19.6875Z" fill="white"/>
<path d="M27.7188 19.125C28.1847 19.125 28.5625 18.7472 28.5625 18.2812C28.5625 17.8153 28.1847 17.4375 27.7188 17.4375C27.2528 17.4375 26.875 17.8153 26.875 18.2812C26.875 18.7472 27.2528 19.125 27.7188 19.125Z" fill="white"/>
<path d="M26.875 29.8125H20.125C17.9543 29.8125 16.1875 28.0462 16.1875 25.875V19.125C16.1875 16.9538 17.9543 15.1875 20.125 15.1875H26.875C29.0457 15.1875 30.8125 16.9538 30.8125 19.125V25.875C30.8125 28.0462 29.0457 29.8125 26.875 29.8125ZM20.125 16.3125C18.5742 16.3125 17.3125 17.5742 17.3125 19.125V25.875C17.3125 27.4258 18.5742 28.6875 20.125 28.6875H26.875C28.4258 28.6875 29.6875 27.4258 29.6875 25.875V19.125C29.6875 17.5742 28.4258 16.3125 26.875 16.3125H20.125Z" fill="white"/>
<defs>
<radialGradient id="paint0_radial_120_187" cx="0" cy="0" r="1" gradientUnits="userSpaceOnUse" gradientTransform="translate(20.9013 32.6447) scale(25.2557)">
<stop stop-color="#FFDD55"/>
<stop offset="0.328" stop-color="#FF543F"/>
<stop offset="0.348" stop-color="#FC5245"/>
<stop offset="0.504" stop-color="#E64771"/>
<stop offset="0.643" stop-color="#D53E91"/>
<stop offset="0.761" stop-color="#CC39A4"/>
<stop offset="0.841" stop-color="#C837AB"/>
</radialGradient>
<radialGradient id="paint1_radial_120_187" cx="0" cy="0" r="1" gradientUnits="userSpaceOnUse" gradientTransform="translate(16.6296 12.1164) scale(16.7698 11.1737)">
<stop stop-color="#4168C9"/>
<stop offset="0.999" stop-color="#4168C9" stop-opacity="0"/>
</radialGradient>
</defs>
</svg>
