<svg width="149" height="153" viewBox="0 0 149 153" fill="none" xmlns="http://www.w3.org/2000/svg">
<path d="M139 0H10C4.47715 0 0 4.47715 0 10V143C0 148.523 4.47715 153 10 153H139C144.523 153 149 148.523 149 143V10C149 4.47715 144.523 0 139 0Z" fill="#0F2E5F"/>
<path d="M126 90H26V93H126V90Z" fill="#2C517E"/>
<path d="M126 78H26V81H126V78Z" fill="#2C517E"/>
<path d="M56 84H26V87H56V84Z" fill="#2C517E"/>
<path d="M126 84H106V87H126V84Z" fill="#2C517E"/>
<path d="M103 84H83V87H103V84Z" fill="#2C517E"/>
<path d="M126 96H26V99H126V96Z" fill="#2C517E"/>
<path d="M126 102H26V105H126V102Z" fill="#2C517E"/>
<path d="M126 108H26V111H126V108Z" fill="#2C517E"/>
<path d="M126 114H26V117H126V114Z" fill="#2C517E"/>
<path d="M126 120H26V123H126V120Z" fill="#2C517E"/>
<path d="M126 126H26V129H126V126Z" fill="#2C517E"/>
<path d="M126 132H26V135H126V132Z" fill="#2C517E"/>
<path d="M136 23H16V75H136V23Z" fill="#5F7EA8"/>
</svg>
