<svg width="26" height="27" viewBox="0 0 26 27" fill="none" xmlns="http://www.w3.org/2000/svg">
<path d="M13.078 0.614258C10.5293 0.61406 8.03787 1.36964 5.91865 2.78545C3.79943 4.20127 2.14764 6.21371 1.17218 8.56831C0.196711 10.9229 -0.0586172 13.5139 0.438479 16.0136C0.935575 18.5133 2.16277 20.8094 3.96487 22.6117C5.76697 24.4139 8.06303 25.6413 10.5627 26.1386C13.0624 26.6359 15.6534 26.3807 18.008 25.4055C20.3627 24.4302 22.3753 22.7786 23.7912 20.6594C25.2072 18.5403 25.963 16.0489 25.963 13.5003C25.963 10.0829 24.6055 6.8054 22.1891 4.38883C19.7728 1.97227 16.4954 0.614523 13.078 0.614258ZM20.442 21.7093V21.1493C20.4668 19.8951 19.9991 18.6811 19.1391 17.7678C18.2791 16.8546 17.0954 16.3148 15.842 16.2643H10.317C9.06358 16.3145 7.88 16.8549 7.02101 17.7691C6.16201 18.6833 5.69626 19.8981 5.724 21.1523C5.724 21.1623 5.715 21.1723 5.715 21.1823V21.7203C4.04491 20.2301 2.86673 18.2679 2.33642 16.0933C1.8061 13.9188 1.94866 11.6345 2.74522 9.54276C3.54177 7.45103 4.95477 5.65052 6.79717 4.37955C8.63958 3.10858 10.8245 2.42708 13.0628 2.42525C15.301 2.42343 17.4871 3.10137 19.3316 4.36933C21.176 5.6373 22.592 7.43551 23.3919 9.52594C24.1919 11.6164 24.3382 13.9004 23.8114 16.0758C23.2846 18.2512 22.1097 20.2164 20.442 21.7093Z" fill="#FFFFFF"/>
<path d="M13.078 5.21582C12.1682 5.21582 11.2788 5.48561 10.5224 5.99106C9.76591 6.49651 9.17632 7.21494 8.82815 8.05548C8.47999 8.89602 8.3889 9.82092 8.56639 10.7132C8.74388 11.6055 9.18199 12.4252 9.82531 13.0685C10.4686 13.7118 11.2883 14.1499 12.1806 14.3274C13.0729 14.5049 13.9978 14.4138 14.8383 14.0657C15.6789 13.7175 16.3973 13.1279 16.9028 12.3714C17.4082 11.615 17.678 10.7256 17.678 9.81582C17.678 8.59582 17.1934 7.4258 16.3307 6.56313C15.468 5.70046 14.298 5.21582 13.078 5.21582Z" fill="#FFFFFF"/>
</svg>
