<svg width="27" height="15" viewBox="0 0 27 15" fill="none" xmlns="http://www.w3.org/2000/svg">
<path d="M26.245 2.91667V10.4997C26.2432 11.1696 25.9762 11.8115 25.5025 12.2852C25.0288 12.7589 24.3869 13.0258 23.717 13.0277H22.453V10.4997H23.717V2.91667H3.495V10.4997H11.078V13.0277H3.495C2.8251 13.0258 2.18317 12.7589 1.70947 12.2852C1.23578 11.8115 0.968846 11.1696 0.966999 10.4997V2.91667C0.968846 2.24677 1.23578 1.60484 1.70947 1.13115C2.18317 0.657454 2.8251 0.390519 3.495 0.388672H23.717C24.3869 0.390519 25.0288 0.657454 25.5025 1.13115C25.9762 1.60484 26.2432 2.24677 26.245 2.91667ZM16.184 14.2787C16.2343 14.3889 16.3153 14.4824 16.4172 14.548C16.5191 14.6135 16.6378 14.6484 16.759 14.6484C16.8802 14.6484 16.9988 14.6135 17.1008 14.548C17.2027 14.4824 17.2837 14.3889 17.334 14.2787L18.134 12.5097L19.903 11.7097C20.0133 11.6594 20.1068 11.5784 20.1723 11.4765C20.2379 11.3745 20.2727 11.2559 20.2727 11.1347C20.2727 11.0135 20.2379 10.8948 20.1723 10.7929C20.1068 10.6909 20.0133 10.61 19.903 10.5597L18.134 9.75967L17.334 7.99067C17.2837 7.8804 17.2027 7.78692 17.1008 7.72137C16.9988 7.65582 16.8802 7.62097 16.759 7.62097C16.6378 7.62097 16.5191 7.65582 16.4172 7.72137C16.3153 7.78692 16.2343 7.8804 16.184 7.99067L15.384 9.75967L13.615 10.5597C13.5047 10.61 13.4112 10.6909 13.3457 10.7929C13.2801 10.8948 13.2453 11.0135 13.2453 11.1347C13.2453 11.2559 13.2801 11.3745 13.3457 11.4765C13.4112 11.5784 13.5047 11.6594 13.615 11.7097L15.384 12.5097L16.184 14.2787ZM19.596 8.51567C19.6253 8.57803 19.6718 8.63075 19.7299 8.66768C19.7881 8.70461 19.8556 8.72422 19.9245 8.72422C19.9934 8.72422 20.0609 8.70461 20.1191 8.66768C20.1772 8.63075 20.2237 8.57803 20.253 8.51567L20.708 7.50467L21.719 7.04967C21.7814 7.02035 21.8341 6.97389 21.871 6.91572C21.9079 6.85755 21.9275 6.79007 21.9275 6.72117C21.9275 6.65227 21.9079 6.58479 21.871 6.52662C21.8341 6.46845 21.7814 6.42199 21.719 6.39267L20.708 5.93767L20.253 4.92667C20.224 4.86399 20.1776 4.81092 20.1194 4.77372C20.0612 4.73653 19.9936 4.71676 19.9245 4.71676C19.8554 4.71676 19.7878 4.73653 19.7296 4.77372C19.6714 4.81092 19.625 4.86399 19.596 4.92667L19.141 5.93767L18.13 6.39267C18.0676 6.42199 18.0149 6.46845 17.978 6.52662C17.9411 6.58479 17.9215 6.65227 17.9215 6.72117C17.9215 6.79007 17.9411 6.85755 17.978 6.91572C18.0149 6.97389 18.0676 7.02035 18.13 7.04967L19.141 7.50467L19.596 8.51567Z" fill="#FFFFFF"/>
</svg>
