<svg width="28" height="25" viewBox="0 0 28 25" fill="none" xmlns="http://www.w3.org/2000/svg">
<path d="M23.774 3.50139H7.942L7.789 2.86939C7.64134 2.1012 7.23773 1.40572 6.644 0.896394C6.05822 0.390248 5.30602 0.1185 4.532 0.133394H2.037C1.89481 0.129899 1.75346 0.15621 1.62205 0.210633C1.49064 0.265057 1.37208 0.346388 1.274 0.449394C1.1698 0.562296 1.08909 0.694789 1.03655 0.839167C0.98402 0.983546 0.960718 1.13693 0.968001 1.29039C0.963753 1.43583 0.988636 1.58064 1.04119 1.71631C1.09374 1.85198 1.1729 1.97577 1.274 2.08039C1.3722 2.18353 1.49092 2.26493 1.62251 2.31936C1.7541 2.37379 1.89564 2.40003 2.038 2.39639H4.532C4.66453 2.37972 4.79907 2.38977 4.92765 2.42594C5.05624 2.46212 5.17628 2.52369 5.28068 2.60702C5.38507 2.69036 5.47172 2.79376 5.53549 2.91113C5.59927 3.0285 5.63889 3.15746 5.652 3.29039L8.146 16.7634C8.33477 17.4774 8.75724 18.1076 9.346 18.5534C9.90305 18.9967 10.5941 19.2379 11.306 19.2374H21.585C21.7329 19.2452 21.8809 19.222 22.0193 19.1693C22.1578 19.1167 22.2838 19.0357 22.3892 18.9316C22.4946 18.8276 22.5771 18.7026 22.6315 18.5648C22.6859 18.427 22.7109 18.2794 22.705 18.1314C22.7297 17.977 22.718 17.8191 22.6711 17.67C22.6241 17.5209 22.5431 17.3848 22.4344 17.2724C22.3258 17.1601 22.1925 17.0746 22.045 17.0227C21.8976 16.9708 21.7401 16.9539 21.585 16.9734H11.302C11.0881 16.9846 10.8759 16.93 10.6939 16.817C10.5119 16.7041 10.3689 16.5381 10.284 16.3414L10.184 15.8674H21.076C21.7484 15.8695 22.4023 15.6471 22.934 15.2354C23.4827 14.8301 23.8845 14.2572 24.079 13.6034L27.031 7.13139V6.86839C27.0416 6.42669 26.9637 5.98734 26.8019 5.57619C26.6402 5.16505 26.3978 4.79043 26.089 4.47439C25.7927 4.1592 25.4336 3.90973 25.0348 3.74212C24.636 3.57451 24.2065 3.4925 23.774 3.50139ZM22.145 12.7114V12.8174C22.1065 13.0632 21.9727 13.2839 21.7726 13.4318C21.5725 13.5796 21.3223 13.6427 21.076 13.6074H9.775L8.349 5.76539H23.774C23.9032 5.7522 24.0337 5.76501 24.1579 5.80307C24.2821 5.84112 24.3974 5.90365 24.497 5.98697C24.5966 6.07029 24.6786 6.17271 24.738 6.2882C24.7974 6.40368 24.8331 6.52989 24.843 6.65939L22.145 12.7114ZM14 22.6044C14.0064 22.9008 13.9534 23.1955 13.8442 23.4712C13.7349 23.7468 13.5717 23.9978 13.364 24.2094C13.1657 24.4214 12.925 24.5894 12.6577 24.7026C12.3904 24.8157 12.1023 24.8715 11.812 24.8664C11.5299 24.8675 11.2507 24.8095 10.9924 24.6962C10.734 24.5828 10.5023 24.4167 10.312 24.2084C9.90297 23.7741 9.67519 23.2 9.67519 22.6034C9.67519 22.0068 9.90297 21.4327 10.312 20.9984C10.5022 20.7901 10.734 20.624 10.9923 20.5108C11.2507 20.3976 11.5299 20.3399 11.812 20.3414C12.1025 20.3364 12.3908 20.3924 12.6583 20.5057C12.9258 20.6191 13.1665 20.7873 13.365 20.9994C13.5728 21.2111 13.7361 21.4622 13.8451 21.7381C13.9542 22.0139 14.0069 22.3078 14 22.6044ZM22.7 22.6044C22.7064 22.9008 22.6534 23.1955 22.5442 23.4712C22.4349 23.7468 22.2717 23.9978 22.064 24.2094C21.8624 24.4174 21.6212 24.5827 21.3545 24.6956C21.0878 24.8086 20.8011 24.8667 20.5115 24.8667C20.2219 24.8667 19.9352 24.8086 19.6685 24.6956C19.4018 24.5827 19.1606 24.4174 18.959 24.2094C18.5504 23.7749 18.3229 23.2009 18.3229 22.6044C18.3229 22.0079 18.5504 21.4339 18.959 20.9994C19.1606 20.7914 19.4018 20.6261 19.6685 20.5132C19.9352 20.4002 20.2219 20.342 20.5115 20.342C20.8011 20.342 21.0878 20.4002 21.3545 20.5132C21.6212 20.6261 21.8624 20.7914 22.064 20.9994C22.2728 21.2106 22.4371 21.4616 22.5472 21.7374C22.6573 22.0133 22.711 22.3084 22.705 22.6054L22.7 22.6044Z" fill="#FFFFFF"/>
</svg>
