<svg width="25" height="26" viewBox="0 0 25 26" fill="none" xmlns="http://www.w3.org/2000/svg">
<path d="M21.904 25.0186H21.742C3.036 23.9436 0.381 8.15956 0.0089996 3.34356C-0.0209243 2.96906 0.0233344 2.59234 0.13924 2.23497C0.255146 1.8776 0.44042 1.54662 0.684451 1.26097C0.928482 0.975323 1.22647 0.74063 1.56135 0.570335C1.89623 0.40004 2.26142 0.297491 2.636 0.26856H7.881C8.26256 0.267627 8.63556 0.381597 8.95143 0.595629C9.26731 0.809661 9.51143 1.11384 9.652 1.46856L11.098 5.02956C11.2378 5.37554 11.2726 5.75502 11.1981 6.12065C11.1235 6.48627 10.943 6.82187 10.679 7.08556L8.652 9.13256C8.96854 10.9324 9.83034 12.5916 11.1208 13.8856C12.4112 15.1797 14.068 16.046 15.867 16.3676L17.936 14.3186C18.2037 14.0576 18.5424 13.8814 18.9097 13.8121C19.277 13.7427 19.6566 13.7832 20.001 13.9286L23.59 15.3666C23.9393 15.5115 24.2375 15.7573 24.4463 16.0726C24.655 16.3879 24.765 16.7584 24.762 17.1366V22.1626C24.762 22.92 24.4611 23.6465 23.9255 24.1821C23.3899 24.7177 22.6635 25.0186 21.906 25.0186H21.904ZM2.865 2.17256C2.61251 2.17256 2.37037 2.27286 2.19183 2.45139C2.0133 2.62993 1.913 2.87207 1.913 3.12456V3.20056C2.351 8.83556 5.159 22.1626 21.847 23.1146C21.972 23.1223 22.0973 23.1053 22.2157 23.0645C22.3341 23.0237 22.4433 22.96 22.537 22.8769C22.6307 22.7939 22.7071 22.6931 22.7619 22.5805C22.8166 22.4679 22.8486 22.3456 22.856 22.2206V17.1366L19.267 15.6986L16.536 18.4116L16.079 18.3536C7.798 17.3166 6.679 9.03356 6.679 8.95356L6.616 8.49356L9.316 5.76156L7.891 2.17256H2.865Z" fill="#FF9600"/>
</svg>
