<svg width="26" height="19" viewBox="0 0 26 19" fill="none" xmlns="http://www.w3.org/2000/svg">
<path d="M24.12 7.7H1.08C0.0859999 7.7 0 8.505 0 9.5C0 10.495 0.0859999 11.3 1.08 11.3H24.12C25.114 11.3 25.2 10.495 25.2 9.5C25.2 8.505 25.114 7.7 24.12 7.7ZM24.12 14.9H1.08C0.0859999 14.9 0 15.705 0 16.7C0 17.695 0.0859999 18.5 1.08 18.5H24.12C25.114 18.5 25.2 17.695 25.2 16.7C25.2 15.705 25.114 14.9 24.12 14.9ZM1.08 4.1H24.12C25.114 4.1 25.2 3.295 25.2 2.3C25.2 1.305 25.114 0.5 24.12 0.5H1.08C0.0859999 0.5 0 1.305 0 2.3C0 3.295 0.0859999 4.1 1.08 4.1Z" fill="#FF9500"/>
</svg>
