<svg width="23" height="23" viewBox="0 0 23 23" fill="none" xmlns="http://www.w3.org/2000/svg">
<path d="M22.104 20.2233L17.7799 15.8992C19.0904 14.1836 19.8091 12.1027 19.8094 9.9069C19.8094 7.26074 18.7788 4.77279 16.9074 2.90169C15.0363 1.0306 12.5487 0 9.90218 0C7.25602 0 4.76807 1.0306 2.89697 2.90169C-0.965658 6.76465 -0.965658 13.0498 2.89697 16.9121C4.76807 18.7835 7.25602 19.8141 9.90218 19.8141C12.098 19.8138 14.1789 19.0951 15.8945 17.7846L20.2186 22.1087C20.4787 22.3691 20.8202 22.4993 21.1613 22.4993C21.5024 22.4993 21.8439 22.3691 22.104 22.1087C22.6248 21.5882 22.6248 20.7438 22.104 20.2233ZM4.78239 15.0267C1.95947 12.2038 1.9598 7.61035 4.78239 4.78711C6.1499 3.41992 7.96826 2.66667 9.90218 2.66667C11.8364 2.66667 13.6545 3.41992 15.022 4.78711C16.3895 6.15462 17.1427 7.97298 17.1427 9.9069C17.1427 11.8411 16.3895 13.6592 15.022 15.0267C13.6545 16.3942 11.8364 17.1475 9.90218 17.1475C7.96826 17.1475 6.1499 16.3942 4.78239 15.0267Z" fill="#FF9600"/>
</svg>
