<svg width="25" height="26" viewBox="0 0 25 26" fill="none" xmlns="http://www.w3.org/2000/svg">
<path d="M2.25 0.268555C1.65448 0.272486 1.08446 0.510801 0.663354 0.931909C0.242246 1.35302 0.00393098 1.92303 0 2.51855V22.7686C0.00393098 23.3641 0.242246 23.9341 0.663354 24.3552C1.08446 24.7763 1.65448 25.0146 2.25 25.0186H22.5C23.0955 25.0146 23.6655 24.7763 24.0866 24.3552C24.5078 23.9341 24.7461 23.3641 24.75 22.7686V2.51855C24.7461 1.92303 24.5078 1.35302 24.0866 0.931909C23.6655 0.510801 23.0955 0.272486 22.5 0.268555H2.25ZM2.25 2.51855H22.5V22.7686H16.663V15.1746H19.581L20.003 11.7996H16.664V9.61955C16.664 8.63655 16.905 7.96855 18.315 7.96855H20.143V4.90955C19.831 4.87055 18.75 4.80355 17.507 4.80355C14.914 4.80355 13.148 6.36355 13.148 9.26855V11.7996H10.195V15.1746H13.147V22.7686H2.25V2.51855Z" fill="#FF9400"/>
</svg>
