<svg width="149" height="64" viewBox="0 0 149 64" fill="none" xmlns="http://www.w3.org/2000/svg">
<path d="M139 0H10C4.47715 0 0 4.47715 0 10V54C0 59.5228 4.47715 64 10 64H139C144.523 64 149 59.5228 149 54V10C149 4.47715 144.523 0 139 0Z" fill="#0F2E5F"/>
<path d="M18.262 10.412H130.739C135.986 10.412 140.239 14.6653 140.239 19.912V44.912C140.239 50.1587 135.986 54.412 130.739 54.412H18.262C13.0153 54.412 8.76199 50.1587 8.76199 44.912V19.912C8.76199 14.6653 13.0153 10.412 18.262 10.412Z" fill="#0F2E5F" stroke="#ED6700"/>
<path d="M130.739 10.412H18.262C13.0153 10.412 8.76199 14.6653 8.76199 19.912V44.912C8.76199 50.1587 13.0153 54.412 18.262 54.412H130.739C135.986 54.412 140.239 50.1587 140.239 44.912V19.912C140.239 14.6653 135.986 10.412 130.739 10.412Z" fill="#0F2E5F" stroke="#ED6700"/>
<path d="M54.331 32.32C54.8596 32.4327 55.2843 32.697 55.605 33.113C55.9256 33.5203 56.086 33.9883 56.086 34.517C56.086 35.2797 55.8173 35.8863 55.28 36.337C54.7513 36.779 54.0103 37 53.057 37H48.806V27.874H52.914C53.8413 27.874 54.565 28.0863 55.085 28.511C55.6136 28.9357 55.878 29.512 55.878 30.24C55.878 30.7773 55.735 31.2237 55.449 31.579C55.1716 31.9343 54.799 32.1813 54.331 32.32ZM51.029 31.566H52.485C52.849 31.566 53.1263 31.488 53.317 31.332C53.5163 31.1673 53.616 30.929 53.616 30.617C53.616 30.305 53.5163 30.0667 53.317 29.902C53.1263 29.7373 52.849 29.655 52.485 29.655H51.029V31.566ZM52.667 35.206C53.0396 35.206 53.3256 35.1237 53.525 34.959C53.733 34.7857 53.837 34.5387 53.837 34.218C53.837 33.8973 53.7286 33.646 53.512 33.464C53.304 33.282 53.0136 33.191 52.641 33.191H51.029V35.206H52.667ZM59.5593 27.874V33.334C59.5593 33.88 59.6936 34.3003 59.9623 34.595C60.231 34.8897 60.6253 35.037 61.1453 35.037C61.6653 35.037 62.064 34.8897 62.3413 34.595C62.6186 34.3003 62.7573 33.88 62.7573 33.334V27.874H64.9803V33.321C64.9803 34.1357 64.807 34.8247 64.4603 35.388C64.1136 35.9513 63.6456 36.376 63.0563 36.662C62.4756 36.948 61.8256 37.091 61.1063 37.091C60.387 37.091 59.7413 36.9523 59.1693 36.675C58.606 36.389 58.1596 35.9643 57.8303 35.401C57.501 34.829 57.3363 34.1357 57.3363 33.321V27.874H59.5593ZM73.1063 27.874V29.655H70.6883V37H68.4653V29.655H66.0473V27.874H73.1063ZM80.787 27.874V29.655H78.369V37H76.146V29.655H73.728V27.874H80.787ZM86.2186 37.091C85.3606 37.091 84.572 36.8917 83.8526 36.493C83.142 36.0943 82.5743 35.5397 82.1496 34.829C81.7336 34.1097 81.5256 33.3037 81.5256 32.411C81.5256 31.5183 81.7336 30.7167 82.1496 30.006C82.5743 29.2953 83.142 28.7407 83.8526 28.342C84.572 27.9433 85.3606 27.744 86.2186 27.744C87.0766 27.744 87.861 27.9433 88.5716 28.342C89.291 28.7407 89.8543 29.2953 90.2616 30.006C90.6776 30.7167 90.8856 31.5183 90.8856 32.411C90.8856 33.3037 90.6776 34.1097 90.2616 34.829C89.8456 35.5397 89.2823 36.0943 88.5716 36.493C87.861 36.8917 87.0766 37.091 86.2186 37.091ZM86.2186 35.063C86.9466 35.063 87.5273 34.8203 87.9606 34.335C88.4026 33.8497 88.6236 33.2083 88.6236 32.411C88.6236 31.605 88.4026 30.9637 87.9606 30.487C87.5273 30.0017 86.9466 29.759 86.2186 29.759C85.482 29.759 84.8926 29.9973 84.4506 30.474C84.0173 30.9507 83.8006 31.5963 83.8006 32.411C83.8006 33.217 84.0173 33.8627 84.4506 34.348C84.8926 34.8247 85.482 35.063 86.2186 35.063ZM100.286 37H98.0634L94.3454 31.371V37H92.1224V27.874H94.3454L98.0634 33.529V27.874H100.286V37Z" fill="white"/>
</svg>
