<svg width="82" height="51" viewBox="0 0 82 51" fill="none" xmlns="http://www.w3.org/2000/svg">
<path d="M0 10C0 4.47715 4.47715 0 10 0H72C77.5228 0 82 4.47715 82 10V41C82 46.5228 77.5228 51 72 51H10C4.47715 51 0 46.5228 0 41V10Z" fill="#FF9600"/>
<path d="M47.3115 18.249C47.4873 18.0732 47.7258 17.9744 47.9744 17.9744C48.2231 17.9744 48.4615 18.0732 48.6373 18.249L55.7253 25.3372C55.9011 25.513 55.9999 25.7514 55.9999 26C55.9999 26.2486 55.9011 26.4871 55.7253 26.6629L48.6373 33.7511C48.5505 33.839 48.4471 33.9089 48.3331 33.9567C48.2191 34.0045 48.0968 34.0293 47.9732 34.0297C47.8496 34.0301 47.7272 34.006 47.6129 33.9589C47.4987 33.9118 47.3949 33.8425 47.3075 33.7551C47.2201 33.6677 47.1508 33.5639 47.1037 33.4497C47.0566 33.3354 47.0325 33.213 47.0329 33.0894C47.0333 32.9658 47.0581 32.8435 47.1059 32.7295C47.1537 32.6155 47.2236 32.5122 47.3115 32.4253L53.7367 26L47.3115 19.5748C47.1357 19.399 47.0369 19.1605 47.0369 18.9119C47.0369 18.6633 47.1357 18.4248 47.3115 18.249ZM34.963 33.0882C34.9632 32.965 34.939 32.8431 34.8919 32.7293C34.8448 32.6155 34.7756 32.5122 34.6884 32.4252L28.2633 26L34.6884 19.5748C34.8625 19.3986 34.9598 19.1607 34.959 18.913C34.9583 18.6654 34.8595 18.4281 34.6844 18.253C34.5093 18.0778 34.272 17.9791 34.0244 17.9784C33.7767 17.9776 33.5388 18.0749 33.3626 18.249L26.2745 25.3372C26.0988 25.513 26 25.7514 26 26C26 26.2486 26.0988 26.4871 26.2745 26.6629L33.3626 33.751C33.4937 33.8821 33.6608 33.9714 33.8426 34.0076C34.0245 34.0437 34.213 34.0252 34.3843 33.9542C34.5556 33.8833 34.702 33.7631 34.805 33.609C34.908 33.4548 34.963 33.2736 34.963 33.0882Z" fill="white"/>
</svg>
