<svg width="123" height="72" viewBox="0 0 149 64" fill="none" xmlns="http://www.w3.org/2000/svg">
<path d="M139 0H10C4.47715 0 0 4.47715 0 10V54C0 59.5228 4.47715 64 10 64H139C144.523 64 149 59.5228 149 54V10C149 4.47715 144.523 0 139 0Z" fill="#0F2E5F"/>
<path d="M18.262 10.412H130.739C135.986 10.412 140.239 14.6653 140.239 19.912V44.912C140.239 50.1587 135.986 54.412 130.739 54.412H18.262C13.0153 54.412 8.76199 50.1587 8.76199 44.912V19.912C8.76199 14.6653 13.0153 10.412 18.262 10.412Z" fill="#0F2E5F" stroke="#ED6700"/>
<path d="M130.739 10.412H18.262C13.0153 10.412 8.76199 14.6653 8.76199 19.912V44.912C8.76199 50.1587 13.0153 54.412 18.262 54.412H130.739C135.986 54.412 140.239 50.1587 140.239 44.912V19.912C140.239 14.6653 135.986 10.412 130.739 10.412Z" fill="#0F2E5F" stroke="#ED6700"/>
<path d="M54.122 37.091C53.264 37.091 52.4753 36.8917 51.756 36.493C51.0453 36.0943 50.4777 35.5397 50.053 34.829C49.637 34.1097 49.429 33.3037 49.429 32.411C49.429 31.5183 49.637 30.7167 50.053 30.006C50.4777 29.2953 51.0453 28.7407 51.756 28.342C52.4753 27.9433 53.264 27.744 54.122 27.744C54.98 27.744 55.7643 27.9433 56.475 28.342C57.1943 28.7407 57.7577 29.2953 58.165 30.006C58.581 30.7167 58.789 31.5183 58.789 32.411C58.789 33.3037 58.581 34.1097 58.165 34.829C57.749 35.5397 57.1857 36.0943 56.475 36.493C55.7643 36.8917 54.98 37.091 54.122 37.091ZM54.122 35.063C54.85 35.063 55.4307 34.8203 55.864 34.335C56.306 33.8497 56.527 33.2083 56.527 32.411C56.527 31.605 56.306 30.9637 55.864 30.487C55.4307 30.0017 54.85 29.759 54.122 29.759C53.3853 29.759 52.796 29.9973 52.354 30.474C51.9207 30.9507 51.704 31.5963 51.704 32.411C51.704 33.217 51.9207 33.8627 52.354 34.348C52.796 34.8247 53.3853 35.063 54.122 35.063ZM62.2097 27.874V33.334C62.2097 33.88 62.3441 34.3003 62.6127 34.595C62.8814 34.8897 63.2757 35.037 63.7957 35.037C64.3157 35.037 64.7144 34.8897 64.9917 34.595C65.2691 34.3003 65.4077 33.88 65.4077 33.334V27.874H67.6307V33.321C67.6307 34.1357 67.4574 34.8247 67.1107 35.388C66.7641 35.9513 66.2961 36.376 65.7067 36.662C65.1261 36.948 64.4761 37.091 63.7567 37.091C63.0374 37.091 62.3917 36.9523 61.8197 36.675C61.2564 36.389 60.8101 35.9643 60.4807 35.401C60.1514 34.829 59.9867 34.1357 59.9867 33.321V27.874H62.2097ZM75.7567 27.874V29.655H73.3387V37H71.1157V29.655H68.6977V27.874H75.7567ZM79.0954 35.284H82.0074V37H76.8724V27.874H79.0954V35.284ZM85.2907 27.874V37H83.0677V27.874H85.2907ZM95.0657 37H92.8427L89.1247 31.371V37H86.9017V27.874H89.1247L92.8427 33.529V27.874H95.0657V37ZM98.9001 29.655V31.501H101.877V33.217H98.9001V35.219H102.267V37H96.6771V27.874H102.267V29.655H98.9001Z" fill="white"/>
</svg>