<svg width="123" height="72" viewBox="0 0 149 64" fill="none" xmlns="http://www.w3.org/2000/svg">
<path d="M139 0H10C4.47715 0 0 4.47715 0 10V54C0 59.5228 4.47715 64 10 64H139C144.523 64 149 59.5228 149 54V10C149 4.47715 144.523 0 139 0Z" fill="#0F2E5F"/>
<path d="M130.739 9.91199H18.262C12.7391 9.91199 8.26199 14.3891 8.26199 19.912V44.912C8.26199 50.4348 12.7391 54.912 18.262 54.912H130.739C136.262 54.912 140.739 50.4348 140.739 44.912V19.912C140.739 14.3891 136.262 9.91199 130.739 9.91199Z" fill="#DD6F00"/>
<path d="M130.739 10.412H18.262C13.0153 10.412 8.76199 14.6653 8.76199 19.912V44.912C8.76199 50.1587 13.0153 54.412 18.262 54.412H130.739C135.986 54.412 140.239 50.1587 140.239 44.912V19.912C140.239 14.6653 135.986 10.412 130.739 10.412Z" fill="#DD6F00" stroke="#ED6700"/>
<path d="M60.747 27.874V29.655H57.029V31.579H59.811V33.308H57.029V37H54.806V27.874H60.747ZM64.1384 27.874V37H61.9154V27.874H64.1384ZM67.9724 35.284H70.8844V37H65.7494V27.874H67.9724V35.284ZM74.1677 35.284H77.0797V37H71.9447V27.874H74.1677V35.284ZM80.363 29.655V31.501H83.34V33.217H80.363V35.219H83.73V37H78.14V27.874H83.73V29.655H80.363ZM88.5922 27.874C89.5542 27.874 90.3949 28.0647 91.1142 28.446C91.8335 28.8273 92.3882 29.3647 92.7782 30.058C93.1769 30.7427 93.3762 31.5357 93.3762 32.437C93.3762 33.3297 93.1769 34.1227 92.7782 34.816C92.3882 35.5093 91.8292 36.0467 91.1012 36.428C90.3819 36.8093 89.5455 37 88.5922 37H85.1732V27.874H88.5922ZM88.4492 35.076C89.2899 35.076 89.9442 34.8463 90.4122 34.387C90.8802 33.9277 91.1142 33.2777 91.1142 32.437C91.1142 31.5963 90.8802 30.942 90.4122 30.474C89.9442 30.006 89.2899 29.772 88.4492 29.772H87.3962V35.076H88.4492Z" fill="white"/>
</svg>