<svg width="40" height="40" viewBox="0 0 40 40" fill="none" xmlns="http://www.w3.org/2000/svg">
<path d="M20 11.8889C19.944 11.8889 19.889 11.8959 19.833 11.8969V0.00391785C19.889 0.00391785 19.944 0.00391785 20 0.00391785C25.1415 -0.00162583 30.086 1.98049 33.8 5.5359L25.386 13.9499C23.9058 12.6231 21.9879 11.8892 20 11.8889Z" fill="#7B1FA1"/>
<path d="M28.0928 20.3317C28.0928 20.2207 28.1098 20.1107 28.1098 19.9987C28.11 18.8544 27.8673 17.723 27.3975 16.6795C26.9277 15.636 26.2417 14.7042 25.3848 13.9458L33.7988 5.53174C35.7599 7.39615 37.321 9.64031 38.3869 12.1275C39.4528 14.6147 40.0013 17.2928 39.9988 19.9987C39.9988 20.1107 39.9918 20.2207 39.9908 20.3317H28.0928Z" fill="#F34336"/>
<path d="M20 39.9992C19.944 39.9992 19.889 39.9992 19.833 39.9992V28.1022C19.889 28.1022 19.943 28.1102 20 28.1102C21.1042 28.1104 22.1966 27.8839 23.2097 27.4445C24.2227 27.0052 25.1346 26.3625 25.889 25.5562L34.301 33.9682C32.442 35.8791 30.2184 37.3976 27.7619 38.4335C25.3054 39.4695 22.666 40.0019 20 39.9992Z" fill="#FEEA3B"/>
<path d="M25.8892 25.556C27.2287 24.1375 28.0101 22.2824 28.0892 20.333H39.9892C39.9087 25.4394 37.8712 30.3201 34.2971 33.968L25.8892 25.556Z" fill="#FE9700"/>
<path d="M11.888 19.9997C11.888 20.1127 11.9 20.2217 11.905 20.3327H0.00800827C0.00800827 20.2217 8.27345e-06 20.1107 8.27345e-06 19.9997C-0.00242069 17.334 0.530004 14.6949 1.56576 12.2386C2.60152 9.78231 4.11956 7.55881 6.03001 5.69971L14.442 14.1107C13.6359 14.8653 12.9934 15.7773 12.5541 16.7903C12.1147 17.8032 11.888 18.8956 11.888 19.9997Z" fill="#03A8F3"/>
<path d="M6.02979 5.69495C9.71865 2.08129 14.666 0.0403382 19.8298 0.00195312V11.8949C17.8203 11.9358 15.8983 12.7241 14.4388 14.1059L6.02979 5.69495Z" fill="#3F51B4"/>
<path d="M19.8332 28.1009V39.9939C17.1553 39.9742 14.5089 39.4151 12.052 38.3498C9.59501 37.2846 7.37795 35.7351 5.5332 33.7939L13.9512 25.3809C14.6904 26.2161 15.5948 26.8891 16.6072 27.3572C17.6196 27.8254 18.718 28.0786 19.8332 28.1009Z" fill="#8AC24A"/>
<path d="M13.9498 25.382L5.53481 33.797C2.06053 30.1666 0.0863559 25.3574 0.0078125 20.333H11.8998C11.9771 22.2028 12.7017 23.9876 13.9498 25.382Z" fill="#009587"/>
</svg>
