<svg width="154" height="49" viewBox="0 0 154 49" fill="none" xmlns="http://www.w3.org/2000/svg">
<path d="M10 0.5H144C146.52 0.5 148.936 1.50089 150.718 3.28249C152.499 5.06408 153.5 7.48044 153.5 10V48.5H0.5V10C0.5 7.48044 1.50089 5.06408 3.28249 3.28249C5.06408 1.50089 7.48044 0.5 10 0.5Z" stroke="#102C5F"/>
<path d="M53.292 20.454C57.414 20.454 59.952 22.866 59.952 26.754C59.952 30.642 57.414 33 53.292 33H49.386V20.454H53.292ZM51.024 31.65H53.292C56.568 31.65 58.278 29.814 58.278 26.754C58.278 23.694 56.568 21.786 53.292 21.786H51.024V31.65ZM66.3066 24.36C64.7046 24.36 63.3726 25.422 63.1926 27.348H69.4206C69.4386 25.422 67.9986 24.36 66.3066 24.36ZM70.9146 29.958C70.4106 31.758 68.8266 33.162 66.3786 33.162C63.5706 33.162 61.5006 31.182 61.5006 28.05C61.5006 24.936 63.4986 22.974 66.3786 22.974C69.2406 22.974 71.1126 24.99 71.1126 27.69C71.1126 28.05 71.0946 28.338 71.0586 28.68H63.1746C63.3006 30.678 64.7046 31.776 66.3786 31.776C67.8546 31.776 68.7906 31.02 69.1506 29.958H70.9146ZM80.3667 30.318C80.3667 31.938 78.9447 33.162 76.7667 33.162C74.4627 33.162 72.8427 31.902 72.7347 30.102H74.4267C74.5167 31.056 75.3627 31.776 76.7487 31.776C78.0447 31.776 78.7647 31.128 78.7647 30.318C78.7647 28.122 72.9327 29.4 72.9327 25.728C72.9327 24.216 74.3547 22.974 76.5507 22.974C78.7287 22.974 80.1687 24.144 80.2767 26.07H78.6387C78.5667 25.08 77.8107 24.36 76.4967 24.36C75.2907 24.36 74.5707 24.936 74.5707 25.728C74.5707 28.068 80.2947 26.79 80.3667 30.318ZM82.679 33V23.136H84.317V33H82.679ZM83.525 21.534C82.895 21.534 82.409 21.048 82.409 20.418C82.409 19.788 82.895 19.302 83.525 19.302C84.119 19.302 84.605 19.788 84.605 20.418C84.605 21.048 84.119 21.534 83.525 21.534ZM86.4967 28.032C86.4967 24.954 88.5307 22.974 91.1767 22.974C92.9767 22.974 94.2727 23.874 94.8487 24.936V23.136H96.5047V33.216C96.5047 35.934 94.6867 37.86 91.7887 37.86C89.1967 37.86 87.3427 36.546 87.0187 34.44H88.6387C88.9987 35.628 90.1687 36.438 91.7887 36.438C93.5347 36.438 94.8487 35.322 94.8487 33.216V31.146C94.2547 32.208 92.9767 33.162 91.1767 33.162C88.5307 33.162 86.4967 31.092 86.4967 28.032ZM94.8487 28.05C94.8487 25.764 93.3007 24.396 91.5007 24.396C89.7007 24.396 88.1707 25.71 88.1707 28.032C88.1707 30.354 89.7007 31.722 91.5007 31.722C93.3007 31.722 94.8487 30.372 94.8487 28.05ZM106.491 33V27.42C106.491 25.404 105.393 24.378 103.737 24.378C102.063 24.378 100.911 25.422 100.911 27.546V33H99.2727V23.136H100.911V24.54C101.559 23.514 102.747 22.956 104.079 22.956C106.365 22.956 108.111 24.36 108.111 27.186V33H106.491Z" fill="white"/>
</svg>
