<svg width="154" height="49" viewBox="0 0 154 49" fill="none" xmlns="http://www.w3.org/2000/svg">
<path d="M10 0.5H144C146.52 0.5 148.936 1.50089 150.718 3.28249C152.499 5.06408 153.5 7.48044 153.5 10V48.5H0.5V10C0.5 7.48044 1.50089 5.06408 3.28249 3.28249C5.06408 1.50089 7.48044 0.5 10 0.5Z" stroke="#0F2E5F"/>
<path d="M50.574 19.81C53.22 19.81 55.416 21.178 56.352 23.59H54.39C53.706 22.132 52.338 21.286 50.574 21.286C47.928 21.286 45.948 23.194 45.948 26.218C45.948 29.224 47.928 31.132 50.574 31.132C53.04 31.132 54.732 29.548 54.984 27.064H49.98V25.732H56.73V26.992C56.442 30.106 53.976 32.608 50.574 32.608C47.046 32.608 44.274 29.98 44.274 26.218C44.274 22.456 47.046 19.81 50.574 19.81ZM63.0898 23.86C61.4878 23.86 60.1558 24.922 59.9758 26.848H66.2038C66.2218 24.922 64.7818 23.86 63.0898 23.86ZM67.6978 29.458C67.1938 31.258 65.6098 32.662 63.1618 32.662C60.3538 32.662 58.2838 30.682 58.2838 27.55C58.2838 24.436 60.2818 22.474 63.1618 22.474C66.0238 22.474 67.8958 24.49 67.8958 27.19C67.8958 27.55 67.8778 27.838 67.8418 28.18H59.9578C60.0838 30.178 61.4878 31.276 63.1618 31.276C64.6378 31.276 65.5738 30.52 65.9338 29.458H67.6978ZM77.2759 32.5V26.92C77.2759 24.904 76.1779 23.878 74.5219 23.878C72.8479 23.878 71.6959 24.922 71.6959 27.046V32.5H70.0579V22.636H71.6959V24.04C72.3439 23.014 73.5319 22.456 74.8639 22.456C77.1499 22.456 78.8959 23.86 78.8959 26.686V32.5H77.2759ZM85.7655 23.86C84.1635 23.86 82.8315 24.922 82.6515 26.848H88.8795C88.8975 24.922 87.4575 23.86 85.7655 23.86ZM90.3735 29.458C89.8695 31.258 88.2855 32.662 85.8375 32.662C83.0295 32.662 80.9595 30.682 80.9595 27.55C80.9595 24.436 82.9575 22.474 85.8375 22.474C88.6995 22.474 90.5715 24.49 90.5715 27.19C90.5715 27.55 90.5535 27.838 90.5175 28.18H82.6335C82.7595 30.178 84.1635 31.276 85.8375 31.276C87.3135 31.276 88.2495 30.52 88.6095 29.458H90.3735ZM94.3717 27.136V32.5H92.7337V22.636H94.3717V24.238C94.9297 23.14 95.9917 22.456 97.5577 22.456V24.148H97.1257C95.5597 24.148 94.3717 24.85 94.3717 27.136ZM98.8365 27.532C98.8365 24.454 100.871 22.474 103.517 22.474C105.353 22.474 106.613 23.41 107.189 24.436V22.636H108.845V32.5H107.189V30.664C106.595 31.726 105.317 32.662 103.499 32.662C100.871 32.662 98.8365 30.592 98.8365 27.532ZM107.189 27.55C107.189 25.264 105.641 23.896 103.841 23.896C102.041 23.896 100.511 25.21 100.511 27.532C100.511 29.854 102.041 31.222 103.841 31.222C105.641 31.222 107.189 29.872 107.189 27.55ZM111.613 32.5V19.18H113.251V32.5H111.613Z" fill="white"/>
</svg>
