<svg width="82" height="51" viewBox="0 0 82 51" fill="none" xmlns="http://www.w3.org/2000/svg">
<path d="M0 10C0 4.47715 4.47715 0 10 0H72C77.5228 0 82 4.47715 82 10V41C82 46.5228 77.5228 51 72 51H10C4.47715 51 0 46.5228 0 41V10Z" fill="#FF9600"/>
<path d="M47.5998 18.2004C43.6274 18.2004 40.9986 21.4483 38.6793 24.3144C36.6978 26.7628 34.8267 29.0748 32.5477 29.0748C30.1789 29.0748 28.7245 26.6402 28.7245 24.8948C28.7245 23.2766 30.32 20.9249 32.8206 20.9249C35.247 20.9249 36.5111 22.8669 36.5748 22.9664C36.9679 23.6026 37.8026 23.8028 38.4419 23.4128C39.0844 23.0214 39.2879 22.1832 38.8963 21.5407C38.8132 21.4047 36.8149 18.2006 32.8206 18.2006C28.8012 18.2006 26 21.729 26 24.895C26 28.1607 28.689 31.7994 32.5475 31.7994C36.126 31.7994 38.5008 28.8656 40.7969 26.0282C42.921 23.4042 44.9275 20.9251 47.5998 20.9251C49.1897 20.9251 50.2344 21.4645 50.7928 22.5728C51.2767 23.5345 51.2763 24.6229 51.2759 24.9999C51.2759 25.2161 51.1617 26.3006 50.6327 27.2771C50.0295 28.3894 49.1733 28.9072 47.9358 28.9072C45.444 28.9072 44.0977 27.2875 43.5907 26.6774C43.4589 26.5186 43.3641 26.4044 43.2373 26.2959C42.6666 25.807 41.8062 25.8726 41.3164 26.4441C40.8441 26.9952 40.8895 27.8146 41.4055 28.3106C41.4301 28.3385 41.4597 28.3753 41.4949 28.4179C42.1557 29.2131 44.1648 31.6313 47.9353 31.6313C52.5178 31.6313 53.9998 27.163 53.9998 24.9813C54.0002 23.5918 53.74 22.3694 53.2255 21.3474C52.5033 19.9122 50.9406 18.2004 47.5998 18.2004Z" fill="white"/>
</svg>
