<svg width="82" height="51" viewBox="0 0 82 51" fill="none" xmlns="http://www.w3.org/2000/svg">
<path d="M0 10C0 4.47715 4.47715 0 10 0H72C77.5228 0 82 4.47715 82 10V41C82 46.5228 77.5228 51 72 51H10C4.47715 51 0 46.5228 0 41V10Z" fill="white"/>
<path d="M48.5998 19.2004C44.6274 19.2004 41.9986 22.4483 39.6793 25.3144C37.6978 27.7628 35.8267 30.0748 33.5477 30.0748C31.1789 30.0748 29.7245 27.6402 29.7245 25.8948C29.7245 24.2766 31.32 21.9249 33.8206 21.9249C36.247 21.9249 37.5111 23.8669 37.5748 23.9664C37.9679 24.6026 38.8026 24.8028 39.4419 24.4128C40.0844 24.0214 40.2879 23.1832 39.8963 22.5407C39.8132 22.4047 37.8149 19.2006 33.8206 19.2006C29.8012 19.2006 27 22.729 27 25.895C27 29.1607 29.689 32.7994 33.5475 32.7994C37.126 32.7994 39.5008 29.8656 41.7969 27.0282C43.921 24.4042 45.9275 21.9251 48.5998 21.9251C50.1897 21.9251 51.2344 22.4645 51.7928 23.5728C52.2767 24.5345 52.2763 25.6229 52.2759 25.9999C52.2759 26.2161 52.1617 27.3006 51.6327 28.2771C51.0295 29.3894 50.1733 29.9072 48.9358 29.9072C46.444 29.9072 45.0977 28.2875 44.5907 27.6774C44.4589 27.5186 44.3641 27.4044 44.2373 27.2959C43.6666 26.807 42.8062 26.8726 42.3164 27.4441C41.8441 27.9952 41.8895 28.8146 42.4055 29.3106C42.4301 29.3385 42.4597 29.3753 42.4949 29.4179C43.1557 30.2131 45.1648 32.6313 48.9353 32.6313C53.5178 32.6313 54.9998 28.163 54.9998 25.9813C55.0002 24.5918 54.74 23.3694 54.2255 22.3474C53.5033 20.9122 51.9406 19.2004 48.5998 19.2004Z" fill="#001644"/>
</svg>
