<svg width="149" height="153" viewBox="0 0 149 153" fill="none" xmlns="http://www.w3.org/2000/svg">
<path d="M139 0H10C4.47715 0 0 4.47715 0 10V143C0 148.523 4.47715 153 10 153H139C144.523 153 149 148.523 149 143V10C149 4.47715 144.523 0 139 0Z" fill="#FF9500"/>
<path d="M135 99H81V102H135V99Z" fill="white"/>
<path d="M135 24H15V27H135V24Z" fill="white"/>
<path d="M135 89H15V92H135V89Z" fill="white"/>
<path d="M135 126H15V129H135V126Z" fill="white"/>
<path d="M135 105H81V108H135V105Z" fill="white"/>
<path d="M135 29H15V32H135V29Z" fill="white"/>
<path d="M135 94H15V97H135V94Z" fill="white"/>
<path d="M135 110H81V113H135V110Z" fill="white"/>
<path d="M135 115H81V118H135V115Z" fill="white"/>
<path d="M135 121H81V124H135V121Z" fill="white"/>
<path d="M135 35H15V87H135V35Z" fill="white"/>
<path d="M78 99H15V124H78V99Z" fill="white"/>
<path d="M42.688 61.416C42.688 60.328 42.9333 59.352 43.424 58.488C43.9147 57.6133 44.5813 56.9307 45.424 56.44C46.2773 55.9493 47.2213 55.704 48.256 55.704C49.472 55.704 50.5333 55.9973 51.44 56.584C52.3467 57.1707 53.008 58.0027 53.424 59.08H51.68C51.3707 58.408 50.9227 57.8907 50.336 57.528C49.76 57.1653 49.0667 56.984 48.256 56.984C47.4773 56.984 46.7787 57.1653 46.16 57.528C45.5413 57.8907 45.056 58.408 44.704 59.08C44.352 59.7413 44.176 60.52 44.176 61.416C44.176 62.3013 44.352 63.08 44.704 63.752C45.056 64.4133 45.5413 64.9253 46.16 65.288C46.7787 65.6507 47.4773 65.832 48.256 65.832C49.0667 65.832 49.76 65.656 50.336 65.304C50.9227 64.9413 51.3707 64.424 51.68 63.752H53.424C53.008 64.8187 52.3467 65.6453 51.44 66.232C50.5333 66.808 49.472 67.096 48.256 67.096C47.2213 67.096 46.2773 66.856 45.424 66.376C44.5813 65.8853 43.9147 65.208 43.424 64.344C42.9333 63.48 42.688 62.504 42.688 61.416ZM63.3674 58.232V67H61.9114V65.704C61.634 66.152 61.2447 66.504 60.7434 66.76C60.2527 67.0053 59.7087 67.128 59.1114 67.128C58.4287 67.128 57.8154 66.9893 57.2714 66.712C56.7274 66.424 56.2954 65.9973 55.9754 65.432C55.666 64.8667 55.5114 64.1787 55.5114 63.368V58.232H56.9514V63.176C56.9514 64.04 57.17 64.7067 57.6074 65.176C58.0447 65.6347 58.642 65.864 59.3994 65.864C60.178 65.864 60.7914 65.624 61.2394 65.144C61.6874 64.664 61.9114 63.9653 61.9114 63.048V58.232H63.3674ZM68.9298 67.144C68.2578 67.144 67.6551 67.032 67.1218 66.808C66.5884 66.5733 66.1671 66.2533 65.8578 65.848C65.5484 65.432 65.3778 64.9573 65.3458 64.424H66.8498C66.8924 64.8613 67.0951 65.2187 67.4578 65.496C67.8311 65.7733 68.3164 65.912 68.9138 65.912C69.4684 65.912 69.9058 65.7893 70.2258 65.544C70.5458 65.2987 70.7058 64.9893 70.7058 64.616C70.7058 64.232 70.5351 63.9493 70.1938 63.768C69.8524 63.576 69.3244 63.3893 68.6098 63.208C67.9591 63.0373 67.4258 62.8667 67.0098 62.696C66.6044 62.5147 66.2524 62.2533 65.9538 61.912C65.6658 61.56 65.5218 61.1013 65.5218 60.536C65.5218 60.088 65.6551 59.6773 65.9218 59.304C66.1884 58.9307 66.5671 58.6373 67.0578 58.424C67.5484 58.2 68.1084 58.088 68.7378 58.088C69.7084 58.088 70.4924 58.3333 71.0898 58.824C71.6871 59.3147 72.0071 59.9867 72.0498 60.84H70.5938C70.5618 60.3813 70.3751 60.0133 70.0338 59.736C69.7031 59.4587 69.2551 59.32 68.6898 59.32C68.1671 59.32 67.7511 59.432 67.4418 59.656C67.1324 59.88 66.9778 60.1733 66.9778 60.536C66.9778 60.824 67.0684 61.064 67.2498 61.256C67.4418 61.4373 67.6764 61.5867 67.9538 61.704C68.2418 61.8107 68.6364 61.9333 69.1378 62.072C69.7671 62.2427 70.2791 62.4133 70.6738 62.584C71.0684 62.744 71.4044 62.9893 71.6818 63.32C71.9698 63.6507 72.1191 64.0827 72.1298 64.616C72.1298 65.096 71.9964 65.528 71.7298 65.912C71.4631 66.296 71.0844 66.6 70.5938 66.824C70.1138 67.0373 69.5591 67.144 68.9298 67.144ZM75.9611 59.432V64.6C75.9611 65.0267 76.0518 65.3307 76.2331 65.512C76.4145 65.6827 76.7291 65.768 77.1771 65.768H78.2491V67H76.9371C76.1265 67 75.5185 66.8133 75.1131 66.44C74.7078 66.0667 74.5051 65.4533 74.5051 64.6V59.432H73.3691V58.232H74.5051V56.024H75.9611V58.232H78.2491V59.432H75.9611ZM83.8373 67.144C83.0159 67.144 82.2693 66.9573 81.5973 66.584C80.9359 66.2107 80.4133 65.6827 80.0293 65C79.6559 64.3067 79.4693 63.5067 79.4693 62.6C79.4693 61.704 79.6613 60.9147 80.0453 60.232C80.4399 59.5387 80.9733 59.0107 81.6453 58.648C82.3173 58.2747 83.0693 58.088 83.9013 58.088C84.7333 58.088 85.4853 58.2747 86.1573 58.648C86.8293 59.0107 87.3573 59.5333 87.7413 60.216C88.1359 60.8987 88.3333 61.6933 88.3333 62.6C88.3333 63.5067 88.1306 64.3067 87.7253 65C87.3306 65.6827 86.7919 66.2107 86.1093 66.584C85.4266 66.9573 84.6693 67.144 83.8373 67.144ZM83.8373 65.864C84.3599 65.864 84.8506 65.7413 85.3093 65.496C85.7679 65.2507 86.1359 64.8827 86.4133 64.392C86.7013 63.9013 86.8453 63.304 86.8453 62.6C86.8453 61.896 86.7066 61.2987 86.4293 60.808C86.1519 60.3173 85.7893 59.9547 85.3413 59.72C84.8933 59.4747 84.4079 59.352 83.8853 59.352C83.3519 59.352 82.8613 59.4747 82.4133 59.72C81.9759 59.9547 81.6239 60.3173 81.3573 60.808C81.0906 61.2987 80.9573 61.896 80.9573 62.6C80.9573 63.3147 81.0853 63.9173 81.3413 64.408C81.6079 64.8987 81.9599 65.2667 82.3973 65.512C82.8346 65.7467 83.3146 65.864 83.8373 65.864ZM100.792 58.072C101.474 58.072 102.082 58.216 102.616 58.504C103.149 58.7813 103.57 59.2027 103.88 59.768C104.189 60.3333 104.344 61.0213 104.344 61.832V67H102.904V62.04C102.904 61.1653 102.685 60.4987 102.248 60.04C101.821 59.5707 101.24 59.336 100.504 59.336C99.7463 59.336 99.1436 59.5813 98.6956 60.072C98.2476 60.552 98.0236 61.2507 98.0236 62.168V67H96.5836V62.04C96.5836 61.1653 96.365 60.4987 95.9276 60.04C95.501 59.5707 94.9196 59.336 94.1836 59.336C93.4263 59.336 92.8236 59.5813 92.3756 60.072C91.9276 60.552 91.7036 61.2507 91.7036 62.168V67H90.2476V58.232H91.7036V59.496C91.9916 59.0373 92.3756 58.6853 92.8556 58.44C93.3463 58.1947 93.885 58.072 94.4716 58.072C95.2076 58.072 95.8583 58.2373 96.4236 58.568C96.989 58.8987 97.4103 59.384 97.6876 60.024C97.933 59.4053 98.3383 58.9253 98.9036 58.584C99.469 58.2427 100.098 58.072 100.792 58.072Z" fill="#0F2E5F"/>
</svg>
