<svg width="149" height="153" viewBox="0 0 149 153" fill="none" xmlns="http://www.w3.org/2000/svg">
<path d="M139 0H10C4.47715 0 0 4.47715 0 10V143C0 148.523 4.47715 153 10 153H139C144.523 153 149 148.523 149 143V10C149 4.47715 144.523 0 139 0Z" fill="#0F2E5F"/>
<path d="M54 99H21V102H54V99Z" fill="#2C517E"/>
<path d="M94 24H21V27H94V24Z" fill="#2C517E"/>
<path d="M94 89H21V92H94V89Z" fill="#2C517E"/>
<path d="M94 126H21V129H94V126Z" fill="#2C517E"/>
<path d="M54 105H21V108H54V105Z" fill="#2C517E"/>
<path d="M94 29H21V32H94V29Z" fill="#2C517E"/>
<path d="M94 94H21V97H94V94Z" fill="#2C517E"/>
<path d="M54 110H21V113H54V110Z" fill="#2C517E"/>
<path d="M54 115H21V118H54V115Z" fill="#2C517E"/>
<path d="M54 121H21V124H54V121Z" fill="#2C517E"/>
<path d="M94 35H21V87H94V35Z" fill="#5F7EA8"/>
<path d="M129 24H97V129H129V24Z" fill="#001B44"/>
<path d="M94 99H55V124H94V99Z" fill="#597EAC"/>
</svg>
