<svg width="149" height="153" viewBox="0 0 149 153" fill="none" xmlns="http://www.w3.org/2000/svg">
<path d="M139 0H10C4.47715 0 0 4.47715 0 10V143C0 148.523 4.47715 153 10 153H139C144.523 153 149 148.523 149 143V10C149 4.47715 144.523 0 139 0Z" fill="#0F2E5F"/>
<path d="M111 99H78V102H111V99Z" fill="#2C517E"/>
<path d="M111 24H38V27H111V24Z" fill="#2C517E"/>
<path d="M111 89H38V92H111V89Z" fill="#2C517E"/>
<path d="M111 126H38V129H111V126Z" fill="#2C517E"/>
<path d="M111 105H78V108H111V105Z" fill="#2C517E"/>
<path d="M111 29H38V32H111V29Z" fill="#2C517E"/>
<path d="M111 94H38V97H111V94Z" fill="#2C517E"/>
<path d="M111 110H78V113H111V110Z" fill="#2C517E"/>
<path d="M111 115H78V118H111V115Z" fill="#2C517E"/>
<path d="M111 121H78V124H111V121Z" fill="#2C517E"/>
<path d="M111 35H38V87H111V35Z" fill="#5F7EA8"/>
<path d="M77 99H38V124H77V99Z" fill="#597EAC"/>
</svg>
