<svg width="149" height="153" viewBox="0 0 149 153" fill="none" xmlns="http://www.w3.org/2000/svg">
<path d="M139 0H10C4.47715 0 0 4.47715 0 10V143C0 148.523 4.47715 153 10 153H139C144.523 153 149 148.523 149 143V10C149 4.47715 144.523 0 139 0Z" fill="#0F2E5F"/>
<path d="M135 99H81V102H135V99Z" fill="#2C517E"/>
<path d="M135 24H15V27H135V24Z" fill="#2C517E"/>
<path d="M135 89H15V92H135V89Z" fill="#2C517E"/>
<path d="M135 126H15V129H135V126Z" fill="#2C517E"/>
<path d="M135 105H81V108H135V105Z" fill="#2C517E"/>
<path d="M135 29H15V32H135V29Z" fill="#2C517E"/>
<path d="M135 94H15V97H135V94Z" fill="#2C517E"/>
<path d="M135 110H81V113H135V110Z" fill="#2C517E"/>
<path d="M135 115H81V118H135V115Z" fill="#2C517E"/>
<path d="M135 121H81V124H135V121Z" fill="#2C517E"/>
<path d="M135 35H15V87H135V35Z" fill="#5F7EA8"/>
<path d="M78 99H15V124H78V99Z" fill="#597EAC"/>
<path d="M42.688 61.416C42.688 64.76 45.136 67.096 48.256 67.096C50.672 67.096 52.592 65.896 53.424 63.752H51.68C51.072 65.08 49.888 65.832 48.256 65.832C45.92 65.832 44.176 64.136 44.176 61.416C44.176 58.68 45.92 56.984 48.256 56.984C49.888 56.984 51.072 57.736 51.68 59.08H53.424C52.592 56.92 50.672 55.704 48.256 55.704C45.136 55.704 42.688 58.072 42.688 61.416ZM63.3674 58.232H61.9114V63.048C61.9114 64.936 60.9034 65.864 59.3994 65.864C57.9274 65.864 56.9514 64.952 56.9514 63.176V58.232H55.5114V63.368C55.5114 65.88 57.0954 67.128 59.1114 67.128C60.2794 67.128 61.3514 66.616 61.9114 65.704V67H63.3674V58.232ZM72.1298 64.616C72.0658 61.48 66.9778 62.616 66.9778 60.536C66.9778 59.832 67.6178 59.32 68.6898 59.32C69.8578 59.32 70.5298 59.96 70.5938 60.84H72.0498C71.9538 59.128 70.6738 58.088 68.7378 58.088C66.7858 58.088 65.5218 59.192 65.5218 60.536C65.5218 63.8 70.7058 62.664 70.7058 64.616C70.7058 65.336 70.0658 65.912 68.9138 65.912C67.6818 65.912 66.9298 65.272 66.8498 64.424H65.3458C65.4418 66.024 66.8818 67.144 68.9298 67.144C70.8658 67.144 72.1298 66.056 72.1298 64.616ZM74.5051 64.6C74.5051 66.36 75.3851 67 76.9371 67H78.2491V65.768H77.1771C76.2811 65.768 75.9611 65.464 75.9611 64.6V59.432H78.2491V58.232H75.9611V56.024H74.5051V58.232H73.3691V59.432H74.5051V64.6ZM88.3333 62.6C88.3333 59.832 86.3973 58.088 83.9013 58.088C81.4213 58.088 79.4693 59.832 79.4693 62.6C79.4693 65.384 81.3573 67.144 83.8373 67.144C86.3333 67.144 88.3333 65.384 88.3333 62.6ZM80.9573 62.6C80.9573 60.392 82.3493 59.352 83.8853 59.352C85.3893 59.352 86.8453 60.392 86.8453 62.6C86.8453 64.824 85.3573 65.864 83.8373 65.864C82.3173 65.864 80.9573 64.824 80.9573 62.6ZM102.904 67H104.344V61.832C104.344 59.32 102.792 58.072 100.792 58.072C99.4476 58.072 98.1996 58.76 97.6876 60.024C97.1116 58.712 95.9116 58.072 94.4716 58.072C93.3196 58.072 92.2796 58.568 91.7036 59.496V58.232H90.2476V67H91.7036V62.168C91.7036 60.28 92.7116 59.336 94.1836 59.336C95.6236 59.336 96.5836 60.248 96.5836 62.04V67H98.0236V62.168C98.0236 60.28 99.0316 59.336 100.504 59.336C101.944 59.336 102.904 60.248 102.904 62.04V67Z" fill="white"/>
</svg>
