<svg width="319" height="153" viewBox="0 0 319 153" fill="none" xmlns="http://www.w3.org/2000/svg">
<path d="M309 0H10C4.47715 0 0 4.47715 0 10V143C0 148.523 4.47715 153 10 153H309C314.523 153 319 148.523 319 143V10C319 4.47715 314.523 0 309 0Z" fill="#0F2E5F"/>
<path d="M220 99H166V102H220V99Z" fill="#2C517E"/>
<path d="M220 24H100V27H220V24Z" fill="#2C517E"/>
<path d="M220 89H100V92H220V89Z" fill="#2C517E"/>
<path d="M220 126H100V129H220V126Z" fill="#2C517E"/>
<path d="M220 105H166V108H220V105Z" fill="#2C517E"/>
<path d="M220 29H100V32H220V29Z" fill="#2C517E"/>
<path d="M220 94H100V97H220V94Z" fill="#2C517E"/>
<path d="M220 110H166V113H220V110Z" fill="#2C517E"/>
<path d="M220 115H166V118H220V115Z" fill="#2C517E"/>
<path d="M220 121H166V124H220V121Z" fill="#2C517E"/>
<path d="M220 35H100V87H220V35Z" fill="#5F7EA8"/>
<path d="M163 99H100V124H163V99Z" fill="#597EAC"/>
</svg>
