<svg width="149" height="153" viewBox="0 0 149 153" fill="none" xmlns="http://www.w3.org/2000/svg">
<path d="M139 0H10C4.47715 0 0 4.47715 0 10V143C0 148.523 4.47715 153 10 153H139C144.523 153 149 148.523 149 143V10C149 4.47715 144.523 0 139 0Z" fill="#0F2E5F"/>
<path d="M36.8292 64.75C36.8292 63.72 37.0592 62.8 37.5192 61.99C37.9892 61.17 38.6242 60.535 39.4242 60.085C40.2342 59.625 41.1392 59.395 42.1392 59.395C43.3092 59.395 44.3342 59.695 45.2142 60.295C46.0942 60.895 46.7092 61.725 47.0592 62.785H44.6442C44.4042 62.285 44.0642 61.91 43.6242 61.66C43.1942 61.41 42.6942 61.285 42.1242 61.285C41.5142 61.285 40.9692 61.43 40.4892 61.72C40.0192 62 39.6492 62.4 39.3792 62.92C39.1192 63.44 38.9892 64.05 38.9892 64.75C38.9892 65.44 39.1192 66.05 39.3792 66.58C39.6492 67.1 40.0192 67.505 40.4892 67.795C40.9692 68.075 41.5142 68.215 42.1242 68.215C42.6942 68.215 43.1942 68.09 43.6242 67.84C44.0642 67.58 44.4042 67.2 44.6442 66.7H47.0592C46.7092 67.77 46.0942 68.605 45.2142 69.205C44.3442 69.795 43.3192 70.09 42.1392 70.09C41.1392 70.09 40.2342 69.865 39.4242 69.415C38.6242 68.955 37.9892 68.32 37.5192 67.51C37.0592 66.7 36.8292 65.78 36.8292 64.75ZM52.5429 70.135C51.7429 70.135 51.0229 69.96 50.3829 69.61C49.7429 69.25 49.2379 68.745 48.8679 68.095C48.5079 67.445 48.3279 66.695 48.3279 65.845C48.3279 64.995 48.5129 64.245 48.8829 63.595C49.2629 62.945 49.7779 62.445 50.4279 62.095C51.0779 61.735 51.8029 61.555 52.6029 61.555C53.4029 61.555 54.1279 61.735 54.7779 62.095C55.4279 62.445 55.9379 62.945 56.3079 63.595C56.6879 64.245 56.8779 64.995 56.8779 65.845C56.8779 66.695 56.6829 67.445 56.2929 68.095C55.9129 68.745 55.3929 69.25 54.7329 69.61C54.0829 69.96 53.3529 70.135 52.5429 70.135ZM52.5429 68.305C52.9229 68.305 53.2779 68.215 53.6079 68.035C53.9479 67.845 54.2179 67.565 54.4179 67.195C54.6179 66.825 54.7179 66.375 54.7179 65.845C54.7179 65.055 54.5079 64.45 54.0879 64.03C53.6779 63.6 53.1729 63.385 52.5729 63.385C51.9729 63.385 51.4679 63.6 51.0579 64.03C50.6579 64.45 50.4579 65.055 50.4579 65.845C50.4579 66.635 50.6529 67.245 51.0429 67.675C51.4429 68.095 51.9429 68.305 52.5429 68.305ZM63.0233 61.57C64.0133 61.57 64.8133 61.885 65.4233 62.515C66.0333 63.135 66.3383 64.005 66.3383 65.125V70H64.2383V65.41C64.2383 64.75 64.0733 64.245 63.7433 63.895C63.4133 63.535 62.9633 63.355 62.3933 63.355C61.8133 63.355 61.3533 63.535 61.0133 63.895C60.6833 64.245 60.5183 64.75 60.5183 65.41V70H58.4183V61.69H60.5183V62.725C60.7983 62.365 61.1533 62.085 61.5833 61.885C62.0233 61.675 62.5033 61.57 63.0233 61.57ZM70.7803 63.415V67.435C70.7803 67.715 70.8453 67.92 70.9753 68.05C71.1153 68.17 71.3453 68.23 71.6653 68.23H72.6403V70H71.3203C69.5503 70 68.6653 69.14 68.6653 67.42V63.415H67.6753V61.69H68.6653V59.635H70.7803V61.69H72.6403V63.415H70.7803ZM73.6107 65.815C73.6107 64.975 73.7757 64.23 74.1057 63.58C74.4457 62.93 74.9007 62.43 75.4707 62.08C76.0507 61.73 76.6957 61.555 77.4057 61.555C78.0257 61.555 78.5657 61.68 79.0257 61.93C79.4957 62.18 79.8707 62.495 80.1507 62.875V61.69H82.2657V70H80.1507V68.785C79.8807 69.175 79.5057 69.5 79.0257 69.76C78.5557 70.01 78.0107 70.135 77.3907 70.135C76.6907 70.135 76.0507 69.955 75.4707 69.595C74.9007 69.235 74.4457 68.73 74.1057 68.08C73.7757 67.42 73.6107 66.665 73.6107 65.815ZM80.1507 65.845C80.1507 65.335 80.0507 64.9 79.8507 64.54C79.6507 64.17 79.3807 63.89 79.0407 63.7C78.7007 63.5 78.3357 63.4 77.9457 63.4C77.5557 63.4 77.1957 63.495 76.8657 63.685C76.5357 63.875 76.2657 64.155 76.0557 64.525C75.8557 64.885 75.7557 65.315 75.7557 65.815C75.7557 66.315 75.8557 66.755 76.0557 67.135C76.2657 67.505 76.5357 67.79 76.8657 67.99C77.2057 68.19 77.5657 68.29 77.9457 68.29C78.3357 68.29 78.7007 68.195 79.0407 68.005C79.3807 67.805 79.6507 67.525 79.8507 67.165C80.0507 66.795 80.1507 66.355 80.1507 65.845ZM85.3817 60.7C85.0117 60.7 84.7017 60.585 84.4517 60.355C84.2117 60.115 84.0917 59.82 84.0917 59.47C84.0917 59.12 84.2117 58.83 84.4517 58.6C84.7017 58.36 85.0117 58.24 85.3817 58.24C85.7517 58.24 86.0567 58.36 86.2967 58.6C86.5467 58.83 86.6717 59.12 86.6717 59.47C86.6717 59.82 86.5467 60.115 86.2967 60.355C86.0567 60.585 85.7517 60.7 85.3817 60.7ZM86.4167 61.69V70H84.3167V61.69H86.4167ZM93.0965 61.57C94.0865 61.57 94.8865 61.885 95.4965 62.515C96.1065 63.135 96.4115 64.005 96.4115 65.125V70H94.3115V65.41C94.3115 64.75 94.1465 64.245 93.8165 63.895C93.4865 63.535 93.0365 63.355 92.4665 63.355C91.8865 63.355 91.4265 63.535 91.0865 63.895C90.7565 64.245 90.5915 64.75 90.5915 65.41V70H88.4915V61.69H90.5915V62.725C90.8715 62.365 91.2265 62.085 91.6565 61.885C92.0965 61.675 92.5765 61.57 93.0965 61.57ZM106.134 65.665C106.134 65.965 106.114 66.235 106.074 66.475H99.9985C100.049 67.075 100.259 67.545 100.629 67.885C100.999 68.225 101.454 68.395 101.994 68.395C102.774 68.395 103.329 68.06 103.659 67.39H105.924C105.684 68.19 105.224 68.85 104.544 69.37C103.864 69.88 103.029 70.135 102.039 70.135C101.239 70.135 100.519 69.96 99.8785 69.61C99.2485 69.25 98.7535 68.745 98.3935 68.095C98.0435 67.445 97.8685 66.695 97.8685 65.845C97.8685 64.985 98.0435 64.23 98.3935 63.58C98.7435 62.93 99.2335 62.43 99.8635 62.08C100.494 61.73 101.219 61.555 102.039 61.555C102.829 61.555 103.534 61.725 104.154 62.065C104.784 62.405 105.269 62.89 105.609 63.52C105.959 64.14 106.134 64.855 106.134 65.665ZM103.959 65.065C103.949 64.525 103.754 64.095 103.374 63.775C102.994 63.445 102.529 63.28 101.979 63.28C101.459 63.28 101.019 63.44 100.659 63.76C100.309 64.07 100.094 64.505 100.014 65.065H103.959ZM109.766 62.98C110.036 62.54 110.386 62.195 110.816 61.945C111.256 61.695 111.756 61.57 112.316 61.57V63.775H111.761C111.101 63.775 110.601 63.93 110.261 64.24C109.931 64.55 109.766 65.09 109.766 65.86V70H107.666V61.69H109.766V62.98ZM51.568 82.53C52.668 82.53 53.633 82.745 54.463 83.175C55.303 83.605 55.948 84.22 56.398 85.02C56.858 85.81 57.088 86.73 57.088 87.78C57.088 88.83 56.858 89.75 56.398 90.54C55.948 91.32 55.303 91.925 54.463 92.355C53.633 92.785 52.668 93 51.568 93H47.908V82.53H51.568ZM51.493 91.215C52.593 91.215 53.443 90.915 54.043 90.315C54.643 89.715 54.943 88.87 54.943 87.78C54.943 86.69 54.643 85.84 54.043 85.23C53.443 84.61 52.593 84.3 51.493 84.3H50.008V91.215H51.493ZM66.385 88.665C66.385 88.965 66.365 89.235 66.325 89.475H60.25C60.3 90.075 60.51 90.545 60.88 90.885C61.25 91.225 61.705 91.395 62.245 91.395C63.025 91.395 63.58 91.06 63.91 90.39H66.175C65.935 91.19 65.475 91.85 64.795 92.37C64.115 92.88 63.28 93.135 62.29 93.135C61.49 93.135 60.77 92.96 60.13 92.61C59.5 92.25 59.005 91.745 58.645 91.095C58.295 90.445 58.12 89.695 58.12 88.845C58.12 87.985 58.295 87.23 58.645 86.58C58.995 85.93 59.485 85.43 60.115 85.08C60.745 84.73 61.47 84.555 62.29 84.555C63.08 84.555 63.785 84.725 64.405 85.065C65.035 85.405 65.52 85.89 65.86 86.52C66.21 87.14 66.385 87.855 66.385 88.665ZM64.21 88.065C64.2 87.525 64.005 87.095 63.625 86.775C63.245 86.445 62.78 86.28 62.23 86.28C61.71 86.28 61.27 86.44 60.91 86.76C60.56 87.07 60.345 87.505 60.265 88.065H64.21ZM71.7278 86.415H70.2728V93H68.1428V86.415H67.1978V84.69H68.1428V84.27C68.1428 83.25 68.4328 82.5 69.0128 82.02C69.5928 81.54 70.4678 81.315 71.6378 81.345V83.115C71.1278 83.105 70.7728 83.19 70.5728 83.37C70.3728 83.55 70.2728 83.875 70.2728 84.345V84.69H71.7278V86.415ZM72.5487 88.815C72.5487 87.975 72.7137 87.23 73.0437 86.58C73.3837 85.93 73.8387 85.43 74.4087 85.08C74.9887 84.73 75.6337 84.555 76.3437 84.555C76.9637 84.555 77.5037 84.68 77.9637 84.93C78.4337 85.18 78.8087 85.495 79.0887 85.875V84.69H81.2037V93H79.0887V91.785C78.8187 92.175 78.4437 92.5 77.9637 92.76C77.4937 93.01 76.9487 93.135 76.3287 93.135C75.6287 93.135 74.9887 92.955 74.4087 92.595C73.8387 92.235 73.3837 91.73 73.0437 91.08C72.7137 90.42 72.5487 89.665 72.5487 88.815ZM79.0887 88.845C79.0887 88.335 78.9887 87.9 78.7887 87.54C78.5887 87.17 78.3187 86.89 77.9787 86.7C77.6387 86.5 77.2737 86.4 76.8837 86.4C76.4937 86.4 76.1337 86.495 75.8037 86.685C75.4737 86.875 75.2037 87.155 74.9937 87.525C74.7937 87.885 74.6937 88.315 74.6937 88.815C74.6937 89.315 74.7937 89.755 74.9937 90.135C75.2037 90.505 75.4737 90.79 75.8037 90.99C76.1437 91.19 76.5037 91.29 76.8837 91.29C77.2737 91.29 77.6387 91.195 77.9787 91.005C78.3187 90.805 78.5887 90.525 78.7887 90.165C78.9887 89.795 79.0887 89.355 79.0887 88.845ZM91.0997 84.69V93H88.9847V91.95C88.7147 92.31 88.3597 92.595 87.9197 92.805C87.4897 93.005 87.0197 93.105 86.5097 93.105C85.8597 93.105 85.2847 92.97 84.7847 92.7C84.2847 92.42 83.8897 92.015 83.5997 91.485C83.3197 90.945 83.1797 90.305 83.1797 89.565V84.69H85.2797V89.265C85.2797 89.925 85.4447 90.435 85.7747 90.795C86.1047 91.145 86.5547 91.32 87.1247 91.32C87.7047 91.32 88.1597 91.145 88.4897 90.795C88.8197 90.435 88.9847 89.925 88.9847 89.265V84.69H91.0997ZM95.2717 81.9V93H93.1717V81.9H95.2717ZM99.7915 86.415V90.435C99.7915 90.715 99.8565 90.92 99.9865 91.05C100.127 91.17 100.357 91.23 100.677 91.23H101.652V93H100.332C98.5615 93 97.6765 92.14 97.6765 90.42V86.415H96.6865V84.69H97.6765V82.635H99.7915V84.69H101.652V86.415H99.7915Z" fill="white"/>
</svg>
