<svg width="149" height="153" viewBox="0 0 149 153" fill="none" xmlns="http://www.w3.org/2000/svg">
<path d="M139 0H10C4.47715 0 0 4.47715 0 10V143C0 148.523 4.47715 153 10 153H139C144.523 153 149 148.523 149 143V10C149 4.47715 144.523 0 139 0Z" fill="#0F2E5F"/>
<path d="M95 99H128V102H95V99Z" fill="#2C517E"/>
<path d="M55 24H128V27H55V24Z" fill="#2C517E"/>
<path d="M55 89H128V92H55V89Z" fill="#2C517E"/>
<path d="M55 126H128V129H55V126Z" fill="#2C517E"/>
<path d="M95 105H128V108H95V105Z" fill="#2C517E"/>
<path d="M55 29H128V32H55V29Z" fill="#2C517E"/>
<path d="M55 94H128V97H55V94Z" fill="#2C517E"/>
<path d="M95 110H128V113H95V110Z" fill="#2C517E"/>
<path d="M95 115H128V118H95V115Z" fill="#2C517E"/>
<path d="M95 121H128V124H95V121Z" fill="#2C517E"/>
<path d="M55 35H128V87H55V35Z" fill="#5F7EA8"/>
<path d="M20 24H52V129H20V24Z" fill="#001B44"/>
<path d="M55 99H94V124H55V99Z" fill="#597EAC"/>
</svg>
