<svg width="149" height="153" viewBox="0 0 149 153" fill="none" xmlns="http://www.w3.org/2000/svg">
<path d="M139 0H10C4.47715 0 0 4.47715 0 10V143C0 148.523 4.47715 153 10 153H139C144.523 153 149 148.523 149 143V10C149 4.47715 144.523 0 139 0Z" fill="#0F2E5F"/>
<path d="M135 99H81V102H135V99Z" fill="#2C517E"/>
<path d="M135 24H15V27H135V24Z" fill="#2C517E"/>
<path d="M135 89H15V92H135V89Z" fill="#2C517E"/>
<path d="M135 126H15V129H135V126Z" fill="#2C517E"/>
<path d="M135 105H81V108H135V105Z" fill="#2C517E"/>
<path d="M135 29H15V32H135V29Z" fill="#2C517E"/>
<path d="M135 94H15V97H135V94Z" fill="#2C517E"/>
<path d="M135 110H81V113H135V110Z" fill="#2C517E"/>
<path d="M135 115H81V118H135V115Z" fill="#2C517E"/>
<path d="M135 121H81V124H135V121Z" fill="#2C517E"/>
<path d="M135 35H15V87H135V35Z" fill="#5F7EA8"/>
<path d="M78 99H15V124H78V99Z" fill="#597EAC"/>
</svg>
