<svg width="149" height="153" viewBox="0 0 149 153" fill="none" xmlns="http://www.w3.org/2000/svg">
<path d="M139 0H10C4.47715 0 0 4.47715 0 10V143C0 148.523 4.47715 153 10 153H139C144.523 153 149 148.523 149 143V10C149 4.47715 144.523 0 139 0Z" fill="#FF9500"/>
<path d="M129 99H96V102H129V99Z" fill="white"/>
<path d="M129 24H56V27H129V24Z" fill="white"/>
<path d="M129 89H56V92H129V89Z" fill="white"/>
<path d="M129 126H56V129H129V126Z" fill="white"/>
<path d="M129 105H96V108H129V105Z" fill="white"/>
<path d="M129 29H56V32H129V29Z" fill="white"/>
<path d="M129 94H56V97H129V94Z" fill="white"/>
<path d="M129 110H96V113H129V110Z" fill="white"/>
<path d="M129 115H96V118H129V115Z" fill="white"/>
<path d="M129 121H96V124H129V121Z" fill="white"/>
<path d="M129 35H56V87H129V35Z" fill="white"/>
<path d="M53 24H21V129H53V24Z" fill="white"/>
<path d="M95 99H56V124H95V99Z" fill="white"/>
</svg>
