<svg width="149" height="186" viewBox="0 0 149 186" fill="none" xmlns="http://www.w3.org/2000/svg">
<path d="M5.141 6.768V18H11.461V15.888H7.877V6.768H5.141ZM16.702 11.136C17.614 11.136 18.382 11.696 18.382 12.672H14.958C15.118 11.68 15.806 11.136 16.702 11.136ZM20.974 15.04H18.062C17.838 15.52 17.406 15.904 16.638 15.904C15.758 15.904 15.038 15.36 14.942 14.192H21.134C21.166 13.92 21.182 13.648 21.182 13.392C21.182 10.672 19.342 8.944 16.734 8.944C14.078 8.944 12.222 10.704 12.222 13.536C12.222 16.368 14.11 18.128 16.734 18.128C18.958 18.128 20.542 16.784 20.974 15.04ZM22.8974 18H25.6334V11.344H27.1054V9.072H25.6334V8.992C25.6334 8.048 26.0014 7.728 27.0574 7.792V5.472C24.3374 5.328 22.8974 6.48 22.8974 8.816V9.072H21.9054V11.344H22.8974V18ZM28.823 14.896C28.823 17.216 30.119 18 31.975 18H33.367V15.68H32.391C31.783 15.68 31.559 15.456 31.559 14.928V11.344H33.351V9.072H31.559V6.896H28.823V9.072H27.735V11.344H28.823V14.896Z" fill="white"/>
<path d="M139 33H10C4.47715 33 0 37.4772 0 43V176C0 181.523 4.47715 186 10 186H139C144.523 186 149 181.523 149 176V43C149 37.4772 144.523 33 139 33Z" fill="#FF9500"/>
<path d="M129 132H96V135H129V132Z" fill="white"/>
<path d="M129 57H56V60H129V57Z" fill="white"/>
<path d="M129 122H56V125H129V122Z" fill="white"/>
<path d="M129 159H56V162H129V159Z" fill="white"/>
<path d="M129 138H96V141H129V138Z" fill="white"/>
<path d="M129 62H56V65H129V62Z" fill="white"/>
<path d="M129 127H56V130H129V127Z" fill="white"/>
<path d="M129 143H96V146H129V143Z" fill="white"/>
<path d="M129 148H96V151H129V148Z" fill="white"/>
<path d="M129 154H96V157H129V154Z" fill="white"/>
<path d="M129 68H56V120H129V68Z" fill="white"/>
<path d="M53 57H21V162H53V57Z" fill="white"/>
<path d="M95 132H56V157H95V132Z" fill="white"/>
</svg>
