<svg width="82" height="51" viewBox="0 0 82 51" fill="none" xmlns="http://www.w3.org/2000/svg">
<path d="M0 10C0 4.47715 4.47715 0 10 0H72C77.5228 0 82 4.47715 82 10V41C82 46.5228 77.5228 51 72 51H10C4.47715 51 0 46.5228 0 41V10Z" fill="#FF9600"/>
<path d="M23.486 21.722V18.86H28.472V32H25.268V21.722H23.486ZM34.284 29.534C34.692 29.21 34.878 29.06 34.842 29.084C36.018 28.112 36.942 27.314 37.614 26.69C38.298 26.066 38.874 25.412 39.342 24.728C39.81 24.044 40.044 23.378 40.044 22.73C40.044 22.238 39.93 21.854 39.702 21.578C39.474 21.302 39.132 21.164 38.676 21.164C38.22 21.164 37.86 21.338 37.596 21.686C37.344 22.022 37.218 22.502 37.218 23.126H34.248C34.272 22.106 34.488 21.254 34.896 20.57C35.316 19.886 35.862 19.382 36.534 19.058C37.218 18.734 37.974 18.572 38.802 18.572C40.23 18.572 41.304 18.938 42.024 19.67C42.756 20.402 43.122 21.356 43.122 22.532C43.122 23.816 42.684 25.01 41.808 26.114C40.932 27.206 39.816 28.274 38.46 29.318H43.32V31.82H34.284V29.534ZM48.5977 22.568C48.6457 21.284 49.0657 20.294 49.8577 19.598C50.6497 18.902 51.7237 18.554 53.0797 18.554C53.9797 18.554 54.7477 18.71 55.3837 19.022C56.0317 19.334 56.5177 19.76 56.8417 20.3C57.1777 20.84 57.3457 21.446 57.3457 22.118C57.3457 22.91 57.1477 23.558 56.7517 24.062C56.3557 24.554 55.8937 24.89 55.3657 25.07V25.142C56.0497 25.37 56.5897 25.748 56.9857 26.276C57.3817 26.804 57.5797 27.482 57.5797 28.31C57.5797 29.054 57.4057 29.714 57.0577 30.29C56.7217 30.854 56.2237 31.298 55.5637 31.622C54.9157 31.946 54.1417 32.108 53.2417 32.108C51.8017 32.108 50.6497 31.754 49.7857 31.046C48.9337 30.338 48.4837 29.27 48.4357 27.842H51.4237C51.4357 28.37 51.5857 28.79 51.8737 29.102C52.1617 29.402 52.5817 29.552 53.1337 29.552C53.6017 29.552 53.9617 29.42 54.2137 29.156C54.4777 28.88 54.6097 28.52 54.6097 28.076C54.6097 27.5 54.4237 27.086 54.0517 26.834C53.6917 26.57 53.1097 26.438 52.3057 26.438H51.7297V23.936H52.3057C52.9177 23.936 53.4097 23.834 53.7817 23.63C54.1657 23.414 54.3577 23.036 54.3577 22.496C54.3577 22.064 54.2377 21.728 53.9977 21.488C53.7577 21.248 53.4277 21.128 53.0077 21.128C52.5517 21.128 52.2097 21.266 51.9817 21.542C51.7657 21.818 51.6397 22.16 51.6037 22.568H48.5977Z" fill="white"/>
</svg>
