<svg width="82" height="51" viewBox="0 0 82 51" fill="none" xmlns="http://www.w3.org/2000/svg">
<path d="M0 10C0 4.47715 4.47715 0 10 0H72C77.5228 0 82 4.47715 82 10V41C82 46.5228 77.5228 51 72 51H10C4.47715 51 0 46.5228 0 41V10Z" fill="white"/>
<path d="M25.268 32V21.722H23.486V18.86H28.472V32H25.268ZM34.284 31.82V29.534C37.074 27.23 40.044 24.944 40.044 22.73C40.044 21.776 39.612 21.164 38.676 21.164C37.758 21.164 37.218 21.884 37.218 23.126H34.248C34.338 19.94 36.408 18.572 38.802 18.572C41.79 18.572 43.122 20.318 43.122 22.532C43.122 25.412 40.548 27.716 38.46 29.318H43.32V31.82H34.284ZM48.5977 22.568C48.7057 19.976 50.3977 18.554 53.0797 18.554C55.8517 18.554 57.3457 20.138 57.3457 22.118C57.3457 23.846 56.2657 24.764 55.3657 25.07V25.142C56.6797 25.574 57.5797 26.582 57.5797 28.31C57.5797 30.524 55.9957 32.108 53.2417 32.108C50.5057 32.108 48.5257 30.812 48.4357 27.842H51.4237C51.4417 28.868 51.9997 29.552 53.1337 29.552C54.0877 29.552 54.6097 28.94 54.6097 28.076C54.6097 26.906 53.9077 26.438 52.3057 26.438H51.7297V23.936H52.3057C53.3497 23.936 54.3577 23.684 54.3577 22.496C54.3577 21.614 53.8357 21.128 53.0077 21.128C52.0177 21.128 51.6577 21.848 51.6037 22.568H48.5977Z" fill="#001644"/>
</svg>
