<svg width="154" height="49" viewBox="0 0 154 49" fill="none" xmlns="http://www.w3.org/2000/svg">
<path d="M10 0H144C146.652 0 149.196 1.05357 151.071 2.92893C152.946 4.8043 154 7.34784 154 10V49H0V10C0 7.34784 1.05357 4.8043 2.92893 2.92893C4.8043 1.05357 7.34784 0 10 0Z" fill="#102C5F"/>
<path d="M10 0.5H144C146.52 0.5 148.936 1.50089 150.718 3.28249C152.499 5.06408 153.5 7.48044 153.5 10V48.5H0.5V10C0.5 7.48044 1.50089 5.06408 3.28249 3.28249C5.06408 1.50089 7.48044 0.5 10 0.5Z" fill="#102C5F"/>
</svg>
