<svg width="149" height="186" viewBox="0 0 149 186" fill="none" xmlns="http://www.w3.org/2000/svg">
<path d="M11.349 10.128C11.349 11.376 10.629 12.272 8.981 12.272H6.837V8.048H8.981C10.645 8.048 11.349 8.864 11.349 10.128ZM5.381 6.848V18H6.837V13.44H8.597L11.253 18H12.997L10.197 13.328C12.069 12.912 12.853 11.552 12.853 10.128C12.853 8.304 11.605 6.848 8.981 6.848H5.381ZM15.1154 18H16.5714V9.232H15.1154V18ZM15.8674 7.808C16.3954 7.808 16.8274 7.376 16.8274 6.816C16.8274 6.256 16.3954 5.824 15.8674 5.824C15.3074 5.824 14.8754 6.256 14.8754 6.816C14.8754 7.376 15.3074 7.808 15.8674 7.808ZM18.5089 13.584C18.5089 16.304 20.3169 18.144 22.6689 18.144C24.2689 18.144 25.4049 17.296 25.9329 16.352V18.192C25.9329 20.064 24.7649 21.056 23.2129 21.056C21.7729 21.056 20.7329 20.336 20.4129 19.28H18.9729C19.2609 21.152 20.9089 22.32 23.2129 22.32C25.7889 22.32 27.4049 20.608 27.4049 18.192V9.232H25.9329V10.832C25.4209 9.888 24.2689 9.088 22.6689 9.088C20.3169 9.088 18.5089 10.848 18.5089 13.584ZM25.9329 13.6C25.9329 15.664 24.5569 16.864 22.9569 16.864C21.3569 16.864 19.9969 15.648 19.9969 13.584C19.9969 11.52 21.3569 10.352 22.9569 10.352C24.5569 10.352 25.9329 11.568 25.9329 13.6ZM29.8654 18H31.3214V13.152C31.3214 11.264 32.3454 10.336 33.8334 10.336C35.3054 10.336 36.2814 11.248 36.2814 13.04V18H37.7214V12.832C37.7214 10.32 36.1694 9.072 34.2174 9.072C32.9854 9.072 31.8974 9.568 31.3214 10.496V6.16H29.8654V18ZM40.4198 15.6C40.4198 17.36 41.2998 18 42.8518 18H44.1638V16.768H43.0918C42.1958 16.768 41.8758 16.464 41.8758 15.6V10.432H44.1638V9.232H41.8758V7.024H40.4198V9.232H39.2838V10.432H40.4198V15.6Z" fill="white"/>
<path d="M139 33H10C4.47715 33 0 37.4772 0 43V176C0 181.523 4.47715 186 10 186H139C144.523 186 149 181.523 149 176V43C149 37.4772 144.523 33 139 33Z" fill="#0F2E5F"/>
<path d="M54 132H21V135H54V132Z" fill="#2C517E"/>
<path d="M94 57H21V60H94V57Z" fill="#2C517E"/>
<path d="M94 122H21V125H94V122Z" fill="#2C517E"/>
<path d="M94 159H21V162H94V159Z" fill="#2C517E"/>
<path d="M54 138H21V141H54V138Z" fill="#2C517E"/>
<path d="M94 62H21V65H94V62Z" fill="#2C517E"/>
<path d="M94 127H21V130H94V127Z" fill="#2C517E"/>
<path d="M54 143H21V146H54V143Z" fill="#2C517E"/>
<path d="M54 148H21V151H54V148Z" fill="#2C517E"/>
<path d="M54 154H21V157H54V154Z" fill="#2C517E"/>
<path d="M94 68H21V120H94V68Z" fill="#5F7EA8"/>
<path d="M129 57H97V162H129V57Z" fill="#001B44"/>
<path d="M94 132H55V157H94V132Z" fill="#597EAC"/>
</svg>
