<svg width="25" height="25" viewBox="0 0 25 25" fill="none" xmlns="http://www.w3.org/2000/svg">
<path d="M18.44 2.20916C19.5274 2.20916 20.5702 2.64112 21.3391 3.41002C22.108 4.17892 22.54 5.22177 22.54 6.30916V18.6002C22.54 19.1386 22.4339 19.6717 22.2279 20.1692C22.0219 20.6666 21.7199 21.1186 21.3391 21.4993C20.9584 21.88 20.5064 22.182 20.009 22.3881C19.5116 22.5941 18.9784 22.7002 18.44 22.7002H6.147C5.60858 22.7002 5.07543 22.5941 4.578 22.3881C4.08056 22.182 3.62858 21.88 3.24786 21.4993C2.86714 21.1186 2.56514 20.6666 2.35909 20.1692C2.15305 19.6717 2.047 19.1386 2.047 18.6002V6.30716C2.047 5.21977 2.47896 4.17692 3.24786 3.40802C4.01676 2.63912 5.05961 2.20716 6.147 2.20716L18.44 2.20916ZM18.44 0.160156H6.147C5.33973 0.160025 4.54034 0.318932 3.79449 0.627801C3.04864 0.93667 2.37095 1.38945 1.80012 1.96028C1.22929 2.53111 0.776514 3.2088 0.467645 3.95465C0.158776 4.70049 -0.000131279 5.49988 8.13745e-08 6.30716V18.6002C-0.000131279 19.4074 0.158776 20.2068 0.467645 20.9527C0.776514 21.6985 1.22929 22.3762 1.80012 22.947C2.37095 23.5179 3.04864 23.9706 3.79449 24.2795C4.54034 24.5884 5.33973 24.7473 6.147 24.7472H18.44C19.2473 24.7473 20.0467 24.5884 20.7925 24.2795C21.5384 23.9706 22.2161 23.5179 22.7869 22.947C23.3577 22.3762 23.8105 21.6985 24.1194 20.9527C24.4282 20.2068 24.5871 19.4074 24.587 18.6002V6.30716C24.5871 5.49988 24.4282 4.70049 24.1194 3.95465C23.8105 3.2088 23.3577 2.53111 22.7869 1.96028C22.2161 1.38945 21.5384 0.93667 20.7925 0.627801C20.0467 0.318932 19.2473 0.160025 18.44 0.160156Z" fill="#FF9200"/>
<path d="M17.416 13.4782H7.17099C6.89928 13.4782 6.63869 13.3703 6.44656 13.1781C6.25443 12.986 6.14648 12.7254 6.14648 12.4537C6.14648 12.182 6.25443 11.9214 6.44656 11.7293C6.63869 11.5371 6.89928 11.4292 7.17099 11.4292H17.415C17.6867 11.4292 17.9473 11.5371 18.1394 11.7293C18.3316 11.9214 18.4395 12.182 18.4395 12.4537C18.4395 12.7254 18.3316 12.986 18.1394 13.1781C17.9473 13.3703 17.6877 13.4782 17.416 13.4782Z" fill="#FF9200"/>
<path d="M17.416 8.35612H7.17099C6.89928 8.35612 6.63869 8.24819 6.44656 8.05606C6.25443 7.86393 6.14648 7.60335 6.14648 7.33163C6.14648 7.05992 6.25443 6.79932 6.44656 6.60719C6.63869 6.41506 6.89928 6.30713 7.17099 6.30713H17.415C17.6867 6.30713 17.9473 6.41506 18.1394 6.60719C18.3316 6.79932 18.4395 7.05992 18.4395 7.33163C18.4395 7.60335 18.3316 7.86393 18.1394 8.05606C17.9473 8.24819 17.6877 8.35612 17.416 8.35612Z" fill="#FF9200"/>
<path d="M17.416 18.6003H7.17099C6.89928 18.6003 6.63869 18.4923 6.44656 18.3002C6.25443 18.1081 6.14648 17.8475 6.14648 17.5758C6.14648 17.3041 6.25443 17.0434 6.44656 16.8513C6.63869 16.6592 6.89928 16.5513 7.17099 16.5513H17.415C17.6867 16.5513 17.9473 16.6592 18.1394 16.8513C18.3316 17.0434 18.4395 17.3041 18.4395 17.5758C18.4395 17.8475 18.3316 18.1081 18.1394 18.3002C17.9473 18.4923 17.6877 18.6003 17.416 18.6003Z" fill="#FF9200"/>
</svg>
