<svg width="26" height="28" viewBox="0 0 26 28" fill="none" xmlns="http://www.w3.org/2000/svg">
<mask id="mask0_1_3147" style="mask-type:luminance" maskUnits="userSpaceOnUse" x="0" y="0" width="26" height="28">
<path d="M25.7883 0.753906H0.655273V27.6994H25.7883V0.753906Z" fill="white"/>
</mask>
<g mask="url(#mask0_1_3147)">
<path d="M22.4333 1.01563H3.76627C2.94363 1.01448 2.15414 1.365 1.57094 1.99033C0.987745 2.61565 0.65845 3.46473 0.655273 4.35135L0.655273 24.3646C0.65845 25.2512 0.987745 26.1003 1.57094 26.7256C2.15414 27.351 2.94363 27.7015 3.76627 27.7003H22.4333C23.2559 27.7015 24.0454 27.351 24.6286 26.7256C25.2118 26.1003 25.5411 25.2512 25.5443 24.3646V4.35135C25.5411 3.46473 25.2118 2.61565 24.6286 1.99033C24.0454 1.365 23.2559 1.01448 22.4333 1.01563ZM23.4703 24.3646C23.4704 24.5114 23.4437 24.6567 23.3916 24.7923C23.3395 24.9279 23.2631 25.0511 23.1668 25.1548C23.0704 25.2586 22.9561 25.3408 22.8302 25.3968C22.7043 25.4528 22.5694 25.4815 22.4333 25.4812H3.76627C3.49195 25.4818 3.22863 25.3649 3.03418 25.1564C2.83974 24.9478 2.73007 24.6646 2.72927 24.3689V4.35135C2.73007 4.05569 2.83974 3.77246 3.03418 3.5639C3.22863 3.35534 3.49195 3.23851 3.76627 3.23908H22.4333C22.7076 3.23851 22.9709 3.35534 23.1654 3.5639C23.3598 3.77246 23.4695 4.05569 23.4703 4.35135V24.3646Z" fill="#FF9100"/>
<path d="M19.5817 5.46241H6.61871C6.13883 5.46154 5.67823 5.66588 5.33797 6.03059C4.9977 6.3953 4.80556 6.89059 4.80371 7.40779V11.2996C4.80556 11.8169 4.9977 12.3121 5.33797 12.6769C5.67823 13.0416 6.13883 13.2459 6.61871 13.245H19.5817C20.0616 13.2459 20.5222 13.0416 20.8625 12.6769C21.2027 12.3121 21.3949 11.8169 21.3967 11.2996V7.40779C21.3949 6.89059 21.2027 6.3953 20.8625 6.03059C20.5222 5.66588 20.0616 5.46154 19.5817 5.46241Z" fill="#FF9100"/>
</g>
</svg>
