<svg width="22" height="24" viewBox="0 0 22 24" fill="none" xmlns="http://www.w3.org/2000/svg">
<path d="M17.419 16.9976C15.9064 16.9976 14.6759 18.34 14.6759 19.9901C14.6759 21.6401 15.9065 22.9826 17.419 22.9826C18.9316 22.9826 20.1622 21.6401 20.1622 19.9901C20.1622 18.34 18.9316 16.9976 17.419 16.9976ZM17.419 21.1871C16.8139 21.1871 16.3218 20.6502 16.3218 19.9901C16.3218 19.3299 16.8139 18.7931 17.419 18.7931C18.0242 18.7931 18.5163 19.3299 18.5163 19.9901C18.5163 20.6502 18.0242 21.1871 17.419 21.1871Z" fill="#FA9002"/>
<path d="M21.8251 5.43158C21.6693 5.21403 21.4304 5.08714 21.1772 5.08714H5.0798L4.33914 1.70649C4.25054 1.30252 3.91942 1.01733 3.53867 1.01733H0.822942C0.368416 1.01729 0 1.4192 0 1.91504C0 2.41089 0.368416 2.8128 0.822942 2.8128H2.88911L5.56367 15.0211C5.65227 15.4254 5.98339 15.7103 6.36414 15.7103H19.1747C19.553 15.7103 19.8827 15.429 19.9735 15.0286L21.976 6.20061C22.0366 5.93253 21.9809 5.64913 21.8251 5.43158ZM18.5309 13.9148H7.0137L5.47313 6.88265H20.1257L18.5309 13.9148Z" fill="#FA9002"/>
<path d="M7.4614 16.9976C5.94881 16.9976 4.71826 18.34 4.71826 19.9901C4.71826 21.6401 5.94885 22.9826 7.4614 22.9826C8.97395 22.9826 10.2045 21.6401 10.2045 19.9901C10.2045 18.34 8.97395 16.9976 7.4614 16.9976ZM7.4614 21.1871C6.85627 21.1871 6.36415 20.6502 6.36415 19.9901C6.36415 19.3299 6.85627 18.7931 7.4614 18.7931C8.06654 18.7931 8.55866 19.3299 8.55866 19.9901C8.55866 20.6502 8.06654 21.1871 7.4614 21.1871Z" fill="#FA9002"/>
</svg>
