<svg width="26" height="29" viewBox="0 0 26 29" fill="none" xmlns="http://www.w3.org/2000/svg">
<mask id="mask0_1_3210" style="mask-type:luminance" maskUnits="userSpaceOnUse" x="0" y="0" width="26" height="29">
<path d="M26 0.333496H0V28.3557H26V0.333496Z" fill="white"/>
</mask>
<g mask="url(#mask0_1_3210)">
<path d="M3.8078 0.432617C2.85613 0.435178 1.94413 0.843763 1.2712 1.56903C0.598273 2.2943 0.219173 3.27724 0.216797 4.30292L0.216797 23.6555C0.219173 24.6812 0.598273 25.6641 1.2712 26.3894C1.94413 27.1146 2.85613 27.5232 3.8078 27.5258H21.7638C22.7155 27.5232 23.6275 27.1146 24.3004 26.3894C24.9733 25.6641 25.3524 24.6812 25.3548 23.6555V13.0114C25.3548 12.7541 25.26 12.5074 25.0912 12.3255C24.9224 12.1436 24.6935 12.0414 24.4548 12.0414C24.2161 12.0414 23.9872 12.1436 23.8184 12.3255C23.6496 12.5074 23.5548 12.7541 23.5548 13.0114V23.6555C23.5586 23.9114 23.5146 24.1655 23.4255 24.4027C23.3364 24.6399 23.2039 24.8554 23.036 25.0364C22.8681 25.2173 22.6682 25.3601 22.4481 25.4561C22.228 25.5522 21.9922 25.5996 21.7548 25.5955H3.8078C3.57037 25.5996 3.33461 25.5522 3.11452 25.4561C2.89442 25.3601 2.69448 25.2173 2.52658 25.0364C2.35867 24.8554 2.22623 24.6399 2.13711 24.4027C2.04799 24.1655 2.00401 23.9114 2.0078 23.6555V10.1089H24.4578C24.6965 10.1089 24.9254 10.0067 25.0942 9.8248C25.263 9.64289 25.3578 9.39617 25.3578 9.13891V4.32771C25.357 3.29865 24.9788 2.31166 24.3055 1.58199C23.6322 0.852319 22.7186 0.43916 21.7638 0.432617L3.8078 0.432617ZM3.8078 2.37262H21.7638C22.0017 2.3726 22.2372 2.42342 22.4568 2.52212C22.6764 2.62083 22.8756 2.76547 23.043 2.94767C23.2104 3.12988 23.3426 3.34604 23.432 3.58365C23.5214 3.82127 23.5662 4.07562 23.5638 4.33202V8.17322H2.0168V4.30292C2.01301 4.04703 2.05699 3.79293 2.14611 3.55572C2.23523 3.3185 2.36767 3.10301 2.53558 2.92205C2.70348 2.74108 2.90342 2.59834 3.12352 2.50229C3.34361 2.40624 3.57937 2.35884 3.8168 2.36292" fill="#FF9200"/>
<path d="M5.60859 5.27274C5.60859 5.46458 5.55581 5.65213 5.45691 5.81164C5.35802 5.97116 5.21746 6.09548 5.05301 6.1689C4.88855 6.24231 4.70759 6.26152 4.53301 6.2241C4.35843 6.18667 4.19806 6.09429 4.07219 5.95863C3.94633 5.82298 3.86061 5.65014 3.82589 5.46198C3.79116 5.27381 3.80898 5.07878 3.8771 4.90153C3.94522 4.72429 4.06057 4.5728 4.20858 4.46621C4.35658 4.35963 4.53059 4.30273 4.70859 4.30273C4.82678 4.30273 4.94381 4.32783 5.05301 4.37658C5.1622 4.42532 5.26142 4.49677 5.34499 4.58684C5.42856 4.67691 5.49485 4.78385 5.54008 4.90153C5.58531 5.01922 5.60859 5.14535 5.60859 5.27274Z" fill="#FF9200"/>
<path d="M9.19942 5.27274C9.19942 5.46458 9.14663 5.65213 9.04773 5.81164C8.94884 5.97116 8.80829 6.09548 8.64383 6.1689C8.47938 6.24231 8.29843 6.26152 8.12384 6.2241C7.94926 6.18667 7.7889 6.09429 7.66303 5.95863C7.53716 5.82298 7.45143 5.65014 7.41671 5.46198C7.38198 5.27381 7.39981 5.07878 7.46793 4.90153C7.53605 4.72429 7.65141 4.5728 7.79941 4.46621C7.94742 4.35963 8.12141 4.30273 8.29941 4.30273C8.53811 4.30273 8.76703 4.40493 8.93581 4.58684C9.10459 4.76875 9.19942 5.01548 9.19942 5.27274Z" fill="#FF9200"/>
<path d="M12.7912 5.27274C12.7912 5.46458 12.7384 5.65213 12.6395 5.81164C12.5406 5.97116 12.4001 6.09548 12.2356 6.1689C12.0712 6.24231 11.8902 6.26152 11.7156 6.2241C11.5411 6.18667 11.3807 6.09429 11.2548 5.95863C11.129 5.82298 11.0432 5.65014 11.0085 5.46198C10.9738 5.27381 10.9916 5.07878 11.0597 4.90153C11.1278 4.72429 11.2432 4.5728 11.3912 4.46621C11.5392 4.35963 11.7132 4.30273 11.8912 4.30273C12.1299 4.30273 12.3588 4.40493 12.5276 4.58684C12.6964 4.76875 12.7912 5.01548 12.7912 5.27274Z" fill="#FF9200"/>
<path d="M12.7864 12.0444C12.5477 12.0444 12.3188 12.1466 12.15 12.3285C11.9812 12.5105 11.8864 12.7572 11.8864 13.0144V14.1224C11.5655 14.2126 11.2578 14.3508 10.9724 14.533L10.2444 13.7484C10.1624 13.656 10.0638 13.5825 9.95467 13.5322C9.84553 13.482 9.72809 13.4561 9.60942 13.4561C9.49075 13.4561 9.37331 13.482 9.26418 13.5322C9.15504 13.5825 9.05647 13.656 8.97441 13.7484C8.80648 13.9302 8.7122 14.1763 8.7122 14.4328C8.7122 14.6893 8.80648 14.9354 8.97441 15.1172L9.70241 15.9018C9.53337 16.2094 9.40512 16.541 9.32141 16.8869H8.29941C8.06071 16.8869 7.83181 16.9891 7.66302 17.171C7.49424 17.3529 7.39941 17.5996 7.39941 17.8569C7.39941 18.1142 7.49424 18.3609 7.66302 18.5428C7.83181 18.7247 8.06071 18.8269 8.29941 18.8269H9.32741C9.4111 19.1728 9.53936 19.5044 9.70842 19.812L8.98041 20.5966C8.82996 20.7818 8.75048 21.0217 8.75804 21.2677C8.76561 21.5137 8.85966 21.7474 9.02115 21.9215C9.18264 22.0955 9.39948 22.1969 9.62773 22.205C9.85599 22.2132 10.0786 22.1275 10.2504 21.9654L10.9784 21.1808C11.2638 21.363 11.5714 21.5012 11.8924 21.5914V22.6993C11.8924 22.9566 11.9872 23.2033 12.156 23.3852C12.3248 23.5672 12.5537 23.6693 12.7924 23.6693C13.0311 23.6693 13.26 23.5672 13.4288 23.3852C13.5976 23.2033 13.6924 22.9566 13.6924 22.6993V21.5914C14.0134 21.5012 14.321 21.363 14.6064 21.1808L15.3344 21.9654C15.5062 22.1275 15.7288 22.2132 15.9571 22.205C16.1853 22.1969 16.4022 22.0955 16.5637 21.9215C16.7252 21.7474 16.8192 21.5137 16.8268 21.2677C16.8343 21.0217 16.7549 20.7818 16.6044 20.5966L15.8764 19.812C16.0454 19.5044 16.1737 19.1728 16.2574 18.8269H17.2854C17.5241 18.8269 17.753 18.7247 17.9218 18.5428C18.0906 18.3609 18.1854 18.1142 18.1854 17.8569C18.1854 17.5996 18.0906 17.3529 17.9218 17.171C17.753 16.9891 17.5241 16.8869 17.2854 16.8869H16.2574C16.1737 16.541 16.0455 16.2094 15.8764 15.9018L16.6044 15.1172C16.7723 14.9354 16.8666 14.6893 16.8666 14.4328C16.8666 14.1763 16.7723 13.9302 16.6044 13.7484C16.5221 13.6565 16.4234 13.5835 16.3143 13.5336C16.2052 13.4837 16.0879 13.458 15.9694 13.458C15.8509 13.458 15.7336 13.4837 15.6245 13.5336C15.5154 13.5835 15.4168 13.6565 15.3344 13.7484L14.6064 14.533C14.321 14.3509 14.0134 14.2126 13.6924 14.1224V13.0144C13.6924 12.7572 13.5976 12.5105 13.4288 12.3285C13.26 12.1466 13.0311 12.0444 12.7924 12.0444M12.7924 15.9147C13.1484 15.9147 13.4964 16.0285 13.7924 16.2417C14.0884 16.4548 14.3192 16.7578 14.4554 17.1123C14.5916 17.4668 14.6273 17.8569 14.5578 18.2332C14.4884 18.6095 14.3169 18.9552 14.0652 19.2265C13.8135 19.4978 13.4927 19.6826 13.1436 19.7575C12.7944 19.8323 12.4325 19.7939 12.1036 19.6471C11.7747 19.5002 11.4936 19.2516 11.2958 18.9325C11.098 18.6135 10.9924 18.2384 10.9924 17.8547C10.99 17.5993 11.0349 17.3458 11.1245 17.1093C11.2141 16.8727 11.3466 16.6578 11.5143 16.4772C11.6819 16.2965 11.8813 16.1537 12.1008 16.0571C12.3202 15.9605 12.5554 15.9121 12.7924 15.9147Z" fill="#FF9200"/>
</g>
</svg>
