<svg width="25" height="34" viewBox="0 0 25 34" fill="none" xmlns="http://www.w3.org/2000/svg">
<mask id="mask0_1_3160" style="mask-type:luminance" maskUnits="userSpaceOnUse" x="0" y="0" width="25" height="34">
<path d="M24.0031 0.664551H0.828125V33.0238H24.0031V0.664551Z" fill="white"/>
</mask>
<g mask="url(#mask0_1_3160)">
<path d="M16.5678 28.9111H8.25778C7.84352 28.9103 7.44071 28.7646 7.10995 28.4958C6.7792 28.2269 6.53839 27.8496 6.42378 27.4206C5.20978 22.7937 3.04978 11.2022 9.19578 3.49929C9.98359 2.51401 10.8737 1.62947 11.8488 0.863041C12.012 0.734384 12.209 0.665039 12.4113 0.665039C12.6135 0.665039 12.8105 0.734384 12.9738 0.863041C13.9504 1.6293 14.8423 2.51383 15.6318 3.49929C21.7778 11.2022 19.6168 22.7915 18.4028 27.4195C18.2882 27.8488 18.0472 28.2264 17.7163 28.4954C17.3854 28.7644 16.9823 28.9103 16.5678 28.9111ZM12.4118 2.9895C11.7701 3.54815 11.1764 4.16785 10.6378 4.84112C5.09578 11.7874 7.12578 22.5544 8.25778 26.8612L16.5678 26.8547C17.6978 22.5533 19.7278 11.7874 14.1858 4.84004C13.647 4.16725 13.0533 3.54792 12.4118 2.9895Z" fill="#FF8F00"/>
<path d="M14.9812 33.0272H9.8442C9.55103 33.0271 9.26181 32.9543 8.99899 32.8143C8.73617 32.6742 8.50683 32.4708 8.32876 32.2198C8.1507 31.9688 8.0287 31.6769 7.97224 31.3668C7.91578 31.0568 7.92637 30.7369 8.0032 30.4319L8.7132 27.6168C8.7688 27.3998 8.88891 27.2085 9.0551 27.0722C9.22129 26.936 9.42438 26.8622 9.63321 26.8623H15.1912C15.4001 26.862 15.6032 26.9357 15.7695 27.072C15.9357 27.2083 16.0558 27.3997 16.1112 27.6168L16.8212 30.4319C16.898 30.7369 16.9086 31.0568 16.8522 31.3668C16.7957 31.6769 16.6737 31.9688 16.4956 32.2198C16.3176 32.4708 16.0882 32.6742 15.8254 32.8143C15.5626 32.9543 15.2744 33.0271 14.9812 33.0272ZM10.3632 28.9144L9.8442 30.9708H14.9832L14.4632 28.9144H10.3632Z" fill="#FF8F00"/>
<path d="M12.4137 20.6812C11.6589 20.6812 10.9211 20.44 10.2936 19.988C9.66606 19.5361 9.17695 18.8938 8.88813 18.1423C8.59931 17.3907 8.52374 16.5638 8.67098 15.766C8.81822 14.9682 9.18166 14.2354 9.71534 13.6602C10.249 13.085 10.929 12.6933 11.6692 12.5346C12.4094 12.3759 13.1767 12.4573 13.874 12.7686C14.5713 13.0799 15.1672 13.6071 15.5865 14.2834C16.0058 14.9598 16.2297 15.7549 16.2297 16.5684C16.2286 17.6588 15.8262 18.7042 15.1108 19.4753C14.3954 20.2463 13.4254 20.68 12.4137 20.6812ZM12.4137 14.512C12.0363 14.512 11.6674 14.6326 11.3536 14.8585C11.0399 15.0845 10.7953 15.4057 10.6509 15.7814C10.5065 16.1572 10.4687 16.5706 10.5423 16.9695C10.6159 17.3684 10.7977 17.7349 11.0645 18.0225C11.3313 18.31 11.6713 18.5059 12.0414 18.5853C12.4115 18.6646 12.7952 18.6239 13.1438 18.4682C13.4924 18.3126 13.7904 18.049 14.0001 17.7108C14.2098 17.3727 14.3216 16.9751 14.3216 16.5684C14.3211 16.0232 14.1199 15.5004 13.7622 15.1149C13.4045 14.7294 12.9195 14.5125 12.4137 14.512Z" fill="#FF8F00"/>
<path d="M16.9919 8.63599H7.83389C7.58087 8.63599 7.33821 8.52766 7.1593 8.33484C6.98039 8.14201 6.87988 7.88048 6.87988 7.60778C6.87988 7.33509 6.98039 7.07357 7.1593 6.88074C7.33821 6.68792 7.58087 6.57959 7.83389 6.57959H16.9919C17.2449 6.57959 17.4876 6.68792 17.6665 6.88074C17.8454 7.07357 17.9459 7.33509 17.9459 7.60778C17.9459 7.88048 17.8454 8.14201 17.6665 8.33484C17.4876 8.52766 17.2449 8.63599 16.9919 8.63599Z" fill="#FF8F00"/>
<path d="M1.91922 30.7412C1.84308 30.7412 1.76722 30.7314 1.69322 30.7121C1.50785 30.6632 1.34035 30.5556 1.21235 30.403C1.08436 30.2505 1.00175 30.0601 0.975215 29.8564C0.524078 27.2798 0.970194 24.6144 2.22822 22.3701C3.06799 20.9393 4.33924 19.8638 5.82822 19.3244C5.94824 19.2713 6.07704 19.2453 6.20674 19.2477C6.33643 19.2502 6.4643 19.2811 6.58252 19.3386C6.70075 19.3962 6.80684 19.4791 6.89433 19.5823C6.98181 19.6855 7.04885 19.8069 7.09133 19.939C7.13382 20.0711 7.15087 20.2111 7.14143 20.3506C7.132 20.49 7.09628 20.6259 7.03646 20.7499C6.97664 20.874 6.89398 20.9836 6.79352 21.072C6.69307 21.1605 6.57693 21.2259 6.45222 21.2643C5.37253 21.6479 4.45087 22.4255 3.84622 23.463C3.34705 24.3268 3.0097 25.2876 2.85322 26.2911C3.48552 25.5353 4.24577 24.9164 5.09321 24.4675C5.6247 24.1848 6.20673 24.0296 6.79922 24.0127C6.92466 24.0059 7.05011 24.026 7.16835 24.0717C7.2866 24.1173 7.39531 24.1877 7.48825 24.2788C7.58119 24.3698 7.65654 24.4798 7.70996 24.6023C7.76338 24.7248 7.79383 24.8575 7.79956 24.9927C7.80529 25.128 7.78618 25.2631 7.74334 25.3903C7.70049 25.5176 7.63475 25.6345 7.54989 25.7343C7.46503 25.8341 7.36272 25.9148 7.24883 25.9719C7.13494 26.029 7.01171 26.0613 6.88622 26.0669C6.56185 26.072 6.24242 26.1533 5.95022 26.3051C4.69087 27.0145 3.68951 28.1598 3.10722 29.5568C2.98483 29.8167 2.84826 30.0687 2.69822 30.3112C2.60988 30.4445 2.4933 30.5532 2.35815 30.6282C2.22301 30.7031 2.07321 30.7423 1.92122 30.7423L1.91922 30.7412Z" fill="#FF8F00"/>
<path d="M22.8705 30.6979C22.7269 30.7026 22.5845 30.6697 22.4553 30.6022C22.3261 30.5346 22.2139 30.4343 22.1285 30.31C21.9784 30.0674 21.8419 29.8155 21.7195 29.5555C21.1393 28.1618 20.1416 27.0186 18.8865 26.3092C18.5912 26.1542 18.2679 26.071 17.9395 26.0656C17.814 26.0596 17.6908 26.0268 17.5771 25.9693C17.4634 25.9118 17.3613 25.8307 17.2767 25.7305C17.1922 25.6304 17.1268 25.5132 17.0844 25.3858C17.0419 25.2583 17.0233 25.1231 17.0295 24.9879C17.0437 24.7158 17.1564 24.4606 17.3434 24.2772C17.5305 24.0938 17.7768 23.9968 18.0295 24.0071C18.6257 24.0245 19.2112 24.1816 19.7455 24.4673C20.5888 24.9149 21.3453 25.5316 21.9745 26.2844C21.8185 25.2836 21.4822 24.3254 20.9845 23.4639C20.3814 22.4277 19.4619 21.6506 18.3845 21.2663C18.2597 21.2279 18.1436 21.1624 18.0431 21.074C17.9427 20.9855 17.86 20.876 17.8002 20.7519C17.7404 20.6279 17.7047 20.4919 17.6952 20.3525C17.6858 20.2131 17.7029 20.073 17.7454 19.9409C17.7878 19.8089 17.8549 19.6875 17.9423 19.5843C18.0298 19.4811 18.1359 19.3981 18.2541 19.3406C18.3724 19.2831 18.5002 19.2521 18.6299 19.2497C18.7596 19.2472 18.8885 19.2733 19.0085 19.3263C20.4975 19.8652 21.7688 20.9404 22.6085 22.371C23.8587 24.5875 24.3093 27.222 23.8745 29.7732C23.8454 29.9819 23.7612 30.1771 23.632 30.3356C23.5027 30.494 23.3338 30.609 23.1455 30.6667C23.0553 30.689 22.963 30.6995 22.8705 30.6979Z" fill="#FF8F00"/>
</g>
</svg>
