<svg width="26" height="27" viewBox="0 0 26 27" fill="none" xmlns="http://www.w3.org/2000/svg">
<mask id="mask0_1_3177" style="mask-type:luminance" maskUnits="userSpaceOnUse" x="0" y="0" width="26" height="27">
<path d="M0.842203 26.9185L25.1582 26.9185L25.1582 0.711214L0.842203 0.711214L0.842203 26.9185Z" fill="white"/>
</mask>
<g mask="url(#mask0_1_3177)">
<path d="M4.0882 26.6641L22.1482 26.6641C22.9462 26.6629 23.7112 26.3208 24.2754 25.7126C24.8397 25.1045 25.1571 24.28 25.1582 23.42L25.1582 3.95529C25.1571 3.09524 24.8397 2.27076 24.2754 1.66261C23.7112 1.05447 22.9462 0.712315 22.1482 0.711174L4.0882 0.711174C3.29023 0.712315 2.52524 1.05447 1.96098 1.66261C1.39673 2.27076 1.07926 3.09524 1.0782 3.95529L1.0782 23.42C1.07926 24.28 1.39673 25.1045 1.96098 25.7126C2.52524 26.3208 3.29023 26.6629 4.0882 26.6641ZM3.0882 3.95529C3.0882 3.66944 3.19356 3.3953 3.3811 3.19318C3.56863 2.99106 3.82299 2.87751 4.0882 2.87751L22.1482 2.87751C22.4134 2.87751 22.6678 2.99106 22.8553 3.19318C23.0428 3.3953 23.1482 3.66944 23.1482 3.95529L23.1482 23.42C23.1482 23.7058 23.0428 23.9799 22.8553 24.1821C22.6678 24.3842 22.4134 24.4977 22.1482 24.4977L4.0882 24.4977C3.82299 24.4977 3.56863 24.3842 3.3811 24.1821C3.19356 23.9799 3.0882 23.7058 3.0882 23.42L3.0882 3.95529Z" fill="#FF9000"/>
<path d="M6.84551 22.3389L19.3895 22.3389C19.8551 22.3383 20.3014 22.1387 20.6306 21.7839C20.9598 21.4291 21.145 20.9481 21.1455 20.4463V16.6611C21.1447 16.1596 20.9594 15.6788 20.6302 15.3242C20.3011 14.9696 19.8549 14.7702 19.3895 14.7696L6.84551 14.7696C6.37995 14.7702 5.93361 14.9698 5.60441 15.3246C5.27521 15.6794 5.09004 16.1604 5.08951 16.6622V20.4463C5.09004 20.9481 5.27521 21.4291 5.60441 21.7839C5.93361 22.1387 6.37995 22.3383 6.84551 22.3389Z" fill="#FF9000"/>
</g>
</svg>
