<svg width="21" height="20" viewBox="0 0 21 20" fill="#000000" xmlns="http://www.w3.org/2000/svg">
<path fill-rule="evenodd" clip-rule="evenodd" d="M17.976 1.27823H3.02398C2.69352 1.27823 2.3766 1.4095 2.14293 1.64317C1.90926 1.87684 1.77798 2.19377 1.77798 2.52423V17.4762C1.77798 17.8067 1.90926 18.1236 2.14293 18.3573C2.3766 18.591 2.69352 18.7222 3.02398 18.7222H17.976C18.3064 18.7222 18.6234 18.591 18.857 18.3573C19.0907 18.1236 19.222 17.8067 19.222 17.4762V2.52423C19.222 2.19377 19.0907 1.87684 18.857 1.64317C18.6234 1.4095 18.3064 1.27823 17.976 1.27823ZM3.02398 0.0322266C2.36306 0.0322266 1.72921 0.294776 1.26187 0.762116C0.794532 1.22946 0.531982 1.86331 0.531982 2.52423L0.531982 17.4762C0.531982 18.1371 0.794532 18.771 1.26187 19.2383C1.72921 19.7057 2.36306 19.9682 3.02398 19.9682H17.976C18.6369 19.9682 19.2708 19.7057 19.7381 19.2383C20.2054 18.771 20.468 18.1371 20.468 17.4762V2.52423C20.468 1.86331 20.2054 1.22946 19.7381 0.762116C19.2708 0.294776 18.6369 0.0322266 17.976 0.0322266L3.02398 0.0322266Z" fill="black"/>
<path fill-rule="evenodd" clip-rule="evenodd" d="M6.32197 10.4416C6.37983 10.4996 6.44857 10.5456 6.52424 10.577C6.59992 10.6084 6.68104 10.6246 6.76297 10.6246C6.84489 10.6246 6.92601 10.6084 7.00169 10.577C7.07736 10.5456 7.1461 10.4996 7.20397 10.4416L10.504 7.14162L13.804 10.4416C13.8612 10.5027 13.93 10.5516 14.0065 10.5855C14.083 10.6194 14.1655 10.6376 14.2492 10.6389C14.3328 10.6403 14.4159 10.6248 14.4934 10.5934C14.571 10.5621 14.6414 10.5154 14.7006 10.4562C14.7597 10.3971 14.8064 10.3266 14.8378 10.2491C14.8692 10.1715 14.8846 10.0885 14.8833 10.0048C14.8819 9.92118 14.8637 9.83867 14.8298 9.76218C14.7959 9.6857 14.747 9.61681 14.686 9.55962L10.948 5.82162C10.8901 5.76362 10.8214 5.71762 10.7457 5.68622C10.67 5.65483 10.5889 5.63867 10.507 5.63867C10.425 5.63867 10.3439 5.65483 10.2682 5.68622C10.1926 5.71762 10.1238 5.76362 10.066 5.82162L6.32796 9.55962C6.26997 9.61749 6.22396 9.68622 6.19257 9.7619C6.16118 9.83757 6.14502 9.91869 6.14502 10.0006C6.14502 10.0825 6.16118 10.1637 6.19257 10.2393C6.22396 10.315 6.26997 10.3837 6.32796 10.4416H6.32197Z" fill="black"/>
<path fill-rule="evenodd" clip-rule="evenodd" d="M10.502 14.3617C10.6673 14.3617 10.8257 14.2961 10.9426 14.1792C11.0594 14.0624 11.125 13.9039 11.125 13.7387V7.5107C11.125 7.42888 11.1089 7.34787 11.0776 7.27228C11.0463 7.1967 11.0004 7.12802 10.9426 7.07017C10.8847 7.01232 10.816 6.96643 10.7404 6.93512C10.6649 6.90381 10.5838 6.8877 10.502 6.8877C10.4202 6.8877 10.3392 6.90381 10.2636 6.93512C10.188 6.96643 10.1194 7.01232 10.0615 7.07017C10.0036 7.12802 9.95776 7.1967 9.92645 7.27228C9.89514 7.34787 9.87903 7.42888 9.87903 7.5107V13.7407C9.87956 13.9056 9.94543 14.0635 10.0622 14.1799C10.179 14.2963 10.3371 14.3617 10.502 14.3617Z" fill="black"/>
</svg>
