<svg width="16" height="16" viewBox="0 0 16 16" fill="#000000" xmlns="http://www.w3.org/2000/svg">
<path fill-rule="evenodd" clip-rule="evenodd" d="M12.939 6.11753C13.0131 6.04385 13.0718 5.95627 13.1119 5.85983C13.1519 5.76338 13.1726 5.65997 13.1726 5.55553C13.1726 5.45109 13.1519 5.34768 13.1119 5.25124C13.0718 5.15479 13.0131 5.06721 12.939 4.99353L8.17904 0.233531C8.10536 0.159515 8.01778 0.100783 7.92134 0.0607066C7.82489 0.0206305 7.72148 0 7.61704 0C7.51261 0 7.40919 0.0206305 7.31275 0.0607066C7.2163 0.100783 7.12873 0.159515 7.05504 0.233531L2.29504 4.99453C2.22124 5.06833 2.1627 5.15595 2.12276 5.25238C2.08281 5.34881 2.06226 5.45216 2.06226 5.55653C2.06226 5.6609 2.08281 5.76426 2.12276 5.86068C2.1627 5.95711 2.22124 6.04473 2.29504 6.11853C2.36885 6.19233 2.45646 6.25088 2.55289 6.29082C2.64932 6.33076 2.75267 6.35132 2.85704 6.35132C2.96142 6.35132 3.06477 6.33076 3.1612 6.29082C3.25762 6.25088 3.34524 6.19233 3.41904 6.11853L7.61904 1.91853L11.819 6.11853C11.8927 6.19255 11.9803 6.25128 12.0767 6.29136C12.1732 6.33143 12.2766 6.35206 12.381 6.35206C12.4855 6.35206 12.5889 6.33143 12.6853 6.29136C12.7818 6.25128 12.8694 6.19255 12.943 6.11853L12.939 6.11753Z" fill="black"/>
<path fill-rule="evenodd" clip-rule="evenodd" d="M7.618 12.6974C7.82832 12.6974 8.03002 12.6139 8.17874 12.4652C8.32745 12.3164 8.411 12.1147 8.411 11.9044V1.58842C8.411 1.37797 8.3274 1.17614 8.17859 1.02733C8.02978 0.878523 7.82795 0.794922 7.6175 0.794922C7.40705 0.794922 7.20522 0.878523 7.05641 1.02733C6.9076 1.17614 6.824 1.37797 6.824 1.58842V11.9044C6.824 12.0086 6.84454 12.1118 6.88446 12.2081C6.92437 12.3044 6.98287 12.3919 7.05662 12.4655C7.13036 12.5392 7.2179 12.5976 7.31423 12.6373C7.41055 12.6771 7.51378 12.6976 7.618 12.6974ZM0 15.2374C0.000527434 15.0692 0.0675987 14.908 0.18657 14.789C0.305542 14.67 0.46675 14.6029 0.635 14.6024H14.6C14.7684 14.6024 14.9299 14.6693 15.049 14.7884C15.1681 14.9075 15.235 15.069 15.235 15.2374C15.235 15.4058 15.1681 15.5673 15.049 15.6864C14.9299 15.8055 14.7684 15.8724 14.6 15.8724H0.635C0.466588 15.8724 0.305073 15.8055 0.185987 15.6864C0.0669019 15.5673 0 15.4058 0 15.2374Z" fill="black"/>
</svg>
