<svg width="23" height="22" viewBox="0 0 23 22" fill="#000000" xmlns="http://www.w3.org/2000/svg">
<path fill-rule="evenodd" clip-rule="evenodd" d="M22.045 11.0001C22.045 13.0857 21.4265 15.1244 20.2678 16.8586C19.1091 18.5927 17.4622 19.9443 15.5354 20.7424C13.6085 21.5405 11.4883 21.7493 9.44273 21.3425C7.3972 20.9356 5.51826 19.9313 4.04352 18.4565C2.56878 16.9818 1.56446 15.1028 1.15758 13.0573C0.750699 11.0118 0.959525 8.89153 1.75765 6.96468C2.55578 5.03783 3.90736 3.39093 5.64147 2.23223C7.37559 1.07353 9.41436 0.455078 11.5 0.455078C14.2967 0.455078 16.9788 1.56607 18.9564 3.54364C20.934 5.52121 22.045 8.20337 22.045 11.0001ZM8.01196 11.4661C7.88708 11.584 7.72112 11.6486 7.54936 11.6462C7.3776 11.6437 7.21357 11.5744 7.0921 11.4529C6.97064 11.3315 6.90131 11.1674 6.89886 10.9957C6.89641 10.8239 6.96102 10.658 7.07896 10.5331L11.033 6.57908C11.0942 6.51773 11.1669 6.46906 11.2469 6.43585C11.327 6.40264 11.4128 6.38554 11.4995 6.38554C11.5861 6.38554 11.6719 6.40264 11.752 6.43585C11.832 6.46906 11.9047 6.51773 11.966 6.57908L15.92 10.5331C15.9841 10.5937 16.0355 10.6665 16.071 10.7473C16.1065 10.8281 16.1255 10.9152 16.1267 11.0035C16.128 11.0917 16.1115 11.1793 16.0783 11.2611C16.0452 11.3429 15.9959 11.4172 15.9335 11.4796C15.8711 11.542 15.7968 11.5913 15.715 11.6245C15.6332 11.6577 15.5456 11.6741 15.4574 11.6728C15.3691 11.6716 15.282 11.6526 15.2012 11.6171C15.1204 11.5816 15.0476 11.5302 14.987 11.4661L12.155 8.63708V14.9551C12.155 15.1299 12.0855 15.2975 11.9619 15.4211C11.8384 15.5446 11.6707 15.6141 11.496 15.6141C11.3212 15.6141 11.1536 15.5446 11.03 15.4211C10.9064 15.2975 10.837 15.1299 10.837 14.9551V8.63708L8.01196 11.4661Z" fill="black"/>
</svg>
