<svg width="120" height="105" viewBox="0 0 120 105" fill="none" xmlns="http://www.w3.org/2000/svg">
<path d="M120 75H66V78H120V75Z" fill="#2C517E"/>
<path d="M120 0H0V3H120V0Z" fill="#2C517E"/>
<path d="M120 65H0V68H120V65Z" fill="#2C517E"/>
<path d="M120 102H0V105H120V102Z" fill="#2C517E"/>
<path d="M120 81H66V84H120V81Z" fill="#2C517E"/>
<path d="M120 5H0V8H120V5Z" fill="#2C517E"/>
<path d="M120 70H0V73H120V70Z" fill="#2C517E"/>
<path d="M120 86H66V89H120V86Z" fill="#2C517E"/>
<path d="M120 91H66V94H120V91Z" fill="#2C517E"/>
<path d="M120 97H66V100H120V97Z" fill="#2C517E"/>
<path d="M120 11H0V63H120V11Z" fill="#5F7EA8"/>
<path d="M63 75H0V100H63V75Z" fill="#597EAC"/>
</svg>
