<svg width="149" height="186" viewBox="0 0 149 186" fill="none" xmlns="http://www.w3.org/2000/svg">
<path d="M7.466 18.016L9.082 18L11.77 9.024L14.362 18H15.994L19.226 6.848H17.658L15.21 16.272L12.65 6.848H11.018L8.33 16.304L5.898 6.848H4.346L7.466 18.016ZM20.8194 18H22.2754V9.232H20.8194V18ZM21.5714 7.808C22.0994 7.808 22.5314 7.376 22.5314 6.816C22.5314 6.256 22.0994 5.824 21.5714 5.824C21.0114 5.824 20.5794 6.256 20.5794 6.816C20.5794 7.376 21.0114 7.808 21.5714 7.808ZM24.2129 13.584C24.2129 16.304 26.0209 18.144 28.3729 18.144C29.9729 18.144 31.1089 17.328 31.6369 16.352V18H33.1089V6.16H31.6369V10.8C31.0289 9.792 29.7649 9.088 28.3889 9.088C26.0209 9.088 24.2129 10.848 24.2129 13.584ZM31.6369 13.6C31.6369 15.664 30.2609 16.864 28.6609 16.864C27.0609 16.864 25.7009 15.648 25.7009 13.584C25.7009 11.52 27.0609 10.352 28.6609 10.352C30.2609 10.352 31.6369 11.568 31.6369 13.6ZM39.2974 10.32C40.8014 10.32 42.0814 11.264 42.0654 12.976H36.5294C36.6894 11.264 37.8734 10.32 39.2974 10.32ZM43.3934 15.296H41.8254C41.5054 16.24 40.6734 16.912 39.3614 16.912C37.8734 16.912 36.6254 15.936 36.5134 14.16H43.5214C43.5534 13.856 43.5694 13.6 43.5694 13.28C43.5694 10.88 41.9054 9.088 39.3614 9.088C36.8014 9.088 35.0254 10.832 35.0254 13.6C35.0254 16.384 36.8654 18.144 39.3614 18.144C41.5374 18.144 42.9454 16.896 43.3934 15.296Z" fill="white"/>
<path d="M139 33H10C4.47715 33 0 37.4772 0 43V176C0 181.523 4.47715 186 10 186H139C144.523 186 149 181.523 149 176V43C149 37.4772 144.523 33 139 33Z" fill="#0F2E5F"/>
<path d="M135 132H81V135H135V132Z" fill="#2C517E"/>
<path d="M135 57H15V60H135V57Z" fill="#2C517E"/>
<path d="M135 122H15V125H135V122Z" fill="#2C517E"/>
<path d="M135 159H15V162H135V159Z" fill="#2C517E"/>
<path d="M135 138H81V141H135V138Z" fill="#2C517E"/>
<path d="M135 62H15V65H135V62Z" fill="#2C517E"/>
<path d="M135 127H15V130H135V127Z" fill="#2C517E"/>
<path d="M135 143H81V146H135V143Z" fill="#2C517E"/>
<path d="M135 148H81V151H135V148Z" fill="#2C517E"/>
<path d="M135 154H81V157H135V154Z" fill="#2C517E"/>
<path d="M135 68H15V120H135V68Z" fill="#5F7EA8"/>
<path d="M78 132H15V157H78V132Z" fill="#597EAC"/>
</svg>
